ThinItalic.ufo
<glyph name="quotedbl" format="1">
  <advance width="421"/>
  <unicode hex="0022"/>
  <outline>
    <contour>
      <point x="260" y="700" type="line"/>
      <point x="297" y="700" type="line"/>
      <point x="181" y="414" type="line"/>
      <point x="160" y="414" type="line"/>
    </contour>
    <contour>
      <point x="440" y="700" type="line"/>
      <point x="477" y="700" type="line"/>
      <point x="361" y="414" type="line"/>
      <point x="340" y="414" type="line"/>
    </contour>
  </outline>
</glyph>
<glyph name="numbersign" format="1">
  <advance width="581"/>
  <unicode hex="0023"/>
  <outline>
    <contour>
      <point x="154" y="450" type="line"/>
      <point x="159" y="477" type="line"/>
      <point x="630" y="477" type="line"/>
      <point x="625" y="450" type="line"/>
      <point x="502" y="450" type="line" smooth="yes"/>
      <point x="495" y="450" type="line" smooth="yes"/>
      <point x="292" y="450" type="line" smooth="yes"/>
      <point x="285" y="450" type="line" smooth="yes"/>
    </contour>
    <contour>
      <point x="75" y="228" type="line"/>
      <point x="80" y="255" type="line"/>
      <point x="203" y="255" type="line" smooth="yes"/>
      <point x="211" y="255" type="line" smooth="yes"/>
      <point x="413" y="255" type="line" smooth="yes"/>
      <point x="424" y="255" type="line" smooth="yes"/>
      <point x="551" y="255" type="line"/>
      <point x="546" y="228" type="line"/>
    </contour>
    <contour>
      <point x="589" y="700" type="line"/>
      <point x="619" y="700" type="line"/>
      <point x="326" y="0" type="line"/>
      <point x="296" y="0" type="line"/>
      <point x="396" y="239" type="line" smooth="yes"/>
      <point x="399" y="246" type="line" smooth="yes"/>
      <point x="488" y="459" type="line" smooth="yes"/>
      <point x="490" y="467" type="line" smooth="yes"/>
    </contour>
    <contour>
      <point x="379" y="700" type="line"/>
      <point x="409" y="700" type="line"/>
      <point x="312" y="468" type="line" smooth="yes"/>
      <point x="309" y="460" type="line" smooth="yes"/>
      <point x="217" y="244" type="line" smooth="yes"/>
      <point x="216" y="238" type="line" smooth="yes"/>
      <point x="116" y="0" type="line"/>
      <point x="86" y="0" type="line"/>
    </contour>
  </outline>
</glyph>
<glyph name="dollar" format="1">
  <advance width="580"/>
  <unicode hex="0024"/>
  <outline>
    <contour>
      <point x="396" y="818" type="line"/>
      <point x="424" y="818" type="line"/>
      <point x="402" y="690" type="line"/>
      <point x="374" y="690" type="line"/>
    </contour>
    <contour>
      <point x="254" y="13" type="line"/>
      <point x="284" y="13" type="line"/>
      <point x="262" y="-112" type="line"/>
      <point x="232" y="-112" type="line"/>
    </contour>
    <contour>
      <point x="527" y="538" type="line"/>
      <point x="516" y="602"/>
      <point x="483" y="676"/>
      <point x="385" y="676" type="curve" smooth="yes"/>
      <point x="298" y="676"/>
      <point x="228" y="623"/>
      <point x="214" y="545" type="curve" smooth="yes"/>
      <point x="198" y="452"/>
      <point x="280" y="407"/>
      <point x="360" y="376" type="curve" smooth="yes"/>
      <point x="435" y="347"/>
      <point x="518" y="294"/>
      <point x="498" y="180" type="curve" smooth="yes"/>
      <point x="479" y="75"/>
      <point x="408" y="-8"/>
      <point x="269" y="-8" type="curve" smooth="yes"/>
      <point x="147" y="-8"/>
      <point x="94" y="88"/>
      <point x="78" y="190" type="curve"/>
      <point x="109" y="206" type="line"/>
      <point x="124" y="112"/>
      <point x="165" y="23"/>
      <point x="276" y="23" type="curve" smooth="yes"/>
      <point x="391" y="23"/>
      <point x="447" y="88"/>
      <point x="463" y="178" type="curve" smooth="yes"/>
      <point x="480" y="277"/>
      <point x="401" y="324"/>
      <point x="328" y="352" type="curve" smooth="yes"/>
      <point x="256" y="380"/>
      <point x="159" y="433"/>
      <point x="179" y="547" type="curve" smooth="yes"/>
      <point x="196" y="643"/>
      <point x="290" y="708"/>
      <point x="390" y="708" type="curve" smooth="yes"/>
      <point x="503" y="708"/>
      <point x="550" y="624"/>
      <point x="558" y="553" type="curve"/>
    </contour>
  </outline>
</glyph>
<glyph name="ampersand" format="1">
  <advance width="675"/>
  <unicode hex="0026"/>
  <outline>
    <contour>
      <point x="71" y="176" type="curve"/>
      <point x="103" y="178" type="line"/>
      <point x="85" y="76"/>
      <point x="154" y="19"/>
      <point x="255" y="19" type="curve" smooth="yes"/>
      <point x="413" y="19"/>
      <point x="534" y="178"/>
      <point x="658" y="316" type="curve"/>
      <point x="680" y="301" type="line"/>
      <point x="551" y="161"/>
      <point x="428" y="-10"/>
      <point x="249" y="-10" type="curve" smooth="yes"/>
      <point x="134" y="-10"/>
      <point x="50" y="57"/>
    </contour>
    <contour>
      <point x="218" y="570" type="line"/>
      <point x="232" y="650"/>
      <point x="299" y="711"/>
      <point x="399" y="711" type="curve" smooth="yes"/>
      <point x="497" y="711"/>
      <point x="533" y="638"/>
      <point x="521" y="568" type="curve"/>
      <point x="490" y="568" type="line"/>
      <point x="500" y="622"/>
      <point x="474" y="682"/>
      <point x="394" y="682" type="curve" smooth="yes"/>
      <point x="311" y="682"/>
      <point x="261" y="632"/>
      <point x="250" y="570" type="curve"/>
    </contour>
    <contour>
      <point x="268" y="414" type="line" smooth="yes"/>
      <point x="242" y="452"/>
      <point x="205" y="496"/>
      <point x="218" y="570" type="curve"/>
      <point x="250" y="570" type="line"/>
      <point x="239" y="507"/>
      <point x="268" y="470"/>
      <point x="294" y="432" type="curve" smooth="yes"/>
      <point x="596" y="0" type="line"/>
      <point x="558" y="0" type="line"/>
    </contour>
    <contour>
      <point x="521" y="568" type="line"/>
      <point x="509" y="501"/>
      <point x="448" y="447"/>
      <point x="345" y="391" type="curve" smooth="yes"/>
      <point x="265" y="347"/>
      <point x="126" y="306"/>
      <point x="103" y="178" type="curve"/>
      <point x="71" y="176" type="line"/>
      <point x="97" y="323"/>
      <point x="251" y="370"/>
      <point x="326" y="410" type="curve" smooth="yes"/>
      <point x="420" y="460"/>
      <point x="480" y="512"/>
      <point x="490" y="568" type="curve"/>
    </contour>
  </outline>
</glyph>
<glyph name="quotesingle" format="1">
  <advance width="241"/>
  <unicode hex="0027"/>
  <outline>
    <contour>
      <point x="260" y="700" type="line"/>
      <point x="297" y="700" type="line"/>
      <point x="181" y="414" type="line"/>
      <point x="160" y="414" type="line"/>
    </contour>
  </outline>
</glyph>
<glyph name="parenleft" format="1">
  <advance width="261"/>
  <unicode hex="0028"/>
  <outline>
    <contour>
      <point x="343" y="780" type="curve"/>
      <point x="369" y="780" type="line"/>
      <point x="267" y="623"/>
      <point x="205" y="460"/>
      <point x="175" y="290" type="curve" smooth="yes"/>
      <point x="145" y="120"/>
      <point x="150" y="-43"/>
      <point x="196" y="-200" type="curve"/>
      <point x="170" y="-200" type="line"/>
      <point x="116" y="-50"/>
      <point x="111" y="120"/>
      <point x="141" y="290" type="curve" smooth="yes"/>
      <point x="171" y="460"/>
      <point x="237" y="630"/>
    </contour>
  </outline>
</glyph>
<glyph name="parenright" format="1">
  <advance width="261"/>
  <unicode hex="0029"/>
  <outline>
    <contour>
      <point x="21" y="-200" type="curve"/>
      <point x="-5" y="-200" type="line"/>
      <point x="97" y="-43"/>
      <point x="158" y="120"/>
      <point x="188" y="290" type="curve" smooth="yes"/>
      <point x="218" y="460"/>
      <point x="214" y="623"/>
      <point x="168" y="780" type="curve"/>
      <point x="194" y="780" type="line"/>
      <point x="248" y="630"/>
      <point x="252" y="460"/>
      <point x="222" y="290" type="curve" smooth="yes"/>
      <point x="192" y="120"/>
      <point x="127" y="-50"/>
    </contour>
  </outline>
</glyph>
<glyph name="asterisk" format="1">
  <advance width="592"/>
  <unicode hex="002A"/>
  <outline>
    <contour>
      <point x="568" y="589" type="line"/>
      <point x="571" y="560" type="line"/>
      <point x="389" y="510" type="line"/>
      <point x="385" y="528" type="line"/>
    </contour>
    <contour>
      <point x="481" y="382" type="line"/>
      <point x="454" y="364" type="line"/>
      <point x="378" y="512" type="line"/>
      <point x="397" y="525" type="line"/>
    </contour>
    <contour>
      <point x="266" y="364" type="line"/>
      <point x="245" y="382" type="line"/>
      <point x="381" y="525" type="line"/>
      <point x="394" y="512" type="line"/>
    </contour>
    <contour>
      <point x="219" y="560" type="line"/>
      <point x="232" y="589" type="line"/>
      <point x="393" y="528" type="line"/>
      <point x="383" y="510" type="line"/>
    </contour>
    <contour>
      <point x="405" y="700" type="line"/>
      <point x="433" y="700" type="line"/>
      <point x="398" y="519" type="line"/>
      <point x="378" y="519" type="line"/>
    </contour>
  </outline>
</glyph>
<glyph name="plus" format="1">
  <advance width="569"/>
  <unicode hex="002B"/>
  <outline>
    <contour>
      <point x="107" y="240" type="line"/>
      <point x="113" y="270" type="line"/>
      <point x="546" y="270" type="line"/>
      <point x="540" y="240" type="line"/>
    </contour>
    <contour>
      <point x="351" y="486" type="line"/>
      <point x="384" y="486" type="line"/>
      <point x="302" y="24" type="line"/>
      <point x="269" y="24" type="line"/>
    </contour>
  </outline>
</glyph>
<glyph name="comma" format="1">
  <advance width="285"/>
  <unicode hex="002C"/>
  <outline>
    <contour>
      <point x="184" y="99" type="line"/>
      <point x="213" y="86" type="line"/>
      <point x="59" y="-164" type="line"/>
      <point x="39" y="-156" type="line"/>
    </contour>
  </outline>
</glyph>
<glyph name="period" format="1">
  <advance width="272"/>
  <unicode hex="002E"/>
  <outline>
    <contour>
      <point x="114" y="12" type="curve" smooth="yes"/>
      <point x="116" y="26"/>
      <point x="130" y="37"/>
      <point x="143" y="37" type="curve" smooth="yes"/>
      <point x="156" y="37"/>
      <point x="164" y="26"/>
      <point x="162" y="12" type="curve" smooth="yes"/>
      <point x="160" y="-2"/>
      <point x="147" y="-12"/>
      <point x="134" y="-12" type="curve" smooth="yes"/>
      <point x="121" y="-12"/>
      <point x="112" y="-2"/>
    </contour>
  </outline>
</glyph>
<glyph name="slash" format="1">
  <advance width="487"/>
  <unicode hex="002F"/>
  <outline>
    <contour>
      <point x="563" y="700" type="line"/>
      <point x="595" y="700" type="line"/>
      <point x="22" y="-150" type="line"/>
      <point x="-11" y="-150" type="line"/>
    </contour>
  </outline>
</glyph>
<glyph name="zero" format="1">
  <advance width="565"/>
  <unicode hex="0030"/>
  <outline>
    <contour>
      <point x="146" y="350" type="curve" smooth="yes"/>
      <point x="114" y="170"/>
      <point x="161" y="21"/>
      <point x="286" y="21" type="curve" smooth="yes"/>
      <point x="411" y="21"/>
      <point x="512" y="170"/>
      <point x="544" y="350" type="curve" smooth="yes"/>
      <point x="576" y="530"/>
      <point x="527" y="679"/>
      <point x="402" y="679" type="curve" smooth="yes"/>
      <point x="277" y="679"/>
      <point x="178" y="530"/>
    </contour>
    <contour>
      <point x="112" y="350" type="curve" smooth="yes"/>
      <point x="148" y="552"/>
      <point x="263" y="710"/>
      <point x="407" y="710" type="curve" smooth="yes"/>
      <point x="551" y="710"/>
      <point x="612" y="552"/>
      <point x="576" y="350" type="curve" smooth="yes"/>
      <point x="540" y="148"/>
      <point x="424" y="-10"/>
      <point x="280" y="-10" type="curve" smooth="yes"/>
      <point x="136" y="-10"/>
      <point x="76" y="148"/>
    </contour>
  </outline>
</glyph>
<glyph name="one" format="1">
  <advance width="422"/>
  <unicode hex="0031"/>
  <outline>
    <contour>
      <point x="200" y="626" type="line"/>
      <point x="206" y="660" type="line"/>
      <point x="412" y="706" type="line"/>
      <point x="288" y="0" type="line"/>
      <point x="256" y="0" type="line"/>
      <point x="373" y="666" type="line"/>
    </contour>
  </outline>
</glyph>
<glyph name="two" format="1">
  <advance width="530"/>
  <unicode hex="0032"/>
  <outline>
    <contour>
      <point x="24" y="0" type="line"/>
      <point x="407" y="340" type="line" smooth="yes"/>
      <point x="464" y="390"/>
      <point x="513" y="439"/>
      <point x="526" y="515" type="curve" smooth="yes"/>
      <point x="539" y="589"/>
      <point x="508" y="680"/>
      <point x="392" y="680" type="curve" smooth="yes"/>
      <point x="281" y="680"/>
      <point x="193" y="590"/>
      <point x="170" y="460" type="curve"/>
      <point x="137" y="460" type="line"/>
      <point x="163" y="609"/>
      <point x="266" y="711"/>
      <point x="397" y="711" type="curve" smooth="yes"/>
      <point x="537" y="711"/>
      <point x="574" y="600"/>
      <point x="559" y="513" type="curve" smooth="yes"/>
      <point x="545" y="434"/>
      <point x="492" y="376"/>
      <point x="430" y="322" type="curve" smooth="yes"/>
      <point x="99" y="31" type="line"/>
      <point x="495" y="31" type="line"/>
      <point x="490" y="0" type="line"/>
    </contour>
  </outline>
</glyph>
<glyph name="three" format="1">
  <advance width="549"/>
  <unicode hex="0033"/>
  <outline>
    <contour>
      <point x="313" y="357" type="curve"/>
      <point x="317" y="379" type="line"/>
      <point x="407" y="379"/>
      <point x="515" y="438"/>
      <point x="531" y="530" type="curve" smooth="yes"/>
      <point x="545" y="608"/>
      <point x="504" y="680"/>
      <point x="404" y="680" type="curve" smooth="yes"/>
      <point x="308" y="680"/>
      <point x="234" y="615"/>
      <point x="218" y="526" type="curve"/>
      <point x="187" y="526" type="line"/>
      <point x="206" y="635"/>
      <point x="294" y="710"/>
      <point x="409" y="710" type="curve" smooth="yes"/>
      <point x="529" y="710"/>
      <point x="580" y="623"/>
      <point x="564" y="531" type="curve" smooth="yes"/>
      <point x="545" y="425"/>
      <point x="427" y="357"/>
    </contour>
    <contour>
      <point x="278" y="-10" type="curve" smooth="yes"/>
      <point x="143" y="-10"/>
      <point x="78" y="76"/>
      <point x="97" y="185" type="curve"/>
      <point x="129" y="185" type="line"/>
      <point x="112" y="91"/>
      <point x="169" y="21"/>
      <point x="284" y="21" type="curve" smooth="yes"/>
      <point x="392" y="21"/>
      <point x="473" y="87"/>
      <point x="490" y="181" type="curve" smooth="yes"/>
      <point x="510" y="295"/>
      <point x="402" y="350"/>
      <point x="312" y="350" type="curve"/>
      <point x="316" y="372" type="line"/>
      <point x="430" y="372"/>
      <point x="544" y="310"/>
      <point x="521" y="178" type="curve" smooth="yes"/>
      <point x="501" y="66"/>
      <point x="403" y="-10"/>
    </contour>
  </outline>
</glyph>
<glyph name="four" format="1">
  <advance width="562"/>
  <unicode hex="0034"/>
  <outline>
    <contour>
      <point x="49" y="140" type="line"/>
      <point x="82" y="170" type="line"/>
      <point x="430" y="170" type="line" smooth="yes"/>
      <point x="436" y="170" type="line" smooth="yes"/>
      <point x="558" y="170" type="line"/>
      <point x="553" y="140" type="line"/>
    </contour>
    <contour>
      <point x="84" y="140" type="line"/>
      <point x="49" y="140" type="line"/>
      <point x="531" y="700" type="line"/>
      <point x="542" y="700" type="line"/>
      <point x="419" y="0" type="line"/>
      <point x="386" y="0" type="line"/>
      <point x="413" y="152" type="line" smooth="yes"/>
      <point x="414" y="159" type="line" smooth="yes"/>
      <point x="495" y="620" type="line"/>
    </contour>
  </outline>
</glyph>
<glyph name="five" format="1">
  <advance width="559"/>
  <unicode hex="0035"/>
  <outline>
    <contour>
      <point x="541" y="230" type="curve" smooth="yes"/>
      <point x="513" y="71"/>
      <point x="394" y="-10"/>
      <point x="266" y="-10" type="curve" smooth="yes"/>
      <point x="151" y="-10"/>
      <point x="96" y="50"/>
      <point x="72" y="137" type="curve"/>
      <point x="103" y="155" type="line"/>
      <point x="123" y="75"/>
      <point x="176" y="21"/>
      <point x="272" y="21" type="curve" smooth="yes"/>
      <point x="386" y="21"/>
      <point x="483" y="96"/>
      <point x="507" y="230" type="curve" smooth="yes"/>
      <point x="527" y="344"/>
      <point x="460" y="422"/>
      <point x="360" y="422" type="curve" smooth="yes"/>
      <point x="279" y="422"/>
      <point x="216" y="391"/>
      <point x="148" y="327" type="curve"/>
      <point x="182" y="369" type="line"/>
      <point x="225" y="415"/>
      <point x="298" y="452"/>
      <point x="378" y="452" type="curve" smooth="yes"/>
      <point x="491" y="452"/>
      <point x="564" y="362"/>
    </contour>
    <contour>
      <point x="324" y="670" type="line"/>
      <point x="200" y="376" type="line"/>
      <point x="148" y="327" type="line"/>
      <point x="305" y="700" type="line"/>
      <point x="635" y="700" type="line"/>
      <point x="630" y="670" type="line"/>
    </contour>
  </outline>
</glyph>
<glyph name="six" format="1">
  <advance width="548"/>
  <unicode hex="0036"/>
  <outline>
    <contour>
      <point x="121" y="223" type="curve" smooth="yes"/>
      <point x="100" y="106"/>
      <point x="164" y="20"/>
      <point x="278" y="20" type="curve" smooth="yes"/>
      <point x="392" y="20"/>
      <point x="484" y="106"/>
      <point x="505" y="223" type="curve" smooth="yes"/>
      <point x="524" y="333"/>
      <point x="456" y="418"/>
      <point x="356" y="418" type="curve" smooth="yes"/>
      <point x="231" y="418"/>
      <point x="139" y="326"/>
    </contour>
    <contour>
      <point x="453" y="700" type="line"/>
      <point x="493" y="700" type="line"/>
      <point x="202" y="372" type="line"/>
      <point x="200" y="374" type="line"/>
      <point x="246" y="420"/>
      <point x="303" y="443"/>
      <point x="369" y="443" type="curve" smooth="yes"/>
      <point x="483" y="443"/>
      <point x="559" y="345"/>
      <point x="537" y="223" type="curve" smooth="yes"/>
      <point x="513" y="86"/>
      <point x="407" y="-10"/>
      <point x="272" y="-10" type="curve" smooth="yes"/>
      <point x="137" y="-10"/>
      <point x="65" y="86"/>
      <point x="89" y="223" type="curve" smooth="yes"/>
      <point x="99" y="280"/>
      <point x="135" y="341"/>
      <point x="169" y="378" type="curve" smooth="yes"/>
    </contour>
  </outline>
</glyph>
<glyph name="seven" format="1">
  <advance width="518"/>
  <unicode hex="0037"/>
  <outline>
    <contour>
      <point x="152" y="669" type="line"/>
      <point x="157" y="700" type="line"/>
      <point x="633" y="700" type="line"/>
      <point x="150" y="0" type="line"/>
      <point x="116" y="0" type="line"/>
      <point x="578" y="669" type="line"/>
    </contour>
  </outline>
</glyph>
<glyph name="eight" format="1">
  <advance width="525"/>
  <unicode hex="0038"/>
  <outline>
    <contour>
      <point x="179" y="538" type="curve" smooth="yes"/>
      <point x="195" y="630"/>
      <point x="284" y="710"/>
      <point x="387" y="710" type="curve" smooth="yes"/>
      <point x="490" y="710"/>
      <point x="553" y="630"/>
      <point x="537" y="538" type="curve" smooth="yes"/>
      <point x="519" y="436"/>
      <point x="420" y="364"/>
      <point x="326" y="364" type="curve" smooth="yes"/>
      <point x="232" y="364"/>
      <point x="161" y="436"/>
    </contour>
    <contour>
      <point x="209" y="535" type="curve" smooth="yes"/>
      <point x="194" y="448"/>
      <point x="263" y="386"/>
      <point x="330" y="386" type="curve" smooth="yes"/>
      <point x="397" y="386"/>
      <point x="489" y="448"/>
      <point x="504" y="535" type="curve" smooth="yes"/>
      <point x="518" y="615"/>
      <point x="468" y="680"/>
      <point x="382" y="680" type="curve" smooth="yes"/>
      <point x="296" y="680"/>
      <point x="223" y="615"/>
    </contour>
    <contour>
      <point x="95" y="186" type="curve" smooth="yes"/>
      <point x="115" y="301"/>
      <point x="225" y="378"/>
      <point x="329" y="378" type="curve" smooth="yes"/>
      <point x="433" y="378"/>
      <point x="516" y="301"/>
      <point x="496" y="186" type="curve" smooth="yes"/>
      <point x="477" y="77"/>
      <point x="385" y="-10"/>
      <point x="260" y="-10" type="curve" smooth="yes"/>
      <point x="135" y="-10"/>
      <point x="76" y="77"/>
    </contour>
    <contour>
      <point x="128" y="190" type="curve" smooth="yes"/>
      <point x="110" y="90"/>
      <point x="164" y="20"/>
      <point x="266" y="20" type="curve" smooth="yes"/>
      <point x="368" y="20"/>
      <point x="448" y="90"/>
      <point x="466" y="190" type="curve" smooth="yes"/>
      <point x="483" y="287"/>
      <point x="409" y="356"/>
      <point x="325" y="356" type="curve" smooth="yes"/>
      <point x="241" y="356"/>
      <point x="145" y="287"/>
    </contour>
  </outline>
</glyph>
<glyph name="nine" format="1">
  <advance width="548"/>
  <unicode hex="0039"/>
  <outline>
    <contour>
      <point x="550" y="477" type="curve" smooth="yes"/>
      <point x="571" y="594"/>
      <point x="508" y="680"/>
      <point x="394" y="680" type="curve" smooth="yes"/>
      <point x="280" y="680"/>
      <point x="187" y="594"/>
      <point x="166" y="477" type="curve" smooth="yes"/>
      <point x="147" y="367"/>
      <point x="216" y="282"/>
      <point x="316" y="282" type="curve" smooth="yes"/>
      <point x="441" y="282"/>
      <point x="532" y="374"/>
    </contour>
    <contour>
      <point x="218" y="0" type="line"/>
      <point x="178" y="0" type="line"/>
      <point x="470" y="328" type="line"/>
      <point x="471" y="326" type="line"/>
      <point x="425" y="280"/>
      <point x="368" y="257"/>
      <point x="302" y="257" type="curve" smooth="yes"/>
      <point x="188" y="257"/>
      <point x="112" y="355"/>
      <point x="134" y="477" type="curve" smooth="yes"/>
      <point x="158" y="614"/>
      <point x="264" y="710"/>
      <point x="399" y="710" type="curve" smooth="yes"/>
      <point x="534" y="710"/>
      <point x="606" y="614"/>
      <point x="582" y="477" type="curve" smooth="yes"/>
      <point x="572" y="420"/>
      <point x="537" y="359"/>
      <point x="503" y="322" type="curve" smooth="yes"/>
    </contour>
  </outline>
</glyph>
<glyph name="colon" format="1">
  <advance width="300"/>
  <unicode hex="003A"/>
  <outline>
    <contour>
      <point x="114" y="12" type="curve" smooth="yes"/>
      <point x="116" y="26"/>
      <point x="130" y="37"/>
      <point x="143" y="37" type="curve" smooth="yes"/>
      <point x="156" y="37"/>
      <point x="164" y="26"/>
      <point x="162" y="12" type="curve" smooth="yes"/>
      <point x="160" y="-2"/>
      <point x="147" y="-12"/>
      <point x="134" y="-12" type="curve" smooth="yes"/>
      <point x="121" y="-12"/>
      <point x="112" y="-2"/>
    </contour>
    <contour>
      <point x="177" y="370" type="curve" smooth="yes"/>
      <point x="179" y="384"/>
      <point x="192" y="394"/>
      <point x="205" y="394" type="curve" smooth="yes"/>
      <point x="218" y="394"/>
      <point x="227" y="384"/>
      <point x="225" y="370" type="curve" smooth="yes"/>
      <point x="223" y="356"/>
      <point x="210" y="346"/>
      <point x="197" y="346" type="curve" smooth="yes"/>
      <point x="184" y="346"/>
      <point x="175" y="356"/>
    </contour>
  </outline>
</glyph>
<glyph name="semicolon" format="1">
  <advance width="292"/>
  <unicode hex="003B"/>
  <outline>
    <contour>
      <point x="207" y="370" type="curve" smooth="yes"/>
      <point x="209" y="384"/>
      <point x="222" y="394"/>
      <point x="235" y="394" type="curve" smooth="yes"/>
      <point x="248" y="394"/>
      <point x="257" y="384"/>
      <point x="255" y="370" type="curve" smooth="yes"/>
      <point x="253" y="356"/>
      <point x="240" y="346"/>
      <point x="227" y="346" type="curve" smooth="yes"/>
      <point x="214" y="346"/>
      <point x="205" y="356"/>
    </contour>
    <contour>
      <point x="184" y="99" type="line"/>
      <point x="213" y="86" type="line"/>
      <point x="59" y="-164" type="line"/>
      <point x="39" y="-156" type="line"/>
    </contour>
  </outline>
</glyph>
<glyph name="less" format="1">
  <advance width="640"/>
  <unicode hex="003C"/>
  <outline>
    <contour>
      <point x="161" y="258" type="line"/>
      <point x="587" y="67" type="line"/>
      <point x="581" y="36" type="line"/>
      <point x="109" y="248" type="line"/>
      <point x="112" y="266" type="line"/>
      <point x="659" y="479" type="line"/>
      <point x="654" y="448" type="line"/>
    </contour>
  </outline>
</glyph>
<glyph name="equal" format="1">
  <advance width="615"/>
  <unicode hex="003D"/>
  <outline>
    <contour>
      <point x="95" y="172" type="line"/>
      <point x="100" y="201" type="line"/>
      <point x="585" y="201" type="line"/>
      <point x="580" y="172" type="line"/>
    </contour>
    <contour>
      <point x="119" y="304" type="line"/>
      <point x="124" y="334" type="line"/>
      <point x="609" y="334" type="line"/>
      <point x="604" y="304" type="line"/>
    </contour>
  </outline>
</glyph>
<glyph name="greater" format="1">
  <advance width="640"/>
  <unicode hex="003E"/>
  <outline>
    <contour>
      <point x="569" y="256" type="line"/>
      <point x="144" y="448" type="line"/>
      <point x="149" y="479" type="line"/>
      <point x="622" y="266" type="line"/>
      <point x="619" y="249" type="line"/>
      <point x="71" y="36" type="line"/>
      <point x="77" y="67" type="line"/>
    </contour>
  </outline>
</glyph>
<glyph name="question" format="1">
  <advance width="546"/>
  <unicode hex="003F"/>
  <outline>
    <contour>
      <point x="210" y="12" type="curve" smooth="yes"/>
      <point x="212" y="26"/>
      <point x="226" y="37"/>
      <point x="239" y="37" type="curve" smooth="yes"/>
      <point x="252" y="37"/>
      <point x="260" y="26"/>
      <point x="258" y="12" type="curve" smooth="yes"/>
      <point x="256" y="-2"/>
      <point x="243" y="-12"/>
      <point x="230" y="-12" type="curve" smooth="yes"/>
      <point x="217" y="-12"/>
      <point x="208" y="-2"/>
    </contour>
    <contour>
      <point x="276" y="345" type="line"/>
      <point x="311" y="345" type="line"/>
      <point x="278" y="170" type="line"/>
      <point x="254" y="170" type="line"/>
    </contour>
    <contour>
      <point x="532" y="514" type="curve" smooth="yes"/>
      <point x="549" y="610"/>
      <point x="497" y="680"/>
      <point x="386" y="680" type="curve" smooth="yes"/>
      <point x="302" y="680"/>
      <point x="243" y="640"/>
      <point x="192" y="576" type="curve"/>
      <point x="169" y="593" type="line"/>
      <point x="227" y="663"/>
      <point x="288" y="710"/>
      <point x="393" y="710" type="curve" smooth="yes"/>
      <point x="518" y="710"/>
      <point x="583" y="626"/>
      <point x="563" y="514" type="curve" smooth="yes"/>
      <point x="544" y="409"/>
      <point x="426" y="323"/>
      <point x="300" y="323" type="curve"/>
      <point x="283" y="345" type="line"/>
      <point x="410" y="345"/>
      <point x="516" y="424"/>
    </contour>
  </outline>
</glyph>
<glyph name="at" format="1">
  <advance width="770"/>
  <unicode hex="0040"/>
  <outline>
    <contour>
      <point x="287" y="320" type="curve" smooth="yes"/>
      <point x="273" y="243"/>
      <point x="309" y="191"/>
      <point x="375" y="191" type="curve" smooth="yes"/>
      <point x="449" y="191"/>
      <point x="528" y="264"/>
      <point x="547" y="370" type="curve" smooth="yes"/>
      <point x="559" y="440"/>
      <point x="530" y="500"/>
      <point x="466" y="500" type="curve" smooth="yes"/>
      <point x="394" y="500"/>
      <point x="308" y="438"/>
    </contour>
    <contour>
      <point x="256" y="319" type="curve" smooth="yes"/>
      <point x="281" y="458"/>
      <point x="386" y="528"/>
      <point x="471" y="528" type="curve" smooth="yes"/>
      <point x="549" y="528"/>
      <point x="583" y="454"/>
      <point x="568" y="368" type="curve" smooth="yes"/>
      <point x="547" y="250"/>
      <point x="453" y="162"/>
      <point x="365" y="162" type="curve" smooth="yes"/>
      <point x="291" y="162"/>
      <point x="239" y="220"/>
    </contour>
    <contour>
      <point x="91" y="320" type="curve" smooth="yes"/>
      <point x="130" y="539"/>
      <point x="316" y="708"/>
      <point x="540" y="708" type="curve" smooth="yes"/>
      <point x="747" y="708"/>
      <point x="832" y="549"/>
      <point x="804" y="390" type="curve" smooth="yes"/>
      <point x="775" y="224"/>
      <point x="658" y="152"/>
      <point x="583" y="152" type="curve" smooth="yes"/>
      <point x="522" y="152"/>
      <point x="500" y="204"/>
      <point x="527" y="284" type="curve"/>
      <point x="524" y="284" type="line"/>
      <point x="604" y="520" type="line"/>
      <point x="636" y="520" type="line"/>
      <point x="553" y="289" type="line" smooth="yes"/>
      <point x="551" y="282"/>
      <point x="546" y="264"/>
      <point x="545" y="256" type="curve" smooth="yes"/>
      <point x="540" y="225"/>
      <point x="540" y="179"/>
      <point x="591" y="179" type="curve" smooth="yes"/>
      <point x="651" y="179"/>
      <point x="750" y="250"/>
      <point x="775" y="390" type="curve" smooth="yes"/>
      <point x="801" y="537"/>
      <point x="724" y="682"/>
      <point x="535" y="682" type="curve" smooth="yes"/>
      <point x="325" y="682"/>
      <point x="156" y="526"/>
      <point x="120" y="320" type="curve" smooth="yes"/>
      <point x="88" y="136"/>
      <point x="177" y="18"/>
      <point x="361" y="18" type="curve" smooth="yes"/>
      <point x="463" y="18"/>
      <point x="538" y="45"/>
      <point x="602" y="78" type="curve"/>
      <point x="611" y="53" type="line"/>
      <point x="546" y="22"/>
      <point x="476" y="-8"/>
      <point x="357" y="-8" type="curve" smooth="yes"/>
      <point x="150" y="-8"/>
      <point x="56" y="121"/>
    </contour>
  </outline>
</glyph>
<glyph name="B" format="1">
  <advance width="513"/>
  <unicode hex="0042"/>
  <outline>
    <contour>
      <point x="175" y="392" type="line"/>
      <point x="304" y="392" type="line" smooth="yes"/>
      <point x="404" y="392"/>
      <point x="516" y="331"/>
      <point x="493" y="202" type="curve" smooth="yes"/>
      <point x="468" y="63"/>
      <point x="363" y="0"/>
      <point x="228" y="0" type="curve" smooth="yes"/>
      <point x="106" y="0" type="line"/>
      <point x="111" y="30" type="line"/>
      <point x="233" y="30" type="line" smooth="yes"/>
      <point x="351" y="30"/>
      <point x="439" y="85"/>
      <point x="460" y="203" type="curve" smooth="yes"/>
      <point x="479" y="310"/>
      <point x="391" y="372"/>
      <point x="294" y="372" type="curve" smooth="yes"/>
      <point x="172" y="372" type="line"/>
    </contour>
    <contour>
      <point x="173" y="381" type="line"/>
      <point x="177" y="401" type="line"/>
      <point x="289" y="401" type="line" smooth="yes"/>
      <point x="380" y="401"/>
      <point x="463" y="440"/>
      <point x="480" y="534" type="curve" smooth="yes"/>
      <point x="495" y="620"/>
      <point x="441" y="670"/>
      <point x="336" y="670" type="curve" smooth="yes"/>
      <point x="224" y="670" type="line"/>
      <point x="229" y="700" type="line"/>
      <point x="341" y="700" type="line" smooth="yes"/>
      <point x="466" y="700"/>
      <point x="533" y="641"/>
      <point x="514" y="536" type="curve" smooth="yes"/>
      <point x="495" y="430"/>
      <point x="403" y="381"/>
      <point x="292" y="381" type="curve" smooth="yes"/>
    </contour>
    <contour>
      <point x="210" y="700" type="line"/>
      <point x="243" y="700" type="line"/>
      <point x="120" y="0" type="line"/>
      <point x="87" y="0" type="line"/>
    </contour>
  </outline>
</glyph>
<glyph name="F" format="1">
  <advance width="465"/>
  <unicode hex="0046"/>
  <outline>
    <contour>
      <point x="221" y="668" type="line"/>
      <point x="226" y="700" type="line"/>
      <point x="528" y="700" type="line"/>
      <point x="523" y="668" type="line"/>
    </contour>
    <contour>
      <point x="167" y="363" type="line"/>
      <point x="172" y="394" type="line"/>
      <point x="464" y="394" type="line"/>
      <point x="459" y="363" type="line"/>
    </contour>
    <contour>
      <point x="210" y="700" type="line"/>
      <point x="243" y="700" type="line"/>
      <point x="120" y="0" type="line"/>
      <point x="87" y="0" type="line"/>
    </contour>
  </outline>
</glyph>
<glyph name="H" format="1">
  <advance width="667"/>
  <unicode hex="0048"/>
  <outline>
    <contour>
      <point x="168" y="366" type="line"/>
      <point x="173" y="397" type="line"/>
      <point x="639" y="397" type="line"/>
      <point x="634" y="366" type="line"/>
    </contour>
    <contour>
      <point x="670" y="700" type="line"/>
      <point x="703" y="700" type="line"/>
      <point x="580" y="0" type="line"/>
      <point x="547" y="0" type="line"/>
    </contour>
    <contour>
      <point x="210" y="700" type="line"/>
      <point x="243" y="700" type="line"/>
      <point x="120" y="0" type="line"/>
      <point x="87" y="0" type="line"/>
    </contour>
  </outline>
</glyph>
<glyph name="J" format="1">
  <advance width="209"/>
  <unicode hex="004A"/>
  <outline>
    <contour>
      <point x="-134" y="-142" type="line"/>
      <point x="-117" y="-166"/>
      <point x="-84" y="-188"/>
      <point x="-41" y="-188" type="curve" smooth="yes"/>
      <point x="31" y="-188"/>
      <point x="64" y="-151"/>
      <point x="82" y="-50" type="curve" smooth="yes"/>
      <point x="214" y="700" type="line"/>
      <point x="246" y="700" type="line"/>
      <point x="112" y="-60" type="line" smooth="yes"/>
      <point x="93" y="-169"/>
      <point x="46" y="-220"/>
      <point x="-48" y="-220" type="curve" smooth="yes"/>
      <point x="-101" y="-220"/>
      <point x="-145" y="-186"/>
      <point x="-156" y="-166" type="curve"/>
    </contour>
  </outline>
</glyph>
<glyph name="K" format="1">
  <advance width="487"/>
  <unicode hex="004B"/>
  <outline>
    <contour>
      <point x="207" y="700" type="line"/>
      <point x="239" y="700" type="line"/>
      <point x="116" y="0" type="line"/>
      <point x="84" y="0" type="line"/>
    </contour>
    <contour>
      <point x="541" y="700" type="line"/>
      <point x="583" y="700" type="line"/>
      <point x="215" y="372" type="line"/>
      <point x="476" y="0" type="line"/>
      <point x="432" y="0" type="line"/>
      <point x="174" y="372" type="line"/>
    </contour>
  </outline>
</glyph>
<glyph name="L" format="1">
  <advance width="436"/>
  <unicode hex="004C"/>
  <outline>
    <contour>
      <point x="106" y="0" type="line"/>
      <point x="111" y="31" type="line"/>
      <point x="424" y="31" type="line"/>
      <point x="419" y="0" type="line"/>
    </contour>
    <contour>
      <point x="210" y="700" type="line"/>
      <point x="243" y="700" type="line"/>
      <point x="120" y="0" type="line"/>
      <point x="87" y="0" type="line"/>
    </contour>
  </outline>
</glyph>
<glyph name="M" format="1">
  <advance width="824"/>
  <unicode hex="004D"/>
  <outline>
    <contour>
      <point x="780" y="624" type="line"/>
      <point x="819" y="721" type="line"/>
      <point x="770" y="0" type="line"/>
      <point x="737" y="0" type="line"/>
    </contour>
    <contour>
      <point x="259" y="721" type="line"/>
      <point x="264" y="624" type="line"/>
      <point x="87" y="0" type="line"/>
      <point x="54" y="0" type="line"/>
    </contour>
    <contour>
      <point x="819" y="721" type="line"/>
      <point x="800" y="642" type="line"/>
      <point x="428" y="93" type="line"/>
      <point x="250" y="642" type="line"/>
      <point x="259" y="721" type="line"/>
      <point x="440" y="160" type="line"/>
    </contour>
  </outline>
</glyph>
<glyph name="N" format="1">
  <advance width="698"/>
  <unicode hex="004E"/>
  <outline>
    <contour>
      <point x="184" y="656" type="line"/>
      <point x="186" y="721" type="line"/>
      <point x="623" y="40" type="line"/>
      <point x="621" y="-21" type="line"/>
    </contour>
    <contour>
      <point x="715" y="700" type="line"/>
      <point x="748" y="700" type="line"/>
      <point x="621" y="-21" type="line"/>
      <point x="598" y="34" type="line"/>
    </contour>
    <contour>
      <point x="186" y="721" type="line"/>
      <point x="209" y="662" type="line"/>
      <point x="92" y="0" type="line"/>
      <point x="59" y="0" type="line"/>
    </contour>
  </outline>
</glyph>
<glyph name="O" format="1">
  <advance width="778"/>
  <unicode hex="004F"/>
  <outline>
    <contour>
      <point x="144" y="350" type="curve" smooth="yes"/>
      <point x="111" y="162"/>
      <point x="214" y="24"/>
      <point x="394" y="24" type="curve" smooth="yes"/>
      <point x="574" y="24"/>
      <point x="726" y="162"/>
      <point x="759" y="350" type="curve" smooth="yes"/>
      <point x="792" y="538"/>
      <point x="689" y="676"/>
      <point x="509" y="676" type="curve" smooth="yes"/>
      <point x="329" y="676"/>
      <point x="177" y="538"/>
    </contour>
    <contour>
      <point x="109" y="350" type="curve" smooth="yes"/>
      <point x="146" y="558"/>
      <point x="318" y="708"/>
      <point x="515" y="708" type="curve" smooth="yes"/>
      <point x="712" y="708"/>
      <point x="831" y="558"/>
      <point x="794" y="350" type="curve" smooth="yes"/>
      <point x="757" y="142"/>
      <point x="586" y="-8"/>
      <point x="389" y="-8" type="curve" smooth="yes"/>
      <point x="192" y="-8"/>
      <point x="72" y="142"/>
    </contour>
  </outline>
</glyph>
<glyph name="P" format="1">
  <advance width="500"/>
  <unicode hex="0050"/>
  <outline>
    <contour>
      <point x="210" y="700" type="line"/>
      <point x="243" y="700" type="line"/>
      <point x="120" y="0" type="line"/>
      <point x="87" y="0" type="line"/>
    </contour>
    <contour>
      <point x="224" y="669" type="line"/>
      <point x="229" y="700" type="line"/>
      <point x="355" y="700" type="line" smooth="yes"/>
      <point x="483" y="700"/>
      <point x="564" y="624"/>
      <point x="541" y="495" type="curve" smooth="yes"/>
      <point x="518" y="366"/>
      <point x="411" y="290"/>
      <point x="283" y="290" type="curve" smooth="yes"/>
      <point x="157" y="290" type="line"/>
      <point x="163" y="321" type="line"/>
      <point x="289" y="321" type="line" smooth="yes"/>
      <point x="400" y="321"/>
      <point x="487" y="383"/>
      <point x="507" y="495" type="curve" smooth="yes"/>
      <point x="527" y="607"/>
      <point x="461" y="669"/>
      <point x="350" y="669" type="curve" smooth="yes"/>
    </contour>
  </outline>
</glyph>
<glyph name="T" format="1">
  <advance width="441"/>
  <unicode hex="0054"/>
  <outline>
    <contour>
      <point x="135" y="668" type="line"/>
      <point x="140" y="700" type="line"/>
      <point x="547" y="700" type="line"/>
      <point x="542" y="668" type="line"/>
      <point x="355" y="668" type="line"/>
      <point x="237" y="0" type="line"/>
      <point x="204" y="0" type="line"/>
      <point x="322" y="668" type="line"/>
    </contour>
  </outline>
</glyph>
<glyph name="V" format="1">
  <advance width="618"/>
  <unicode hex="0056"/>
  <outline>
    <contour>
      <point x="319" y="58" type="line"/>
      <point x="691" y="700" type="line"/>
      <point x="729" y="700" type="line"/>
      <point x="305" y="-21" type="line"/>
      <point x="135" y="700" type="line"/>
      <point x="173" y="700" type="line"/>
    </contour>
  </outline>
</glyph>
<glyph name="W" format="1">
  <advance width="962"/>
  <unicode hex="0057"/>
  <outline>
    <contour>
      <point x="284" y="34" type="line"/>
      <point x="260" y="-21" type="line"/>
      <point x="140" y="700" type="line"/>
      <point x="176" y="700" type="line"/>
    </contour>
    <contour>
      <point x="694" y="-21" type="line"/>
      <point x="690" y="34" type="line"/>
      <point x="1032" y="700" type="line"/>
      <point x="1068" y="700" type="line"/>
    </contour>
    <contour>
      <point x="260" y="-21" type="line"/>
      <point x="259" y="38" type="line"/>
      <point x="608" y="721" type="line"/>
      <point x="717" y="38" type="line"/>
      <point x="694" y="-21" type="line"/>
      <point x="591" y="626" type="line"/>
    </contour>
  </outline>
</glyph>
<glyph name="X" format="1">
  <advance width="516"/>
  <unicode hex="0058"/>
  <outline>
    <contour>
      <point x="567" y="700" type="line"/>
      <point x="607" y="700" type="line"/>
      <point x="343" y="367" type="line"/>
      <point x="500" y="0" type="line"/>
      <point x="460" y="0" type="line"/>
      <point x="319" y="337" type="line"/>
      <point x="57" y="0" type="line"/>
      <point x="17" y="0" type="line"/>
      <point x="309" y="367" type="line"/>
      <point x="165" y="700" type="line"/>
      <point x="205" y="700" type="line"/>
      <point x="332" y="396" type="line"/>
    </contour>
  </outline>
</glyph>
<glyph name="Y" format="1">
  <advance width="523"/>
  <unicode hex="0059"/>
  <outline>
    <contour>
      <point x="295" y="300" type="line"/>
      <point x="327" y="300" type="line"/>
      <point x="274" y="0" type="line"/>
      <point x="242" y="0" type="line"/>
    </contour>
    <contour>
      <point x="597" y="700" type="line"/>
      <point x="634" y="700" type="line"/>
      <point x="302" y="248" type="line"/>
      <point x="135" y="700" type="line"/>
      <point x="173" y="700" type="line"/>
      <point x="313" y="310" type="line"/>
    </contour>
  </outline>
</glyph>
<glyph name="Z" format="1">
  <advance width="538"/>
  <unicode hex="005A"/>
  <outline>
    <contour>
      <point x="156" y="668" type="line"/>
      <point x="161" y="700" type="line"/>
      <point x="645" y="700" type="line"/>
      <point x="81" y="32" type="line"/>
      <point x="514" y="32" type="line"/>
      <point x="508" y="0" type="line"/>
      <point x="18" y="0" type="line"/>
      <point x="583" y="668" type="line"/>
    </contour>
  </outline>
</glyph>
<glyph name="bracketleft" format="1">
  <advance width="272"/>
  <unicode hex="005B"/>
  <outline>
    <contour>
      <point x="264" y="750" type="line"/>
      <point x="98" y="-190" type="line"/>
      <point x="218" y="-190" type="line"/>
      <point x="213" y="-220" type="line"/>
      <point x="61" y="-220" type="line"/>
      <point x="238" y="780" type="line"/>
      <point x="390" y="780" type="line"/>
      <point x="384" y="750" type="line"/>
    </contour>
  </outline>
</glyph>
<glyph name="bracketright" format="1">
  <advance width="272"/>
  <unicode hex="005D"/>
  <outline>
    <contour>
      <point x="106" y="-190" type="line"/>
      <point x="272" y="750" type="line"/>
      <point x="152" y="750" type="line"/>
      <point x="158" y="780" type="line"/>
      <point x="310" y="780" type="line"/>
      <point x="133" y="-220" type="line"/>
      <point x="-19" y="-220" type="line"/>
      <point x="-14" y="-190" type="line"/>
    </contour>
  </outline>
</glyph>
<glyph name="asciicircum" format="1">
  <advance width="510"/>
  <unicode hex="005E"/>
  <outline>
    <contour>
      <point x="373" y="672" type="line"/>
      <point x="181" y="460" type="line"/>
      <point x="146" y="460" type="line"/>
      <point x="374" y="710" type="line"/>
      <point x="386" y="710" type="line"/>
      <point x="526" y="460" type="line"/>
      <point x="491" y="460" type="line"/>
    </contour>
  </outline>
</glyph>
<glyph name="underscore" format="1">
  <advance width="500"/>
  <unicode hex="005F"/>
  <outline>
    <contour>
      <point x="-20" y="-116" type="line"/>
      <point x="-16" y="-92" type="line"/>
      <point x="484" y="-92" type="line"/>
      <point x="480" y="-116" type="line"/>
    </contour>
  </outline>
</glyph>
<glyph name="grave" format="1">
  <advance width="359"/>
  <unicode hex="0060"/>
  <outline>
    <contour>
      <point x="212" y="682" type="line"/>
      <point x="243" y="700" type="line"/>
      <point x="379" y="540" type="line"/>
      <point x="361" y="528" type="line"/>
    </contour>
  </outline>
</glyph>
<glyph name="a" format="1">
  <advance width="549"/>
  <unicode hex="0061"/>
  <outline>
    <contour>
      <point x="524" y="460" type="line"/>
      <point x="554" y="460" type="line"/>
      <point x="473" y="0" type="line"/>
      <point x="443" y="0" type="line"/>
    </contour>
    <contour>
      <point x="83" y="230" type="curve" smooth="yes"/>
      <point x="109" y="378"/>
      <point x="221" y="470"/>
      <point x="343" y="470" type="curve" smooth="yes"/>
      <point x="464" y="470"/>
      <point x="520" y="358"/>
      <point x="497" y="230" type="curve" smooth="yes"/>
      <point x="474" y="102"/>
      <point x="379" y="-10"/>
      <point x="258" y="-10" type="curve" smooth="yes"/>
      <point x="136" y="-10"/>
      <point x="57" y="82"/>
    </contour>
    <contour>
      <point x="114" y="230" type="curve" smooth="yes"/>
      <point x="91" y="100"/>
      <point x="162" y="20"/>
      <point x="269" y="20" type="curve" smooth="yes"/>
      <point x="366" y="20"/>
      <point x="463" y="117"/>
      <point x="483" y="230" type="curve" smooth="yes"/>
      <point x="503" y="343"/>
      <point x="440" y="440"/>
      <point x="343" y="440" type="curve" smooth="yes"/>
      <point x="236" y="440"/>
      <point x="137" y="360"/>
    </contour>
  </outline>
</glyph>
<glyph name="b" format="1">
  <advance width="549"/>
  <unicode hex="0062"/>
  <outline>
    <contour>
      <point x="246" y="780" type="line"/>
      <point x="108" y="0" type="line"/>
      <point x="77" y="0" type="line"/>
      <point x="215" y="780" type="line"/>
    </contour>
    <contour>
      <point x="549" y="230" type="curve" smooth="yes"/>
      <point x="523" y="82"/>
      <point x="410" y="-10"/>
      <point x="288" y="-10" type="curve" smooth="yes"/>
      <point x="168" y="-10"/>
      <point x="111" y="92"/>
      <point x="135" y="230" type="curve" smooth="yes"/>
      <point x="159" y="368"/>
      <point x="253" y="470"/>
      <point x="373" y="470" type="curve" smooth="yes"/>
      <point x="495" y="470"/>
      <point x="575" y="378"/>
    </contour>
    <contour>
      <point x="517" y="230" type="curve" smooth="yes"/>
      <point x="540" y="360"/>
      <point x="469" y="440"/>
      <point x="363" y="440" type="curve" smooth="yes"/>
      <point x="265" y="440"/>
      <point x="169" y="343"/>
      <point x="149" y="230" type="curve" smooth="yes"/>
      <point x="129" y="117"/>
      <point x="191" y="20"/>
      <point x="289" y="20" type="curve" smooth="yes"/>
      <point x="395" y="20"/>
      <point x="494" y="100"/>
    </contour>
  </outline>
</glyph>
<glyph name="d" format="1">
  <advance width="549"/>
  <unicode hex="0064"/>
  <outline>
    <contour>
      <point x="580" y="780" type="line"/>
      <point x="610" y="780" type="line"/>
      <point x="472" y="0" type="line"/>
      <point x="442" y="0" type="line"/>
    </contour>
    <contour>
      <point x="83" y="230" type="curve" smooth="yes"/>
      <point x="109" y="378"/>
      <point x="221" y="470"/>
      <point x="343" y="470" type="curve" smooth="yes"/>
      <point x="463" y="470"/>
      <point x="521" y="368"/>
      <point x="497" y="230" type="curve" smooth="yes"/>
      <point x="473" y="92"/>
      <point x="378" y="-10"/>
      <point x="258" y="-10" type="curve" smooth="yes"/>
      <point x="136" y="-10"/>
      <point x="57" y="82"/>
    </contour>
    <contour>
      <point x="115" y="230" type="curve" smooth="yes"/>
      <point x="92" y="100"/>
      <point x="162" y="20"/>
      <point x="268" y="20" type="curve" smooth="yes"/>
      <point x="366" y="20"/>
      <point x="463" y="117"/>
      <point x="483" y="230" type="curve" smooth="yes"/>
      <point x="503" y="343"/>
      <point x="440" y="440"/>
      <point x="342" y="440" type="curve" smooth="yes"/>
      <point x="236" y="440"/>
      <point x="138" y="360"/>
    </contour>
  </outline>
</glyph>
<glyph name="e" format="1">
  <advance width="505"/>
  <unicode hex="0065"/>
  <outline>
    <contour>
      <point x="104" y="222" type="line"/>
      <point x="109" y="250" type="line"/>
      <point x="498" y="250" type="line"/>
      <point x="501" y="222" type="line"/>
    </contour>
    <contour>
      <point x="477" y="252" type="line" smooth="yes"/>
      <point x="496" y="361"/>
      <point x="432" y="442"/>
      <point x="335" y="442" type="curve" smooth="yes"/>
      <point x="239" y="442"/>
      <point x="138" y="366"/>
      <point x="116" y="240" type="curve"/>
      <point x="115" y="232" type="line"/>
      <point x="93" y="108"/>
      <point x="154" y="20"/>
      <point x="258" y="20" type="curve" smooth="yes"/>
      <point x="360" y="20"/>
      <point x="414" y="74"/>
      <point x="453" y="124" type="curve"/>
      <point x="475" y="107" type="line"/>
      <point x="430" y="53"/>
      <point x="372" y="-10"/>
      <point x="249" y="-10" type="curve" smooth="yes"/>
      <point x="131" y="-10"/>
      <point x="58" y="93"/>
      <point x="83" y="232" type="curve" smooth="yes"/>
      <point x="87" y="256"/>
      <point x="93" y="278"/>
      <point x="103" y="300" type="curve" smooth="yes"/>
      <point x="145" y="400"/>
      <point x="237" y="470"/>
      <point x="341" y="470" type="curve" smooth="yes"/>
      <point x="453" y="470"/>
      <point x="531" y="379"/>
      <point x="508" y="248" type="curve" smooth="yes"/>
      <point x="507" y="240"/>
      <point x="503" y="230"/>
      <point x="501" y="222" type="curve"/>
      <point x="474" y="230" type="line"/>
    </contour>
  </outline>
</glyph>
<glyph name="f" format="1">
  <advance width="280"/>
  <unicode hex="0066"/>
  <outline>
    <contour>
      <point x="128" y="460" type="line"/>
      <point x="333" y="460" type="line"/>
      <point x="328" y="430" type="line"/>
      <point x="123" y="430" type="line"/>
    </contour>
    <contour>
      <point x="403" y="718" type="line"/>
      <point x="391" y="739"/>
      <point x="370" y="758"/>
      <point x="340" y="758" type="curve" smooth="yes"/>
      <point x="275" y="758"/>
      <point x="246" y="700"/>
      <point x="236" y="641" type="curve" smooth="yes"/>
      <point x="123" y="0" type="line"/>
      <point x="92" y="0" type="line"/>
      <point x="206" y="644" type="line" smooth="yes"/>
      <point x="220" y="725"/>
      <point x="263" y="788"/>
      <point x="347" y="788" type="curve" smooth="yes"/>
      <point x="390" y="788"/>
      <point x="414" y="763"/>
      <point x="425" y="743" type="curve"/>
    </contour>
  </outline>
</glyph>
<glyph name="h" format="1">
  <advance width="490"/>
  <unicode hex="0068"/>
  <outline>
    <contour>
      <point x="251" y="780" type="line"/>
      <point x="113" y="0" type="line"/>
      <point x="82" y="0" type="line"/>
      <point x="220" y="780" type="line"/>
    </contour>
    <contour>
      <point x="431" y="308" type="line" smooth="yes"/>
      <point x="445" y="388"/>
      <point x="422" y="440"/>
      <point x="340" y="440" type="curve" smooth="yes"/>
      <point x="256" y="440"/>
      <point x="177" y="366"/>
      <point x="162" y="280" type="curve"/>
      <point x="146" y="280" type="line"/>
      <point x="165" y="389"/>
      <point x="256" y="470"/>
      <point x="351" y="470" type="curve" smooth="yes"/>
      <point x="446" y="470"/>
      <point x="480" y="409"/>
      <point x="463" y="311" type="curve" smooth="yes"/>
      <point x="408" y="0" type="line"/>
      <point x="377" y="0" type="line"/>
    </contour>
  </outline>
</glyph>
<glyph name="i" format="1">
  <advance width="211"/>
  <unicode hex="0069"/>
  <outline>
    <contour>
      <point x="202" y="682" type="curve" smooth="yes"/>
      <point x="204" y="695"/>
      <point x="216" y="705"/>
      <point x="230" y="705" type="curve" smooth="yes"/>
      <point x="244" y="705"/>
      <point x="251" y="695"/>
      <point x="249" y="682" type="curve" smooth="yes"/>
      <point x="247" y="669"/>
      <point x="236" y="658"/>
      <point x="222" y="658" type="curve" smooth="yes"/>
      <point x="208" y="658"/>
      <point x="200" y="669"/>
    </contour>
    <contour>
      <point x="171" y="460" type="line"/>
      <point x="202" y="460" type="line"/>
      <point x="121" y="0" type="line"/>
      <point x="90" y="0" type="line"/>
    </contour>
  </outline>
</glyph>
<glyph name="j" format="1">
  <advance width="201"/>
  <unicode hex="006A"/>
  <outline>
    <contour>
      <point x="192" y="682" type="curve" smooth="yes"/>
      <point x="194" y="695"/>
      <point x="206" y="705"/>
      <point x="220" y="705" type="curve" smooth="yes"/>
      <point x="234" y="705"/>
      <point x="241" y="695"/>
      <point x="239" y="682" type="curve" smooth="yes"/>
      <point x="237" y="669"/>
      <point x="226" y="658"/>
      <point x="212" y="658" type="curve" smooth="yes"/>
      <point x="198" y="658"/>
      <point x="190" y="669"/>
    </contour>
    <contour>
      <point x="-98" y="-150" type="line"/>
      <point x="-86" y="-171"/>
      <point x="-66" y="-189"/>
      <point x="-36" y="-189" type="curve" smooth="yes"/>
      <point x="29" y="-189"/>
      <point x="57" y="-131"/>
      <point x="67" y="-72" type="curve" smooth="yes"/>
      <point x="161" y="460" type="line"/>
      <point x="192" y="460" type="line"/>
      <point x="98" y="-76" type="line" smooth="yes"/>
      <point x="84" y="-157"/>
      <point x="41" y="-220"/>
      <point x="-43" y="-220" type="curve" smooth="yes"/>
      <point x="-86" y="-220"/>
      <point x="-110" y="-194"/>
      <point x="-121" y="-174" type="curve"/>
    </contour>
  </outline>
</glyph>
<glyph name="k" format="1">
  <advance width="392"/>
  <unicode hex="006B"/>
  <outline>
    <contour>
      <point x="215" y="780" type="line"/>
      <point x="246" y="780" type="line"/>
      <point x="108" y="0" type="line"/>
      <point x="77" y="0" type="line"/>
    </contour>
    <contour>
      <point x="407" y="460" type="line"/>
      <point x="448" y="460" type="line"/>
      <point x="186" y="270" type="line"/>
      <point x="386" y="0" type="line"/>
      <point x="346" y="0" type="line"/>
      <point x="146" y="270" type="line"/>
    </contour>
  </outline>
</glyph>
<glyph name="l" format="1">
  <advance width="195"/>
  <unicode hex="006C"/>
  <outline>
    <contour>
      <point x="220" y="780" type="line"/>
      <point x="251" y="780" type="line"/>
      <point x="113" y="0" type="line"/>
      <point x="82" y="0" type="line"/>
    </contour>
  </outline>
</glyph>
<glyph name="m" format="1">
  <advance width="717"/>
  <unicode hex="006D"/>
  <outline>
    <contour>
      <point x="397" y="308" type="line" smooth="yes"/>
      <point x="411" y="388"/>
      <point x="390" y="440"/>
      <point x="322" y="440" type="curve" smooth="yes"/>
      <point x="252" y="440"/>
      <point x="177" y="367"/>
      <point x="162" y="280" type="curve"/>
      <point x="146" y="280" type="line"/>
      <point x="165" y="389"/>
      <point x="252" y="470"/>
      <point x="333" y="470" type="curve" smooth="yes"/>
      <point x="414" y="470"/>
      <point x="446" y="409"/>
      <point x="429" y="311" type="curve" smooth="yes"/>
      <point x="374" y="0" type="line"/>
      <point x="343" y="0" type="line"/>
    </contour>
    <contour>
      <point x="194" y="460" type="line"/>
      <point x="113" y="0" type="line"/>
      <point x="82" y="0" type="line"/>
      <point x="163" y="460" type="line"/>
    </contour>
    <contour>
      <point x="690" y="311" type="curve" smooth="yes"/>
      <point x="635" y="0" type="line"/>
      <point x="604" y="0" type="line"/>
      <point x="658" y="308" type="line" smooth="yes"/>
      <point x="672" y="388"/>
      <point x="652" y="440"/>
      <point x="584" y="440" type="curve" smooth="yes"/>
      <point x="514" y="440"/>
      <point x="438" y="366"/>
      <point x="423" y="280" type="curve"/>
      <point x="401" y="280" type="line"/>
      <point x="420" y="389"/>
      <point x="514" y="470"/>
      <point x="595" y="470" type="curve" smooth="yes"/>
      <point x="676" y="470"/>
      <point x="707" y="409"/>
    </contour>
  </outline>
</glyph>
<glyph name="p" format="1">
  <advance width="549"/>
  <unicode hex="0070"/>
  <outline>
    <contour>
      <point x="69" y="-220" type="line"/>
      <point x="38" y="-220" type="line"/>
      <point x="158" y="460" type="line"/>
      <point x="189" y="460" type="line"/>
    </contour>
    <contour>
      <point x="549" y="230" type="curve" smooth="yes"/>
      <point x="523" y="82"/>
      <point x="410" y="-10"/>
      <point x="288" y="-10" type="curve" smooth="yes"/>
      <point x="168" y="-10"/>
      <point x="111" y="92"/>
      <point x="135" y="230" type="curve" smooth="yes"/>
      <point x="159" y="368"/>
      <point x="253" y="470"/>
      <point x="373" y="470" type="curve" smooth="yes"/>
      <point x="495" y="470"/>
      <point x="575" y="378"/>
    </contour>
    <contour>
      <point x="517" y="230" type="curve" smooth="yes"/>
      <point x="540" y="360"/>
      <point x="469" y="440"/>
      <point x="363" y="440" type="curve" smooth="yes"/>
      <point x="265" y="440"/>
      <point x="169" y="343"/>
      <point x="149" y="230" type="curve" smooth="yes"/>
      <point x="129" y="117"/>
      <point x="191" y="20"/>
      <point x="289" y="20" type="curve" smooth="yes"/>
      <point x="395" y="20"/>
      <point x="494" y="100"/>
    </contour>
  </outline>
</glyph>
<glyph name="q" format="1">
  <advance width="549"/>
  <unicode hex="0071"/>
  <outline>
    <contour>
      <point x="403" y="-220" type="line"/>
      <point x="523" y="460" type="line"/>
      <point x="553" y="460" type="line"/>
      <point x="433" y="-220" type="line"/>
    </contour>
    <contour>
      <point x="83" y="230" type="curve" smooth="yes"/>
      <point x="109" y="378"/>
      <point x="221" y="470"/>
      <point x="343" y="470" type="curve" smooth="yes"/>
      <point x="463" y="470"/>
      <point x="521" y="368"/>
      <point x="497" y="230" type="curve" smooth="yes"/>
      <point x="473" y="92"/>
      <point x="378" y="-10"/>
      <point x="258" y="-10" type="curve" smooth="yes"/>
      <point x="136" y="-10"/>
      <point x="57" y="82"/>
    </contour>
    <contour>
      <point x="115" y="230" type="curve" smooth="yes"/>
      <point x="92" y="100"/>
      <point x="162" y="20"/>
      <point x="268" y="20" type="curve" smooth="yes"/>
      <point x="366" y="20"/>
      <point x="463" y="117"/>
      <point x="483" y="230" type="curve" smooth="yes"/>
      <point x="503" y="343"/>
      <point x="440" y="440"/>
      <point x="342" y="440" type="curve" smooth="yes"/>
      <point x="236" y="440"/>
      <point x="138" y="360"/>
    </contour>
  </outline>
</glyph>
<glyph name="s" format="1">
  <advance width="403"/>
  <unicode hex="0073"/>
  <outline>
    <contour>
      <point x="91" y="151" type="line"/>
      <point x="93" y="85"/>
      <point x="121" y="20"/>
      <point x="206" y="20" type="curve" smooth="yes"/>
      <point x="272" y="20"/>
      <point x="322" y="59"/>
      <point x="333" y="119" type="curve" smooth="yes"/>
      <point x="344" y="180"/>
      <point x="294" y="206"/>
      <point x="234" y="226" type="curve" smooth="yes"/>
      <point x="168" y="248"/>
      <point x="111" y="274"/>
      <point x="126" y="358" type="curve" smooth="yes"/>
      <point x="138" y="428"/>
      <point x="205" y="468"/>
      <point x="277" y="468" type="curve" smooth="yes"/>
      <point x="360" y="468"/>
      <point x="393" y="411"/>
      <point x="402" y="360" type="curve"/>
      <point x="374" y="351" type="line"/>
      <point x="364" y="394"/>
      <point x="337" y="439"/>
      <point x="271" y="439" type="curve" smooth="yes"/>
      <point x="213" y="439"/>
      <point x="167" y="411"/>
      <point x="157" y="357" type="curve" smooth="yes"/>
      <point x="145" y="291"/>
      <point x="200" y="268"/>
      <point x="260" y="248" type="curve" smooth="yes"/>
      <point x="322" y="226"/>
      <point x="377" y="191"/>
      <point x="365" y="121" type="curve" smooth="yes"/>
      <point x="351" y="39"/>
      <point x="283" y="-10"/>
      <point x="198" y="-10" type="curve" smooth="yes"/>
      <point x="99" y="-10"/>
      <point x="61" y="64"/>
      <point x="61" y="142" type="curve"/>
    </contour>
  </outline>
</glyph>
<glyph name="t" format="1">
  <advance width="205"/>
  <unicode hex="0074"/>
  <outline>
    <contour>
      <point x="93" y="460" type="line"/>
      <point x="274" y="460" type="line"/>
      <point x="269" y="430" type="line"/>
      <point x="88" y="430" type="line"/>
    </contour>
    <contour>
      <point x="196" y="620" type="line"/>
      <point x="227" y="620" type="line"/>
      <point x="118" y="0" type="line"/>
      <point x="87" y="0" type="line"/>
    </contour>
  </outline>
</glyph>
<glyph name="v" format="1">
  <advance width="426"/>
  <unicode hex="0076"/>
  <outline>
    <contour>
      <point x="88" y="460" type="line"/>
      <point x="123" y="460" type="line"/>
      <point x="221" y="48" type="line"/>
      <point x="465" y="460" type="line"/>
      <point x="500" y="460" type="line"/>
      <point x="209" y="-21" type="line"/>
    </contour>
  </outline>
</glyph>
<glyph name="w" format="1">
  <advance width="638"/>
  <unicode hex="0077"/>
  <outline>
    <contour>
      <point x="673" y="460" type="line"/>
      <point x="707" y="460" type="line"/>
      <point x="459" y="-21" type="line"/>
      <point x="461" y="41" type="line"/>
    </contour>
    <contour>
      <point x="379" y="421" type="line"/>
      <point x="399" y="481" type="line"/>
      <point x="476" y="41" type="line"/>
      <point x="459" y="-21" type="line"/>
    </contour>
    <contour>
      <point x="399" y="481" type="line"/>
      <point x="397" y="421" type="line"/>
      <point x="171" y="-21" type="line"/>
      <point x="176" y="41" type="line"/>
    </contour>
    <contour>
      <point x="93" y="460" type="line"/>
      <point x="127" y="460" type="line"/>
      <point x="191" y="41" type="line"/>
      <point x="171" y="-21" type="line"/>
    </contour>
  </outline>
</glyph>
<glyph name="x" format="1">
  <advance width="392"/>
  <unicode hex="0078"/>
  <outline>
    <contour>
      <point x="419" y="460" type="line"/>
      <point x="455" y="460" type="line"/>
      <point x="256" y="237" type="line"/>
      <point x="385" y="0" type="line"/>
      <point x="348" y="0" type="line"/>
      <point x="233" y="212" type="line"/>
      <point x="44" y="0" type="line"/>
      <point x="7" y="0" type="line"/>
      <point x="220" y="237" type="line"/>
      <point x="98" y="460" type="line"/>
      <point x="135" y="460" type="line"/>
      <point x="242" y="262" type="line"/>
    </contour>
  </outline>
</glyph>
<glyph name="y" format="1">
  <advance width="429"/>
  <unicode hex="0079"/>
  <outline>
    <contour>
      <point x="503" y="460" type="line"/>
      <point x="83" y="-220" type="line"/>
      <point x="49" y="-220" type="line"/>
      <point x="206" y="34" type="line"/>
      <point x="88" y="460" type="line"/>
      <point x="125" y="460" type="line"/>
      <point x="235" y="44" type="line"/>
      <point x="218" y="45" type="line"/>
      <point x="469" y="460" type="line"/>
    </contour>
  </outline>
</glyph>
<glyph name="braceleft" format="1">
  <advance width="290"/>
  <unicode hex="007B"/>
  <outline>
    <contour>
      <point x="271" y="646" type="curve" smooth="yes"/>
      <point x="236" y="448" type="line" smooth="yes"/>
      <point x="220" y="359"/>
      <point x="179" y="286"/>
      <point x="126" y="286" type="curve"/>
      <point x="128" y="294" type="line"/>
      <point x="181" y="294"/>
      <point x="196" y="221"/>
      <point x="180" y="132" type="curve" smooth="yes"/>
      <point x="145" y="-66" type="line" smooth="yes"/>
      <point x="132" y="-141"/>
      <point x="146" y="-172"/>
      <point x="200" y="-172" type="curve" smooth="yes"/>
      <point x="224" y="-172" type="line"/>
      <point x="219" y="-200" type="line"/>
      <point x="187" y="-200" type="line" smooth="yes"/>
      <point x="122" y="-200"/>
      <point x="98" y="-159"/>
      <point x="115" y="-60" type="curve" smooth="yes"/>
      <point x="152" y="150" type="line" smooth="yes"/>
      <point x="165" y="226"/>
      <point x="148" y="268"/>
      <point x="120" y="278" type="curve"/>
      <point x="124" y="302" type="line"/>
      <point x="156" y="312"/>
      <point x="189" y="354"/>
      <point x="202" y="430" type="curve" smooth="yes"/>
      <point x="239" y="640" type="line" smooth="yes"/>
      <point x="256" y="739"/>
      <point x="295" y="780"/>
      <point x="360" y="780" type="curve" smooth="yes"/>
      <point x="392" y="780" type="line"/>
      <point x="387" y="752" type="line"/>
      <point x="363" y="752" type="line" smooth="yes"/>
      <point x="309" y="752"/>
      <point x="284" y="721"/>
    </contour>
  </outline>
</glyph>
<glyph name="bar" format="1">
  <advance width="229"/>
  <unicode hex="007C"/>
  <outline>
    <contour>
      <point x="238" y="785" type="line"/>
      <point x="267" y="785" type="line"/>
      <point x="91" y="-215" type="line"/>
      <point x="62" y="-215" type="line"/>
    </contour>
  </outline>
</glyph>
<glyph name="braceright" format="1">
  <advance width="290"/>
  <unicode hex="007D"/>
  <outline>
    <contour>
      <point x="124" y="-66" type="curve" smooth="yes"/>
      <point x="159" y="132" type="line" smooth="yes"/>
      <point x="175" y="221"/>
      <point x="216" y="294"/>
      <point x="269" y="294" type="curve"/>
      <point x="267" y="286" type="line"/>
      <point x="214" y="286"/>
      <point x="199" y="359"/>
      <point x="215" y="448" type="curve" smooth="yes"/>
      <point x="250" y="646" type="line" smooth="yes"/>
      <point x="263" y="721"/>
      <point x="250" y="752"/>
      <point x="196" y="752" type="curve" smooth="yes"/>
      <point x="171" y="752" type="line"/>
      <point x="176" y="780" type="line"/>
      <point x="208" y="780" type="line" smooth="yes"/>
      <point x="273" y="780"/>
      <point x="296" y="739"/>
      <point x="279" y="640" type="curve" smooth="yes"/>
      <point x="242" y="430" type="line" smooth="yes"/>
      <point x="229" y="354"/>
      <point x="247" y="312"/>
      <point x="275" y="302" type="curve"/>
      <point x="271" y="278" type="line"/>
      <point x="239" y="268"/>
      <point x="205" y="226"/>
      <point x="192" y="150" type="curve" smooth="yes"/>
      <point x="155" y="-60" type="line" smooth="yes"/>
      <point x="138" y="-159"/>
      <point x="100" y="-200"/>
      <point x="35" y="-200" type="curve" smooth="yes"/>
      <point x="3" y="-200" type="line"/>
      <point x="8" y="-172" type="line"/>
      <point x="33" y="-172" type="line" smooth="yes"/>
      <point x="87" y="-172"/>
      <point x="111" y="-141"/>
    </contour>
  </outline>
</glyph>
<glyph name="asciitilde" format="1">
  <advance width="575"/>
  <unicode hex="007E"/>
  <outline>
    <contour>
      <point x="135" y="178" type="curve"/>
      <point x="107" y="181" type="line"/>
      <point x="106" y="188"/>
      <point x="106" y="196"/>
      <point x="108" y="205" type="curve" smooth="yes"/>
      <point x="113" y="235"/>
      <point x="126" y="264"/>
      <point x="148" y="286" type="curve" smooth="yes"/>
      <point x="174" y="312"/>
      <point x="207" y="327"/>
      <point x="245" y="327" type="curve" smooth="yes"/>
      <point x="298" y="327"/>
      <point x="325" y="290"/>
      <point x="351" y="258" type="curve" smooth="yes"/>
      <point x="372" y="231"/>
      <point x="397" y="202"/>
      <point x="436" y="202" type="curve" smooth="yes"/>
      <point x="486" y="202"/>
      <point x="516" y="239"/>
      <point x="525" y="292" type="curve" smooth="yes"/>
      <point x="526" y="300"/>
      <point x="527" y="312"/>
      <point x="525" y="322" type="curve"/>
      <point x="555" y="318" type="line"/>
      <point x="556" y="310"/>
      <point x="556" y="300"/>
      <point x="554" y="290" type="curve" smooth="yes"/>
      <point x="549" y="262"/>
      <point x="538" y="232"/>
      <point x="518" y="210" type="curve" smooth="yes"/>
      <point x="494" y="184"/>
      <point x="465" y="172"/>
      <point x="431" y="172" type="curve" smooth="yes"/>
      <point x="383" y="172"/>
      <point x="358" y="204"/>
      <point x="332" y="236" type="curve" smooth="yes"/>
      <point x="311" y="262"/>
      <point x="285" y="298"/>
      <point x="239" y="298" type="curve" smooth="yes"/>
      <point x="184" y="298"/>
      <point x="145" y="258"/>
      <point x="135" y="200" type="curve" smooth="yes"/>
      <point x="134" y="193"/>
      <point x="133" y="186"/>
    </contour>
  </outline>
</glyph>
<glyph name="exclamdown" format="1">
  <advance width="300"/>
  <unicode hex="00A1"/>
  <outline>
    <contour>
      <point x="140" y="-245" type="line"/>
      <point x="101" y="-245" type="line"/>
      <point x="197" y="255" type="line"/>
      <point x="219" y="255" type="line"/>
    </contour>
    <contour>
      <point x="266" y="442" type="curve" smooth="yes"/>
      <point x="264" y="428"/>
      <point x="251" y="418"/>
      <point x="238" y="418" type="curve" smooth="yes"/>
      <point x="225" y="418"/>
      <point x="215" y="428"/>
      <point x="217" y="442" type="curve" smooth="yes"/>
      <point x="219" y="456"/>
      <point x="233" y="466"/>
      <point x="246" y="466" type="curve" smooth="yes"/>
      <point x="259" y="466"/>
      <point x="268" y="456"/>
    </contour>
  </outline>
</glyph>
<glyph name="cent" format="1">
  <advance width="580"/>
  <unicode hex="00A2"/>
  <outline>
    <contour>
      <point x="306" y="8" type="line"/>
      <point x="328" y="8" type="line"/>
      <point x="310" y="-112" type="line"/>
      <point x="282" y="-112" type="line"/>
    </contour>
    <contour>
      <point x="157" y="230" type="curve" smooth="yes"/>
      <point x="136" y="110"/>
      <point x="207" y="20"/>
      <point x="323" y="20" type="curve" smooth="yes"/>
      <point x="397" y="20"/>
      <point x="466" y="57"/>
      <point x="492" y="88" type="curve"/>
      <point x="484" y="48" type="line"/>
      <point x="454" y="19"/>
      <point x="387" y="-10"/>
      <point x="317" y="-10" type="curve" smooth="yes"/>
      <point x="184" y="-10"/>
      <point x="100" y="91"/>
      <point x="125" y="230" type="curve" smooth="yes"/>
      <point x="150" y="369"/>
      <point x="269" y="470"/>
      <point x="402" y="470" type="curve" smooth="yes"/>
      <point x="472" y="470"/>
      <point x="530" y="440"/>
      <point x="549" y="412" type="curve"/>
      <point x="542" y="372" type="line"/>
      <point x="526" y="403"/>
      <point x="471" y="440"/>
      <point x="397" y="440" type="curve" smooth="yes"/>
      <point x="281" y="440"/>
      <point x="178" y="350"/>
    </contour>
    <contour>
      <point x="404" y="578" type="line"/>
      <point x="432" y="578" type="line"/>
      <point x="407" y="452" type="line"/>
      <point x="385" y="452" type="line"/>
    </contour>
  </outline>
</glyph>
<glyph name="sterling" format="1">
  <advance width="580"/>
  <unicode hex="00A3"/>
  <outline>
    <contour>
      <point x="138" y="324" type="line"/>
      <point x="463" y="324" type="line"/>
      <point x="458" y="295" type="line"/>
      <point x="133" y="295" type="line"/>
    </contour>
    <contour>
      <point x="559" y="492" type="line"/>
      <point x="569" y="569"/>
      <point x="544" y="678"/>
      <point x="434" y="678" type="curve" smooth="yes"/>
      <point x="344" y="678"/>
      <point x="271" y="612"/>
      <point x="257" y="532" type="curve" smooth="yes"/>
      <point x="236" y="411"/>
      <point x="343" y="372"/>
      <point x="324" y="264" type="curve" smooth="yes"/>
      <point x="305" y="158"/>
      <point x="170" y="54"/>
      <point x="124" y="15" type="curve"/>
      <point x="124" y="31" type="line"/>
      <point x="508" y="31" type="line"/>
      <point x="503" y="0" type="line"/>
      <point x="85" y="0" type="line"/>
      <point x="187" y="102"/>
      <point x="276" y="172"/>
      <point x="292" y="260" type="curve" smooth="yes"/>
      <point x="310" y="360"/>
      <point x="201" y="403"/>
      <point x="224" y="532" type="curve" smooth="yes"/>
      <point x="241" y="630"/>
      <point x="327" y="710"/>
      <point x="439" y="710" type="curve" smooth="yes"/>
      <point x="572" y="710"/>
      <point x="597" y="581"/>
      <point x="588" y="501" type="curve"/>
    </contour>
  </outline>
</glyph>
<glyph name="currency" format="1">
  <advance width="566"/>
  <unicode hex="00A4"/>
  <outline>
    <contour>
      <point x="142" y="517" type="line"/>
      <point x="168" y="539" type="line"/>
      <point x="227" y="466" type="line"/>
      <point x="202" y="445" type="line"/>
    </contour>
    <contour>
      <point x="84" y="61" type="line"/>
      <point x="66" y="83" type="line"/>
      <point x="151" y="155" type="line"/>
      <point x="169" y="134" type="line"/>
    </contour>
    <contour>
      <point x="527" y="445" type="line"/>
      <point x="509" y="466" type="line"/>
      <point x="595" y="539" type="line"/>
      <point x="612" y="517" type="line"/>
    </contour>
    <contour>
      <point x="451" y="134" type="line"/>
      <point x="476" y="155" type="line"/>
      <point x="536" y="83" type="line"/>
      <point x="511" y="61" type="line"/>
    </contour>
    <contour>
      <point x="105" y="300" type="curve" smooth="yes"/>
      <point x="130" y="439"/>
      <point x="250" y="540"/>
      <point x="378" y="540" type="curve" smooth="yes"/>
      <point x="506" y="540"/>
      <point x="592" y="439"/>
      <point x="567" y="300" type="curve" smooth="yes"/>
      <point x="542" y="161"/>
      <point x="422" y="60"/>
      <point x="294" y="60" type="curve" smooth="yes"/>
      <point x="166" y="60"/>
      <point x="80" y="161"/>
    </contour>
    <contour>
      <point x="137" y="300" type="curve" smooth="yes"/>
      <point x="116" y="180"/>
      <point x="188" y="90"/>
      <point x="299" y="90" type="curve" smooth="yes"/>
      <point x="410" y="90"/>
      <point x="514" y="180"/>
      <point x="535" y="300" type="curve" smooth="yes"/>
      <point x="556" y="420"/>
      <point x="484" y="510"/>
      <point x="373" y="510" type="curve" smooth="yes"/>
      <point x="262" y="510"/>
      <point x="158" y="420"/>
    </contour>
  </outline>
</glyph>
<glyph name="yen" format="1">
  <advance width="569"/>
  <unicode hex="00A5"/>
  <outline>
    <contour>
      <point x="308" y="300" type="line"/>
      <point x="341" y="300" type="line"/>
      <point x="288" y="0" type="line"/>
      <point x="255" y="0" type="line"/>
    </contour>
    <contour>
      <point x="611" y="700" type="line"/>
      <point x="647" y="700" type="line"/>
      <point x="316" y="248" type="line"/>
      <point x="149" y="700" type="line"/>
      <point x="186" y="700" type="line"/>
      <point x="327" y="310" type="line"/>
    </contour>
    <contour>
      <point x="59" y="144" type="line"/>
      <point x="65" y="173" type="line"/>
      <point x="545" y="173" type="line"/>
      <point x="539" y="144" type="line"/>
    </contour>
    <contour>
      <point x="83" y="276" type="line"/>
      <point x="88" y="306" type="line"/>
      <point x="568" y="306" type="line"/>
      <point x="563" y="276" type="line"/>
    </contour>
  </outline>
</glyph>
<glyph name="brokenbar" format="1">
  <advance width="229"/>
  <unicode hex="00A6"/>
  <outline>
    <contour>
      <point x="223" y="695" type="line"/>
      <point x="252" y="695" type="line"/>
      <point x="209" y="455" type="line"/>
      <point x="180" y="455" type="line"/>
    </contour>
    <contour>
      <point x="172" y="245" type="line"/>
      <point x="130" y="5" type="line"/>
      <point x="101" y="5" type="line"/>
      <point x="143" y="245" type="line"/>
    </contour>
  </outline>
</glyph>
<glyph name="section" format="1">
  <advance width="401"/>
  <unicode hex="00A7"/>
  <outline>
    <contour>
      <point x="450" y="605" type="line"/>
      <point x="438" y="651"/>
      <point x="381" y="680"/>
      <point x="325" y="680" type="curve" smooth="yes"/>
      <point x="271" y="680"/>
      <point x="205" y="655"/>
      <point x="195" y="596" type="curve" smooth="yes"/>
      <point x="185" y="537"/>
      <point x="271" y="511"/>
      <point x="318" y="490" type="curve" smooth="yes"/>
      <point x="378" y="463"/>
      <point x="447" y="430"/>
      <point x="435" y="363" type="curve" smooth="yes"/>
      <point x="420" y="278"/>
      <point x="347" y="240"/>
      <point x="248" y="240" type="curve"/>
      <point x="250" y="250" type="line"/>
      <point x="330" y="260"/>
      <point x="392" y="300"/>
      <point x="403" y="361" type="curve" smooth="yes"/>
      <point x="413" y="418"/>
      <point x="340" y="448"/>
      <point x="291" y="469" type="curve" smooth="yes"/>
      <point x="232" y="494"/>
      <point x="150" y="519"/>
      <point x="164" y="596" type="curve" smooth="yes"/>
      <point x="177" y="672"/>
      <point x="255" y="710"/>
      <point x="329" y="710" type="curve" smooth="yes"/>
      <point x="402" y="710"/>
      <point x="467" y="671"/>
      <point x="476" y="620" type="curve"/>
    </contour>
    <contour>
      <point x="80" y="137" type="line"/>
      <point x="81" y="74"/>
      <point x="141" y="20"/>
      <point x="219" y="20" type="curve" smooth="yes"/>
      <point x="276" y="20"/>
      <point x="346" y="39"/>
      <point x="358" y="107" type="curve" smooth="yes"/>
      <point x="371" y="178"/>
      <point x="300" y="203"/>
      <point x="244" y="228" type="curve" smooth="yes"/>
      <point x="187" y="254"/>
      <point x="110" y="289"/>
      <point x="122" y="359" type="curve" smooth="yes"/>
      <point x="133" y="421"/>
      <point x="195" y="480"/>
      <point x="309" y="480" type="curve"/>
      <point x="307" y="472" type="line"/>
      <point x="217" y="459"/>
      <point x="162" y="410"/>
      <point x="154" y="362" type="curve" smooth="yes"/>
      <point x="143" y="298"/>
      <point x="223" y="269"/>
      <point x="270" y="248" type="curve" smooth="yes"/>
      <point x="330" y="221"/>
      <point x="404" y="190"/>
      <point x="390" y="109" type="curve" smooth="yes"/>
      <point x="375" y="24"/>
      <point x="297" y="-10"/>
      <point x="212" y="-10" type="curve" smooth="yes"/>
      <point x="127" y="-10"/>
      <point x="53" y="48"/>
      <point x="52" y="123" type="curve"/>
    </contour>
  </outline>
</glyph>
<glyph name="dieresis" format="1">
  <advance width="436"/>
  <unicode hex="00A8"/>
  <outline>
    <contour>
      <point x="414" y="680" type="curve" smooth="yes"/>
      <point x="416" y="694"/>
      <point x="429" y="704"/>
      <point x="442" y="704" type="curve" smooth="yes"/>
      <point x="455" y="704"/>
      <point x="464" y="694"/>
      <point x="462" y="680" type="curve" smooth="yes"/>
      <point x="460" y="666"/>
      <point x="447" y="656"/>
      <point x="434" y="656" type="curve" smooth="yes"/>
      <point x="421" y="656"/>
      <point x="412" y="666"/>
    </contour>
    <contour>
      <point x="214" y="680" type="curve" smooth="yes"/>
      <point x="216" y="694"/>
      <point x="229" y="704"/>
      <point x="242" y="704" type="curve" smooth="yes"/>
      <point x="255" y="704"/>
      <point x="264" y="694"/>
      <point x="262" y="680" type="curve" smooth="yes"/>
      <point x="260" y="666"/>
      <point x="247" y="656"/>
      <point x="234" y="656" type="curve" smooth="yes"/>
      <point x="221" y="656"/>
      <point x="212" y="666"/>
    </contour>
  </outline>
</glyph>
<glyph name="copyright" format="1">
  <advance width="800"/>
  <unicode hex="00A9"/>
  <outline>
    <contour>
      <point x="272" y="350" type="curve" smooth="yes"/>
      <point x="252" y="236"/>
      <point x="313" y="155"/>
      <point x="418" y="155" type="curve" smooth="yes"/>
      <point x="477" y="155"/>
      <point x="524" y="174"/>
      <point x="563" y="209" type="curve"/>
      <point x="558" y="182" type="line"/>
      <point x="518" y="151"/>
      <point x="476" y="134"/>
      <point x="415" y="134" type="curve" smooth="yes"/>
      <point x="299" y="134"/>
      <point x="229" y="225"/>
      <point x="251" y="350" type="curve" smooth="yes"/>
      <point x="273" y="475"/>
      <point x="375" y="566"/>
      <point x="491" y="566" type="curve" smooth="yes"/>
      <point x="552" y="566"/>
      <point x="587" y="549"/>
      <point x="617" y="518" type="curve"/>
      <point x="613" y="492" type="line"/>
      <point x="587" y="527"/>
      <point x="544" y="545"/>
      <point x="487" y="545" type="curve" smooth="yes"/>
      <point x="382" y="545"/>
      <point x="292" y="465"/>
    </contour>
    <contour>
      <point x="126" y="350" type="curve" smooth="yes"/>
      <point x="91" y="154"/>
      <point x="215" y="12"/>
      <point x="402" y="12" type="curve" smooth="yes"/>
      <point x="589" y="12"/>
      <point x="763" y="154"/>
      <point x="798" y="350" type="curve" smooth="yes"/>
      <point x="833" y="546"/>
      <point x="708" y="688"/>
      <point x="521" y="688" type="curve" smooth="yes"/>
      <point x="334" y="688"/>
      <point x="161" y="546"/>
    </contour>
    <contour>
      <point x="102" y="350" type="curve" smooth="yes"/>
      <point x="139" y="559"/>
      <point x="321" y="710"/>
      <point x="525" y="710" type="curve" smooth="yes"/>
      <point x="729" y="710"/>
      <point x="859" y="559"/>
      <point x="822" y="350" type="curve" smooth="yes"/>
      <point x="785" y="141"/>
      <point x="602" y="-10"/>
      <point x="398" y="-10" type="curve" smooth="yes"/>
      <point x="194" y="-10"/>
      <point x="65" y="141"/>
    </contour>
  </outline>
</glyph>
<glyph name="ordfeminine" format="1">
  <advance width="238"/>
  <unicode hex="00AA"/>
  <outline>
    <contour>
      <point x="133" y="529" type="curve" smooth="yes"/>
      <point x="126" y="488"/>
      <point x="151" y="470"/>
      <point x="187" y="470" type="curve" smooth="yes"/>
      <point x="229" y="470"/>
      <point x="270" y="500"/>
      <point x="278" y="543" type="curve"/>
      <point x="281" y="536" type="line"/>
      <point x="273" y="492"/>
      <point x="232" y="455"/>
      <point x="182" y="455" type="curve" smooth="yes"/>
      <point x="143" y="455"/>
      <point x="108" y="478"/>
      <point x="117" y="529" type="curve" smooth="yes"/>
      <point x="125" y="577"/>
      <point x="176" y="604"/>
      <point x="223" y="604" type="curve" smooth="yes"/>
      <point x="263" y="604"/>
      <point x="281" y="588"/>
      <point x="289" y="580" type="curve"/>
      <point x="287" y="568" type="line"/>
      <point x="274" y="580"/>
      <point x="253" y="592"/>
      <point x="221" y="592" type="curve" smooth="yes"/>
      <point x="181" y="592"/>
      <point x="140" y="569"/>
    </contour>
    <contour>
      <point x="168" y="657" type="curve"/>
      <point x="162" y="670" type="line"/>
      <point x="181" y="685"/>
      <point x="210" y="702"/>
      <point x="248" y="702" type="curve" smooth="yes"/>
      <point x="295" y="702"/>
      <point x="316" y="672"/>
      <point x="308" y="628" type="curve" smooth="yes"/>
      <point x="278" y="460" type="line"/>
      <point x="263" y="460" type="line"/>
      <point x="293" y="628" type="line" smooth="yes"/>
      <point x="300" y="665"/>
      <point x="282" y="688"/>
      <point x="245" y="688" type="curve" smooth="yes"/>
      <point x="212" y="688"/>
      <point x="187" y="672"/>
    </contour>
  </outline>
</glyph>
<glyph name="guillemotleft" format="1">
  <advance width="492"/>
  <unicode hex="00AB"/>
  <outline>
    <contour>
      <point x="112" y="249" type="line"/>
      <point x="85" y="255" type="line"/>
      <point x="328" y="490" type="line"/>
      <point x="345" y="472" type="line"/>
    </contour>
    <contour>
      <point x="85" y="255" type="line"/>
      <point x="115" y="264" type="line"/>
      <point x="269" y="38" type="line"/>
      <point x="246" y="20" type="line"/>
    </contour>
    <contour>
      <point x="272" y="249" type="line"/>
      <point x="245" y="255" type="line"/>
      <point x="488" y="490" type="line"/>
      <point x="505" y="472" type="line"/>
    </contour>
    <contour>
      <point x="245" y="255" type="line"/>
      <point x="275" y="264" type="line"/>
      <point x="429" y="38" type="line"/>
      <point x="406" y="20" type="line"/>
    </contour>
  </outline>
</glyph>
<glyph name="logicalnot" format="1">
  <advance width="620"/>
  <unicode hex="00AC"/>
  <outline>
    <contour>
      <point x="126" y="346" type="line"/>
      <point x="131" y="375" type="line"/>
      <point x="621" y="375" type="line"/>
      <point x="616" y="346" type="line"/>
    </contour>
    <contour>
      <point x="592" y="375" type="line"/>
      <point x="621" y="375" type="line"/>
      <point x="586" y="175" type="line"/>
      <point x="557" y="175" type="line"/>
    </contour>
  </outline>
</glyph>
<glyph name="registered" format="1">
  <advance width="800"/>
  <unicode hex="00AE"/>
  <outline>
    <contour>
      <point x="421" y="345" type="line"/>
      <point x="444" y="345" type="line"/>
      <point x="547" y="150" type="line"/>
      <point x="522" y="150" type="line"/>
    </contour>
    <contour>
      <point x="393" y="570" type="line"/>
      <point x="413" y="570" type="line"/>
      <point x="338" y="150" type="line"/>
      <point x="318" y="150" type="line"/>
    </contour>
    <contour>
      <point x="399" y="552" type="line"/>
      <point x="403" y="570" type="line"/>
      <point x="475" y="570" type="line" smooth="yes"/>
      <point x="556" y="570"/>
      <point x="611" y="528"/>
      <point x="597" y="451" type="curve" smooth="yes"/>
      <point x="583" y="374"/>
      <point x="514" y="332"/>
      <point x="433" y="332" type="curve" smooth="yes"/>
      <point x="361" y="332" type="line"/>
      <point x="364" y="350" type="line"/>
      <point x="436" y="350" type="line" smooth="yes"/>
      <point x="508" y="350"/>
      <point x="565" y="383"/>
      <point x="577" y="451" type="curve" smooth="yes"/>
      <point x="589" y="519"/>
      <point x="543" y="552"/>
      <point x="471" y="552" type="curve" smooth="yes"/>
    </contour>
    <contour>
      <point x="126" y="350" type="curve" smooth="yes"/>
      <point x="91" y="154"/>
      <point x="215" y="12"/>
      <point x="402" y="12" type="curve" smooth="yes"/>
      <point x="589" y="12"/>
      <point x="763" y="154"/>
      <point x="798" y="350" type="curve" smooth="yes"/>
      <point x="833" y="546"/>
      <point x="708" y="688"/>
      <point x="521" y="688" type="curve" smooth="yes"/>
      <point x="334" y="688"/>
      <point x="161" y="546"/>
    </contour>
    <contour>
      <point x="102" y="350" type="curve" smooth="yes"/>
      <point x="139" y="559"/>
      <point x="321" y="710"/>
      <point x="525" y="710" type="curve" smooth="yes"/>
      <point x="729" y="710"/>
      <point x="859" y="559"/>
      <point x="822" y="350" type="curve" smooth="yes"/>
      <point x="785" y="141"/>
      <point x="602" y="-10"/>
      <point x="398" y="-10" type="curve" smooth="yes"/>
      <point x="194" y="-10"/>
      <point x="65" y="141"/>
    </contour>
  </outline>
</glyph>
<glyph name="degree" format="1">
  <advance width="278"/>
  <unicode hex="00B0"/>
  <outline>
    <contour>
      <point x="126" y="600" type="curve" smooth="yes"/>
      <point x="138" y="670"/>
      <point x="198" y="720"/>
      <point x="266" y="720" type="curve" smooth="yes"/>
      <point x="334" y="720"/>
      <point x="376" y="670"/>
      <point x="364" y="600" type="curve" smooth="yes"/>
      <point x="352" y="530"/>
      <point x="292" y="480"/>
      <point x="224" y="480" type="curve" smooth="yes"/>
      <point x="156" y="480"/>
      <point x="114" y="530"/>
    </contour>
    <contour>
      <point x="145" y="600" type="curve" smooth="yes"/>
      <point x="134" y="540"/>
      <point x="171" y="498"/>
      <point x="227" y="498" type="curve" smooth="yes"/>
      <point x="283" y="498"/>
      <point x="334" y="540"/>
      <point x="345" y="600" type="curve" smooth="yes"/>
      <point x="356" y="660"/>
      <point x="319" y="702"/>
      <point x="263" y="702" type="curve" smooth="yes"/>
      <point x="207" y="702"/>
      <point x="156" y="660"/>
    </contour>
  </outline>
</glyph>
<glyph name="plusminus" format="1">
  <advance width="611"/>
  <unicode hex="00B1"/>
  <outline>
    <contour>
      <point x="65" y="0" type="line"/>
      <point x="70" y="31" type="line"/>
      <point x="551" y="31" type="line"/>
      <point x="546" y="0" type="line"/>
    </contour>
    <contour>
      <point x="130" y="370" type="line"/>
      <point x="136" y="400" type="line"/>
      <point x="617" y="400" type="line"/>
      <point x="611" y="370" type="line"/>
    </contour>
    <contour>
      <point x="399" y="620" type="line"/>
      <point x="431" y="620" type="line"/>
      <point x="348" y="150" type="line"/>
      <point x="316" y="150" type="line"/>
    </contour>
  </outline>
</glyph>
<glyph name="uni00B2" format="1">
  <advance width="336"/>
  <unicode hex="00B2"/>
  <outline>
    <contour>
      <point x="78" y="282" type="line"/>
      <point x="308" y="486" type="line" smooth="yes"/>
      <point x="341" y="516"/>
      <point x="372" y="547"/>
      <point x="380" y="592" type="curve" smooth="yes"/>
      <point x="388" y="636"/>
      <point x="370" y="690"/>
      <point x="300" y="690" type="curve" smooth="yes"/>
      <point x="234" y="690"/>
      <point x="180" y="636"/>
      <point x="166" y="558" type="curve"/>
      <point x="146" y="558" type="line"/>
      <point x="162" y="647"/>
      <point x="225" y="709"/>
      <point x="303" y="709" type="curve" smooth="yes"/>
      <point x="387" y="709"/>
      <point x="408" y="642"/>
      <point x="399" y="590" type="curve" smooth="yes"/>
      <point x="391" y="543"/>
      <point x="359" y="507"/>
      <point x="322" y="475" type="curve" smooth="yes"/>
      <point x="123" y="300" type="line"/>
      <point x="361" y="300" type="line"/>
      <point x="358" y="282" type="line"/>
    </contour>
  </outline>
</glyph>
<glyph name="uni00B3" format="1">
  <advance width="309"/>
  <unicode hex="00B3"/>
  <outline>
    <contour>
      <point x="227" y="494" type="curve"/>
      <point x="230" y="508" type="line"/>
      <point x="284" y="508"/>
      <point x="349" y="542"/>
      <point x="359" y="598" type="curve" smooth="yes"/>
      <point x="367" y="645"/>
      <point x="343" y="688"/>
      <point x="283" y="688" type="curve" smooth="yes"/>
      <point x="226" y="688"/>
      <point x="181" y="650"/>
      <point x="171" y="596" type="curve"/>
      <point x="151" y="596" type="line"/>
      <point x="162" y="661"/>
      <point x="217" y="706"/>
      <point x="286" y="706" type="curve" smooth="yes"/>
      <point x="358" y="706"/>
      <point x="388" y="653"/>
      <point x="378" y="598" type="curve" smooth="yes"/>
      <point x="367" y="535"/>
      <point x="295" y="494"/>
    </contour>
    <contour>
      <point x="206" y="274" type="curve" smooth="yes"/>
      <point x="125" y="274"/>
      <point x="86" y="326"/>
      <point x="97" y="391" type="curve"/>
      <point x="117" y="391" type="line"/>
      <point x="107" y="334"/>
      <point x="140" y="292"/>
      <point x="209" y="292" type="curve" smooth="yes"/>
      <point x="274" y="292"/>
      <point x="324" y="332"/>
      <point x="334" y="388" type="curve" smooth="yes"/>
      <point x="346" y="456"/>
      <point x="280" y="490"/>
      <point x="226" y="490" type="curve"/>
      <point x="229" y="503" type="line"/>
      <point x="297" y="503"/>
      <point x="367" y="466"/>
      <point x="353" y="387" type="curve" smooth="yes"/>
      <point x="341" y="320"/>
      <point x="281" y="274"/>
    </contour>
  </outline>
</glyph>
<glyph name="acute" format="1">
  <advance width="359"/>
  <unicode hex="00B4"/>
  <outline>
    <contour>
      <point x="387" y="682" type="line"/>
      <point x="185" y="528" type="line"/>
      <point x="170" y="540" type="line"/>
      <point x="362" y="700" type="line"/>
    </contour>
  </outline>
</glyph>
<glyph name="mu" format="1">
  <advance width="490"/>
  <unicode hex="00B5"/>
  <outline>
    <contour>
      <point x="377" y="0" type="line"/>
      <point x="458" y="460" type="line"/>
      <point x="489" y="460" type="line"/>
      <point x="408" y="0" type="line"/>
    </contour>
    <contour>
      <point x="141" y="159" type="line" smooth="yes"/>
      <point x="126" y="73"/>
      <point x="150" y="20"/>
      <point x="232" y="20" type="curve" smooth="yes"/>
      <point x="316" y="20"/>
      <point x="394" y="94"/>
      <point x="409" y="180" type="curve"/>
      <point x="424" y="180" type="line"/>
      <point x="405" y="71"/>
      <point x="315" y="-10"/>
      <point x="220" y="-10" type="curve" smooth="yes"/>
      <point x="125" y="-10"/>
      <point x="91" y="51"/>
      <point x="110" y="156" type="curve" smooth="yes"/>
      <point x="163" y="460" type="line"/>
      <point x="194" y="460" type="line"/>
    </contour>
    <contour>
      <point x="163" y="460" type="line"/>
      <point x="194" y="460" type="line"/>
      <point x="57" y="-320" type="line"/>
      <point x="26" y="-320" type="line"/>
    </contour>
  </outline>
</glyph>
<glyph name="paragraph" format="1">
  <advance width="487"/>
  <unicode hex="00B6"/>
  <outline>
    <contour>
      <point x="407" y="674" type="line"/>
      <point x="411" y="700" type="line"/>
      <point x="541" y="700" type="line"/>
      <point x="537" y="674" type="line"/>
    </contour>
    <contour>
      <point x="522" y="700" type="line"/>
      <point x="550" y="700" type="line"/>
      <point x="388" y="-220" type="line"/>
      <point x="360" y="-220" type="line"/>
    </contour>
    <contour>
      <point x="411" y="700" type="line"/>
      <point x="439" y="700" type="line"/>
      <point x="277" y="-220" type="line"/>
      <point x="249" y="-220" type="line"/>
    </contour>
    <contour>
      <point x="336" y="270" type="line"/>
      <point x="211" y="270"/>
      <point x="121" y="346"/>
      <point x="146" y="485" type="curve" smooth="yes"/>
      <point x="171" y="624"/>
      <point x="286" y="700"/>
      <point x="411" y="700" type="curve"/>
    </contour>
  </outline>
</glyph>
<glyph name="periodcentered" format="1">
  <advance width="259"/>
  <unicode hex="00B7"/>
  <outline>
    <contour>
      <point x="146" y="226" type="curve" smooth="yes"/>
      <point x="148" y="240"/>
      <point x="161" y="251"/>
      <point x="174" y="251" type="curve" smooth="yes"/>
      <point x="187" y="251"/>
      <point x="196" y="240"/>
      <point x="194" y="226" type="curve" smooth="yes"/>
      <point x="192" y="212"/>
      <point x="179" y="202"/>
      <point x="166" y="202" type="curve" smooth="yes"/>
      <point x="153" y="202"/>
      <point x="144" y="212"/>
    </contour>
  </outline>
</glyph>
<glyph name="cedilla" format="1">
  <advance width="350"/>
  <unicode hex="00B8"/>
  <outline>
    <contour>
      <point x="185" y="18" type="line"/>
      <point x="211" y="18" type="line"/>
      <point x="138" y="-70" type="line"/>
      <point x="101" y="-94" type="line"/>
    </contour>
    <contour>
      <point x="253" y="-126" type="curve"/>
      <point x="229" y="-126" type="line"/>
      <point x="236" y="-88"/>
      <point x="210" y="-70"/>
      <point x="180" y="-70" type="curve" smooth="yes"/>
      <point x="156" y="-70"/>
      <point x="127" y="-78"/>
      <point x="101" y="-94" type="curve"/>
      <point x="125" y="-74" type="line"/>
      <point x="154" y="-58"/>
      <point x="166" y="-52"/>
      <point x="193" y="-52" type="curve" smooth="yes"/>
      <point x="226" y="-52"/>
      <point x="262" y="-77"/>
    </contour>
    <contour>
      <point x="253" y="-126" type="line"/>
      <point x="242" y="-187"/>
      <point x="184" y="-220"/>
      <point x="129" y="-220" type="curve" smooth="yes"/>
      <point x="92" y="-220"/>
      <point x="70" y="-210"/>
      <point x="47" y="-182" type="curve"/>
      <point x="65" y="-166" type="line"/>
      <point x="87" y="-188"/>
      <point x="102" y="-197"/>
      <point x="133" y="-197" type="curve" smooth="yes"/>
      <point x="176" y="-197"/>
      <point x="221" y="-172"/>
      <point x="229" y="-126" type="curve"/>
    </contour>
  </outline>
</glyph>
<glyph name="uni00B9" format="1">
  <advance width="470"/>
  <unicode hex="00B9"/>
  <outline>
    <contour>
      <point x="261" y="650" type="line"/>
      <point x="264" y="670" type="line"/>
      <point x="387" y="698" type="line"/>
      <point x="312" y="274" type="line"/>
      <point x="293" y="274" type="line"/>
      <point x="364" y="674" type="line"/>
    </contour>
  </outline>
</glyph>
<glyph name="ordmasculine" format="1">
  <advance width="278"/>
  <unicode hex="00BA"/>
  <outline>
    <contour>
      <point x="122" y="580" type="curve" smooth="yes"/>
      <point x="134" y="650"/>
      <point x="194" y="700"/>
      <point x="262" y="700" type="curve" smooth="yes"/>
      <point x="330" y="700"/>
      <point x="372" y="650"/>
      <point x="360" y="580" type="curve" smooth="yes"/>
      <point x="348" y="510"/>
      <point x="288" y="460"/>
      <point x="220" y="460" type="curve" smooth="yes"/>
      <point x="152" y="460"/>
      <point x="110" y="510"/>
    </contour>
    <contour>
      <point x="141" y="580" type="curve" smooth="yes"/>
      <point x="130" y="520"/>
      <point x="167" y="478"/>
      <point x="223" y="478" type="curve" smooth="yes"/>
      <point x="279" y="478"/>
      <point x="330" y="520"/>
      <point x="341" y="580" type="curve" smooth="yes"/>
      <point x="352" y="640"/>
      <point x="315" y="682"/>
      <point x="259" y="682" type="curve" smooth="yes"/>
      <point x="203" y="682"/>
      <point x="152" y="640"/>
    </contour>
  </outline>
</glyph>
<glyph name="guillemotright" format="1">
  <advance width="492"/>
  <unicode hex="00BB"/>
  <outline>
    <contour>
      <point x="470" y="261" type="line"/>
      <point x="497" y="255" type="line"/>
      <point x="254" y="20" type="line"/>
      <point x="237" y="38" type="line"/>
    </contour>
    <contour>
      <point x="497" y="255" type="line"/>
      <point x="467" y="246" type="line"/>
      <point x="313" y="472" type="line"/>
      <point x="336" y="490" type="line"/>
    </contour>
    <contour>
      <point x="310" y="261" type="line"/>
      <point x="337" y="255" type="line"/>
      <point x="94" y="20" type="line"/>
      <point x="77" y="38" type="line"/>
    </contour>
    <contour>
      <point x="337" y="255" type="line"/>
      <point x="307" y="246" type="line"/>
      <point x="153" y="472" type="line"/>
      <point x="176" y="490" type="line"/>
    </contour>
  </outline>
</glyph>
<glyph name="onequarter" format="1">
  <advance width="754"/>
  <unicode hex="00BC"/>
  <outline>
    <contour>
      <point x="778" y="700" type="line"/>
      <point x="806" y="700" type="line"/>
      <point x="126" y="0" type="line"/>
      <point x="98" y="0" type="line"/>
    </contour>
    <contour>
      <point x="139" y="650" type="line"/>
      <point x="142" y="670" type="line"/>
      <point x="265" y="698" type="line"/>
      <point x="190" y="274" type="line"/>
      <point x="171" y="274" type="line"/>
      <point x="242" y="674" type="line"/>
    </contour>
    <contour>
      <point x="415" y="84" type="line"/>
      <point x="435" y="102" type="line"/>
      <point x="644" y="102" type="line" smooth="yes"/>
      <point x="648" y="102" type="line" smooth="yes"/>
      <point x="722" y="102" type="line"/>
      <point x="719" y="84" type="line"/>
    </contour>
    <contour>
      <point x="436" y="84" type="line"/>
      <point x="415" y="84" type="line"/>
      <point x="705" y="420" type="line"/>
      <point x="712" y="420" type="line"/>
      <point x="638" y="0" type="line"/>
      <point x="618" y="0" type="line"/>
      <point x="634" y="92" type="line" smooth="yes"/>
      <point x="635" y="95" type="line" smooth="yes"/>
      <point x="684" y="372" type="line"/>
    </contour>
  </outline>
</glyph>
<glyph name="onehalf" format="1">
  <advance width="819"/>
  <unicode hex="00BD"/>
  <outline>
    <contour>
      <point x="778" y="700" type="line"/>
      <point x="806" y="700" type="line"/>
      <point x="126" y="0" type="line"/>
      <point x="98" y="0" type="line"/>
    </contour>
    <contour>
      <point x="139" y="650" type="line"/>
      <point x="142" y="670" type="line"/>
      <point x="265" y="698" type="line"/>
      <point x="190" y="274" type="line"/>
      <point x="171" y="274" type="line"/>
      <point x="242" y="674" type="line"/>
    </contour>
    <contour>
      <point x="495" y="2" type="line"/>
      <point x="725" y="206" type="line" smooth="yes"/>
      <point x="758" y="236"/>
      <point x="789" y="266"/>
      <point x="797" y="311" type="curve" smooth="yes"/>
      <point x="805" y="355"/>
      <point x="786" y="410"/>
      <point x="716" y="410" type="curve" smooth="yes"/>
      <point x="650" y="410"/>
      <point x="597" y="356"/>
      <point x="583" y="278" type="curve"/>
      <point x="564" y="278" type="line"/>
      <point x="580" y="367"/>
      <point x="642" y="429"/>
      <point x="720" y="429" type="curve" smooth="yes"/>
      <point x="804" y="429"/>
      <point x="826" y="362"/>
      <point x="817" y="310" type="curve" smooth="yes"/>
      <point x="809" y="263"/>
      <point x="775" y="227"/>
      <point x="738" y="195" type="curve" smooth="yes"/>
      <point x="541" y="20" type="line"/>
      <point x="778" y="20" type="line"/>
      <point x="774" y="2" type="line"/>
    </contour>
  </outline>
</glyph>
<glyph name="threequarters" format="1">
  <advance width="820"/>
  <unicode hex="00BE"/>
  <outline>
    <contour>
      <point x="845" y="700" type="line"/>
      <point x="873" y="700" type="line"/>
      <point x="193" y="0" type="line"/>
      <point x="165" y="0" type="line"/>
    </contour>
    <contour>
      <point x="233" y="494" type="curve"/>
      <point x="236" y="508" type="line"/>
      <point x="290" y="508"/>
      <point x="353" y="542"/>
      <point x="363" y="598" type="curve" smooth="yes"/>
      <point x="371" y="645"/>
      <point x="347" y="688"/>
      <point x="287" y="688" type="curve" smooth="yes"/>
      <point x="230" y="688"/>
      <point x="185" y="650"/>
      <point x="175" y="596" type="curve"/>
      <point x="157" y="596" type="line"/>
      <point x="168" y="661"/>
      <point x="221" y="706"/>
      <point x="290" y="706" type="curve" smooth="yes"/>
      <point x="362" y="706"/>
      <point x="393" y="653"/>
      <point x="383" y="598" type="curve" smooth="yes"/>
      <point x="372" y="535"/>
      <point x="301" y="494"/>
    </contour>
    <contour>
      <point x="212" y="274" type="curve" smooth="yes"/>
      <point x="131" y="274"/>
      <point x="92" y="326"/>
      <point x="103" y="391" type="curve"/>
      <point x="123" y="391" type="line"/>
      <point x="113" y="334"/>
      <point x="146" y="292"/>
      <point x="215" y="292" type="curve" smooth="yes"/>
      <point x="280" y="292"/>
      <point x="328" y="332"/>
      <point x="338" y="388" type="curve" smooth="yes"/>
      <point x="350" y="456"/>
      <point x="286" y="490"/>
      <point x="232" y="490" type="curve"/>
      <point x="235" y="503" type="line"/>
      <point x="303" y="503"/>
      <point x="372" y="466"/>
      <point x="358" y="387" type="curve" smooth="yes"/>
      <point x="346" y="320"/>
      <point x="287" y="274"/>
    </contour>
    <contour>
      <point x="482" y="84" type="line"/>
      <point x="502" y="102" type="line"/>
      <point x="710" y="102" type="line" smooth="yes"/>
      <point x="715" y="102" type="line" smooth="yes"/>
      <point x="788" y="102" type="line"/>
      <point x="785" y="84" type="line"/>
    </contour>
    <contour>
      <point x="503" y="84" type="line"/>
      <point x="482" y="84" type="line"/>
      <point x="772" y="420" type="line"/>
      <point x="778" y="420" type="line"/>
      <point x="704" y="0" type="line"/>
      <point x="685" y="0" type="line"/>
      <point x="701" y="92" type="line" smooth="yes"/>
      <point x="702" y="95" type="line" smooth="yes"/>
      <point x="751" y="372" type="line"/>
    </contour>
  </outline>
</glyph>
<glyph name="questiondown" format="1">
  <advance width="546"/>
  <unicode hex="00BF"/>
  <outline>
    <contour>
      <point x="459" y="688" type="curve" smooth="yes"/>
      <point x="457" y="674"/>
      <point x="444" y="663"/>
      <point x="431" y="663" type="curve" smooth="yes"/>
      <point x="418" y="663"/>
      <point x="409" y="674"/>
      <point x="411" y="688" type="curve" smooth="yes"/>
      <point x="413" y="702"/>
      <point x="427" y="712"/>
      <point x="440" y="712" type="curve" smooth="yes"/>
      <point x="453" y="712"/>
      <point x="461" y="702"/>
    </contour>
    <contour>
      <point x="395" y="355" type="line"/>
      <point x="359" y="355" type="line"/>
      <point x="391" y="530" type="line"/>
      <point x="415" y="530" type="line"/>
    </contour>
    <contour>
      <point x="139" y="186" type="curve" smooth="yes"/>
      <point x="122" y="90"/>
      <point x="174" y="20"/>
      <point x="285" y="20" type="curve" smooth="yes"/>
      <point x="369" y="20"/>
      <point x="428" y="60"/>
      <point x="479" y="124" type="curve"/>
      <point x="502" y="107" type="line"/>
      <point x="444" y="37"/>
      <point x="381" y="-10"/>
      <point x="276" y="-10" type="curve" smooth="yes"/>
      <point x="151" y="-10"/>
      <point x="87" y="74"/>
      <point x="107" y="186" type="curve" smooth="yes"/>
      <point x="126" y="291"/>
      <point x="244" y="377"/>
      <point x="370" y="377" type="curve"/>
      <point x="387" y="355" type="line"/>
      <point x="260" y="355"/>
      <point x="155" y="276"/>
    </contour>
  </outline>
</glyph>
<glyph name="Aacute" format="1">
  <advance width="618"/>
  <unicode hex="00C1"/>
  <outline>
    <contour>
      <point x="178" y="254" type="line"/>
      <point x="192" y="284" type="line"/>
      <point x="526" y="284" type="line"/>
      <point x="531" y="254" type="line"/>
    </contour>
    <contour>
      <point x="423" y="644" type="line"/>
      <point x="207" y="273" type="line"/>
      <point x="203" y="265" type="line"/>
      <point x="49" y="0" type="line"/>
      <point x="12" y="0" type="line"/>
      <point x="436" y="721" type="line"/>
      <point x="606" y="0" type="line"/>
      <point x="569" y="0" type="line"/>
      <point x="510" y="263" type="line"/>
      <point x="508" y="271" type="line"/>
    </contour>
    <contour>
      <point x="608" y="936" type="line"/>
      <point x="406" y="781" type="line"/>
      <point x="391" y="794" type="line"/>
      <point x="583" y="954" type="line"/>
    </contour>
  </outline>
</glyph>
<glyph name="Atilde" format="1">
  <advance width="618"/>
  <unicode hex="00C3"/>
  <outline>
    <contour>
      <point x="178" y="254" type="line"/>
      <point x="192" y="284" type="line"/>
      <point x="526" y="284" type="line"/>
      <point x="531" y="254" type="line"/>
    </contour>
    <contour>
      <point x="423" y="644" type="line"/>
      <point x="207" y="273" type="line"/>
      <point x="203" y="265" type="line"/>
      <point x="49" y="0" type="line"/>
      <point x="12" y="0" type="line"/>
      <point x="436" y="721" type="line"/>
      <point x="606" y="0" type="line"/>
      <point x="569" y="0" type="line"/>
      <point x="510" y="263" type="line"/>
      <point x="508" y="271" type="line"/>
    </contour>
    <contour>
      <point x="313" y="801" type="line"/>
      <point x="322" y="836"/>
      <point x="354" y="866"/>
      <point x="399" y="866" type="curve" smooth="yes"/>
      <point x="457" y="866"/>
      <point x="460" y="819"/>
      <point x="514" y="819" type="curve" smooth="yes"/>
      <point x="540" y="819"/>
      <point x="557" y="835"/>
      <point x="579" y="867" type="curve"/>
      <point x="596" y="852" type="line"/>
      <point x="573" y="815"/>
      <point x="544" y="793"/>
      <point x="508" y="793" type="curve" smooth="yes"/>
      <point x="453" y="793"/>
      <point x="440" y="840"/>
      <point x="395" y="840" type="curve" smooth="yes"/>
      <point x="354" y="840"/>
      <point x="337" y="811"/>
      <point x="333" y="789" type="curve"/>
    </contour>
  </outline>
</glyph>
<glyph name="Adieresis" format="1">
  <advance width="618"/>
  <unicode hex="00C4"/>
  <outline>
    <contour>
      <point x="178" y="254" type="line"/>
      <point x="192" y="284" type="line"/>
      <point x="526" y="284" type="line"/>
      <point x="531" y="254" type="line"/>
    </contour>
    <contour>
      <point x="423" y="644" type="line"/>
      <point x="207" y="273" type="line"/>
      <point x="203" y="265" type="line"/>
      <point x="49" y="0" type="line"/>
      <point x="12" y="0" type="line"/>
      <point x="436" y="721" type="line"/>
      <point x="606" y="0" type="line"/>
      <point x="569" y="0" type="line"/>
      <point x="510" y="263" type="line"/>
      <point x="508" y="271" type="line"/>
    </contour>
    <contour>
      <point x="529" y="819" type="curve" smooth="yes"/>
      <point x="531" y="833"/>
      <point x="545" y="844"/>
      <point x="558" y="844" type="curve" smooth="yes"/>
      <point x="571" y="844"/>
      <point x="579" y="833"/>
      <point x="577" y="819" type="curve" smooth="yes"/>
      <point x="575" y="805"/>
      <point x="562" y="795"/>
      <point x="549" y="795" type="curve" smooth="yes"/>
      <point x="536" y="795"/>
      <point x="527" y="805"/>
    </contour>
    <contour>
      <point x="329" y="819" type="curve" smooth="yes"/>
      <point x="331" y="833"/>
      <point x="345" y="844"/>
      <point x="358" y="844" type="curve" smooth="yes"/>
      <point x="371" y="844"/>
      <point x="379" y="833"/>
      <point x="377" y="819" type="curve" smooth="yes"/>
      <point x="375" y="805"/>
      <point x="362" y="795"/>
      <point x="349" y="795" type="curve" smooth="yes"/>
      <point x="336" y="795"/>
      <point x="327" y="805"/>
    </contour>
  </outline>
</glyph>
<glyph name="Aring" format="1">
  <advance width="618"/>
  <unicode hex="00C5"/>
  <outline>
    <contour>
      <point x="178" y="254" type="line"/>
      <point x="192" y="284" type="line"/>
      <point x="526" y="284" type="line"/>
      <point x="531" y="254" type="line"/>
    </contour>
    <contour>
      <point x="423" y="644" type="line"/>
      <point x="207" y="273" type="line"/>
      <point x="203" y="265" type="line"/>
      <point x="49" y="0" type="line"/>
      <point x="12" y="0" type="line"/>
      <point x="436" y="721" type="line"/>
      <point x="606" y="0" type="line"/>
      <point x="569" y="0" type="line"/>
      <point x="510" y="263" type="line"/>
      <point x="508" y="271" type="line"/>
    </contour>
    <contour>
      <point x="349" y="805" type="curve" smooth="yes"/>
      <point x="360" y="865"/>
      <point x="417" y="905"/>
      <point x="469" y="905" type="curve" smooth="yes"/>
      <point x="521" y="905"/>
      <point x="564" y="865"/>
      <point x="553" y="805" type="curve" smooth="yes"/>
      <point x="542" y="745"/>
      <point x="485" y="705"/>
      <point x="433" y="705" type="curve" smooth="yes"/>
      <point x="381" y="705"/>
      <point x="338" y="745"/>
    </contour>
    <contour>
      <point x="372" y="805" type="curve" smooth="yes"/>
      <point x="364" y="758"/>
      <point x="396" y="726"/>
      <point x="437" y="726" type="curve" smooth="yes"/>
      <point x="478" y="726"/>
      <point x="522" y="758"/>
      <point x="530" y="805" type="curve" smooth="yes"/>
      <point x="538" y="852"/>
      <point x="506" y="884"/>
      <point x="465" y="884" type="curve" smooth="yes"/>
      <point x="424" y="884"/>
      <point x="380" y="852"/>
    </contour>
  </outline>
</glyph>
<glyph name="AE" format="1">
  <advance width="915"/>
  <unicode hex="00C6"/>
  <outline>
    <contour>
      <point x="256" y="259" type="line"/>
      <point x="261" y="290" type="line"/>
      <point x="554" y="290" type="line"/>
      <point x="549" y="259" type="line"/>
    </contour>
    <contour>
      <point x="593" y="700" type="line"/>
      <point x="621" y="688" type="line"/>
      <point x="42" y="0" type="line"/>
      <point x="5" y="0" type="line"/>
    </contour>
    <contour>
      <point x="509" y="0" type="line"/>
      <point x="514" y="31" type="line"/>
      <point x="843" y="31" type="line"/>
      <point x="838" y="0" type="line"/>
    </contour>
    <contour>
      <point x="632" y="669" type="line"/>
      <point x="593" y="700" type="line"/>
      <point x="961" y="700" type="line"/>
      <point x="956" y="669" type="line"/>
    </contour>
    <contour>
      <point x="574" y="371" type="line"/>
      <point x="580" y="402" type="line"/>
      <point x="889" y="402" type="line"/>
      <point x="883" y="371" type="line"/>
    </contour>
    <contour>
      <point x="613" y="700" type="line"/>
      <point x="646" y="700" type="line"/>
      <point x="523" y="0" type="line"/>
      <point x="490" y="0" type="line"/>
    </contour>
  </outline>
</glyph>
<glyph name="Ccedilla" format="1">
  <advance width="685"/>
  <unicode hex="00C7"/>
  <outline>
    <contour>
      <point x="144" y="350" type="curve" smooth="yes"/>
      <point x="111" y="161"/>
      <point x="216" y="26"/>
      <point x="388" y="26" type="curve" smooth="yes"/>
      <point x="487" y="26"/>
      <point x="562" y="58"/>
      <point x="628" y="116" type="curve"/>
      <point x="620" y="70" type="line"/>
      <point x="552" y="18"/>
      <point x="484" y="-8"/>
      <point x="382" y="-8" type="curve" smooth="yes"/>
      <point x="188" y="-8"/>
      <point x="72" y="141"/>
      <point x="109" y="350" type="curve" smooth="yes"/>
      <point x="146" y="559"/>
      <point x="314" y="708"/>
      <point x="508" y="708" type="curve" smooth="yes"/>
      <point x="610" y="708"/>
      <point x="669" y="682"/>
      <point x="719" y="630" type="curve"/>
      <point x="711" y="586" type="line"/>
      <point x="667" y="644"/>
      <point x="598" y="674"/>
      <point x="502" y="674" type="curve" smooth="yes"/>
      <point x="330" y="674"/>
      <point x="178" y="541"/>
    </contour>
    <contour>
      <point x="385" y="16" type="line"/>
      <point x="411" y="16" type="line"/>
      <point x="337" y="-71" type="line"/>
      <point x="301" y="-96" type="line"/>
    </contour>
    <contour>
      <point x="452" y="-128" type="curve"/>
      <point x="427" y="-128" type="line"/>
      <point x="434" y="-90"/>
      <point x="409" y="-72"/>
      <point x="379" y="-72" type="curve" smooth="yes"/>
      <point x="355" y="-72"/>
      <point x="327" y="-80"/>
      <point x="301" y="-96" type="curve"/>
      <point x="325" y="-75" type="line"/>
      <point x="354" y="-59"/>
      <point x="365" y="-54"/>
      <point x="392" y="-54" type="curve" smooth="yes"/>
      <point x="425" y="-54"/>
      <point x="461" y="-79"/>
    </contour>
    <contour>
      <point x="452" y="-128" type="line"/>
      <point x="441" y="-189"/>
      <point x="384" y="-222"/>
      <point x="329" y="-222" type="curve" smooth="yes"/>
      <point x="292" y="-222"/>
      <point x="270" y="-212"/>
      <point x="247" y="-184" type="curve"/>
      <point x="264" y="-168" type="line"/>
      <point x="286" y="-190"/>
      <point x="302" y="-198"/>
      <point x="333" y="-198" type="curve" smooth="yes"/>
      <point x="376" y="-198"/>
      <point x="419" y="-174"/>
      <point x="427" y="-128" type="curve"/>
    </contour>
  </outline>
</glyph>
<glyph name="Egrave" format="1">
  <advance width="522"/>
  <unicode hex="00C8"/>
  <outline>
    <contour>
      <point x="102" y="0" type="line"/>
      <point x="107" y="31" type="line"/>
      <point x="450" y="31" type="line"/>
      <point x="445" y="0" type="line"/>
    </contour>
    <contour>
      <point x="220" y="669" type="line"/>
      <point x="225" y="700" type="line"/>
      <point x="568" y="700" type="line"/>
      <point x="563" y="669" type="line"/>
    </contour>
    <contour>
      <point x="167" y="371" type="line"/>
      <point x="173" y="402" type="line"/>
      <point x="496" y="402" type="line"/>
      <point x="490" y="371" type="line"/>
    </contour>
    <contour>
      <point x="210" y="700" type="line"/>
      <point x="243" y="700" type="line"/>
      <point x="120" y="0" type="line"/>
      <point x="87" y="0" type="line"/>
    </contour>
    <contour>
      <point x="281" y="924" type="line"/>
      <point x="312" y="941" type="line"/>
      <point x="448" y="781" type="line"/>
      <point x="429" y="768" type="line"/>
    </contour>
  </outline>
</glyph>
<glyph name="Eacute" format="1">
  <advance width="522"/>
  <unicode hex="00C9"/>
  <outline>
    <contour>
      <point x="102" y="0" type="line"/>
      <point x="107" y="31" type="line"/>
      <point x="450" y="31" type="line"/>
      <point x="445" y="0" type="line"/>
    </contour>
    <contour>
      <point x="220" y="669" type="line"/>
      <point x="225" y="700" type="line"/>
      <point x="568" y="700" type="line"/>
      <point x="563" y="669" type="line"/>
    </contour>
    <contour>
      <point x="167" y="371" type="line"/>
      <point x="173" y="402" type="line"/>
      <point x="496" y="402" type="line"/>
      <point x="490" y="371" type="line"/>
    </contour>
    <contour>
      <point x="210" y="700" type="line"/>
      <point x="243" y="700" type="line"/>
      <point x="120" y="0" type="line"/>
      <point x="87" y="0" type="line"/>
    </contour>
    <contour>
      <point x="577" y="924" type="line"/>
      <point x="373" y="768" type="line"/>
      <point x="360" y="781" type="line"/>
      <point x="552" y="941" type="line"/>
    </contour>
  </outline>
</glyph>
<glyph name="Ecircumflex" format="1">
  <advance width="522"/>
  <unicode hex="00CA"/>
  <outline>
    <contour>
      <point x="102" y="0" type="line"/>
      <point x="107" y="31" type="line"/>
      <point x="450" y="31" type="line"/>
      <point x="445" y="0" type="line"/>
    </contour>
    <contour>
      <point x="220" y="669" type="line"/>
      <point x="225" y="700" type="line"/>
      <point x="568" y="700" type="line"/>
      <point x="563" y="669" type="line"/>
    </contour>
    <contour>
      <point x="167" y="371" type="line"/>
      <point x="173" y="402" type="line"/>
      <point x="496" y="402" type="line"/>
      <point x="490" y="371" type="line"/>
    </contour>
    <contour>
      <point x="210" y="700" type="line"/>
      <point x="243" y="700" type="line"/>
      <point x="120" y="0" type="line"/>
      <point x="87" y="0" type="line"/>
    </contour>
    <contour>
      <point x="426" y="892" type="line"/>
      <point x="264" y="768" type="line"/>
      <point x="248" y="786" type="line"/>
      <point x="432" y="926" type="line"/>
      <point x="568" y="786" type="line"/>
      <point x="544" y="768" type="line"/>
    </contour>
  </outline>
</glyph>
<glyph name="Edieresis" format="1">
  <advance width="522"/>
  <unicode hex="00CB"/>
  <outline>
    <contour>
      <point x="102" y="0" type="line"/>
      <point x="107" y="31" type="line"/>
      <point x="450" y="31" type="line"/>
      <point x="445" y="0" type="line"/>
    </contour>
    <contour>
      <point x="220" y="669" type="line"/>
      <point x="225" y="700" type="line"/>
      <point x="568" y="700" type="line"/>
      <point x="563" y="669" type="line"/>
    </contour>
    <contour>
      <point x="167" y="371" type="line"/>
      <point x="173" y="402" type="line"/>
      <point x="496" y="402" type="line"/>
      <point x="490" y="371" type="line"/>
    </contour>
    <contour>
      <point x="210" y="700" type="line"/>
      <point x="243" y="700" type="line"/>
      <point x="120" y="0" type="line"/>
      <point x="87" y="0" type="line"/>
    </contour>
    <contour>
      <point x="488" y="813" type="curve" smooth="yes"/>
      <point x="490" y="827"/>
      <point x="504" y="837"/>
      <point x="517" y="837" type="curve" smooth="yes"/>
      <point x="530" y="837"/>
      <point x="538" y="827"/>
      <point x="536" y="813" type="curve" smooth="yes"/>
      <point x="534" y="799"/>
      <point x="521" y="788"/>
      <point x="508" y="788" type="curve" smooth="yes"/>
      <point x="495" y="788"/>
      <point x="486" y="799"/>
    </contour>
    <contour>
      <point x="288" y="813" type="curve" smooth="yes"/>
      <point x="290" y="827"/>
      <point x="304" y="837"/>
      <point x="317" y="837" type="curve" smooth="yes"/>
      <point x="330" y="837"/>
      <point x="338" y="827"/>
      <point x="336" y="813" type="curve" smooth="yes"/>
      <point x="334" y="799"/>
      <point x="321" y="788"/>
      <point x="308" y="788" type="curve" smooth="yes"/>
      <point x="295" y="788"/>
      <point x="286" y="799"/>
    </contour>
  </outline>
</glyph>
<glyph name="Igrave" format="1">
  <advance width="199"/>
  <unicode hex="00CC"/>
  <outline>
    <contour>
      <point x="207" y="700" type="line"/>
      <point x="239" y="700" type="line"/>
      <point x="116" y="0" type="line"/>
      <point x="84" y="0" type="line"/>
    </contour>
    <contour>
      <point x="115" y="924" type="line"/>
      <point x="146" y="941" type="line"/>
      <point x="282" y="781" type="line"/>
      <point x="262" y="768" type="line"/>
    </contour>
  </outline>
</glyph>
<glyph name="Iacute" format="1">
  <advance width="199"/>
  <unicode hex="00CD"/>
  <outline>
    <contour>
      <point x="207" y="700" type="line"/>
      <point x="239" y="700" type="line"/>
      <point x="116" y="0" type="line"/>
      <point x="84" y="0" type="line"/>
    </contour>
    <contour>
      <point x="411" y="924" type="line"/>
      <point x="207" y="768" type="line"/>
      <point x="194" y="781" type="line"/>
      <point x="386" y="941" type="line"/>
    </contour>
  </outline>
</glyph>
<glyph name="Icircumflex" format="1">
  <advance width="199"/>
  <unicode hex="00CE"/>
  <outline>
    <contour>
      <point x="207" y="700" type="line"/>
      <point x="239" y="700" type="line"/>
      <point x="116" y="0" type="line"/>
      <point x="84" y="0" type="line"/>
    </contour>
    <contour>
      <point x="257" y="892" type="line"/>
      <point x="95" y="768" type="line"/>
      <point x="79" y="786" type="line"/>
      <point x="263" y="926" type="line"/>
      <point x="399" y="786" type="line"/>
      <point x="375" y="768" type="line"/>
    </contour>
  </outline>
</glyph>
<glyph name="Idieresis" format="1">
  <advance width="199"/>
  <unicode hex="00CF"/>
  <outline>
    <contour>
      <point x="207" y="700" type="line"/>
      <point x="239" y="700" type="line"/>
      <point x="116" y="0" type="line"/>
      <point x="84" y="0" type="line"/>
    </contour>
    <contour>
      <point x="296" y="807" type="curve" smooth="yes"/>
      <point x="298" y="821"/>
      <point x="312" y="831"/>
      <point x="325" y="831" type="curve" smooth="yes"/>
      <point x="338" y="831"/>
      <point x="347" y="821"/>
      <point x="345" y="807" type="curve" smooth="yes"/>
      <point x="343" y="793"/>
      <point x="329" y="782"/>
      <point x="316" y="782" type="curve" smooth="yes"/>
      <point x="303" y="782"/>
      <point x="294" y="793"/>
    </contour>
    <contour>
      <point x="138" y="807" type="curve" smooth="yes"/>
      <point x="140" y="821"/>
      <point x="154" y="831"/>
      <point x="167" y="831" type="curve" smooth="yes"/>
      <point x="180" y="831"/>
      <point x="189" y="821"/>
      <point x="187" y="807" type="curve" smooth="yes"/>
      <point x="185" y="793"/>
      <point x="171" y="782"/>
      <point x="158" y="782" type="curve" smooth="yes"/>
      <point x="145" y="782"/>
      <point x="136" y="793"/>
    </contour>
  </outline>
</glyph>
<glyph name="Ntilde" format="1">
  <advance width="698"/>
  <unicode hex="00D1"/>
  <outline>
    <contour>
      <point x="184" y="656" type="line"/>
      <point x="186" y="721" type="line"/>
      <point x="623" y="40" type="line"/>
      <point x="621" y="-21" type="line"/>
    </contour>
    <contour>
      <point x="715" y="700" type="line"/>
      <point x="748" y="700" type="line"/>
      <point x="621" y="-21" type="line"/>
      <point x="598" y="34" type="line"/>
    </contour>
    <contour>
      <point x="186" y="721" type="line"/>
      <point x="209" y="662" type="line"/>
      <point x="92" y="0" type="line"/>
      <point x="59" y="0" type="line"/>
    </contour>
    <contour>
      <point x="356" y="781" type="line"/>
      <point x="365" y="816"/>
      <point x="396" y="846"/>
      <point x="441" y="846" type="curve" smooth="yes"/>
      <point x="499" y="846"/>
      <point x="503" y="799"/>
      <point x="557" y="799" type="curve" smooth="yes"/>
      <point x="583" y="799"/>
      <point x="599" y="815"/>
      <point x="621" y="847" type="curve"/>
      <point x="639" y="832" type="line"/>
      <point x="616" y="795"/>
      <point x="586" y="773"/>
      <point x="550" y="773" type="curve" smooth="yes"/>
      <point x="495" y="773"/>
      <point x="483" y="820"/>
      <point x="438" y="820" type="curve" smooth="yes"/>
      <point x="397" y="820"/>
      <point x="380" y="791"/>
      <point x="376" y="769" type="curve"/>
    </contour>
  </outline>
</glyph>
<glyph name="Ocircumflex" format="1">
  <advance width="778"/>
  <unicode hex="00D4"/>
  <outline>
    <contour>
      <point x="144" y="350" type="curve" smooth="yes"/>
      <point x="111" y="162"/>
      <point x="214" y="24"/>
      <point x="394" y="24" type="curve" smooth="yes"/>
      <point x="574" y="24"/>
      <point x="726" y="162"/>
      <point x="759" y="350" type="curve" smooth="yes"/>
      <point x="792" y="538"/>
      <point x="689" y="676"/>
      <point x="509" y="676" type="curve" smooth="yes"/>
      <point x="329" y="676"/>
      <point x="177" y="538"/>
    </contour>
    <contour>
      <point x="109" y="350" type="curve" smooth="yes"/>
      <point x="146" y="558"/>
      <point x="318" y="708"/>
      <point x="515" y="708" type="curve" smooth="yes"/>
      <point x="712" y="708"/>
      <point x="831" y="558"/>
      <point x="794" y="350" type="curve" smooth="yes"/>
      <point x="757" y="142"/>
      <point x="586" y="-8"/>
      <point x="389" y="-8" type="curve" smooth="yes"/>
      <point x="192" y="-8"/>
      <point x="72" y="142"/>
    </contour>
    <contour>
      <point x="547" y="892" type="line"/>
      <point x="385" y="768" type="line"/>
      <point x="369" y="786" type="line"/>
      <point x="553" y="926" type="line"/>
      <point x="689" y="786" type="line"/>
      <point x="665" y="768" type="line"/>
    </contour>
  </outline>
</glyph>
<glyph name="Odieresis" format="1">
  <advance width="778"/>
  <unicode hex="00D6"/>
  <outline>
    <contour>
      <point x="144" y="350" type="curve" smooth="yes"/>
      <point x="111" y="162"/>
      <point x="214" y="24"/>
      <point x="394" y="24" type="curve" smooth="yes"/>
      <point x="574" y="24"/>
      <point x="726" y="162"/>
      <point x="759" y="350" type="curve" smooth="yes"/>
      <point x="792" y="538"/>
      <point x="689" y="676"/>
      <point x="509" y="676" type="curve" smooth="yes"/>
      <point x="329" y="676"/>
      <point x="177" y="538"/>
    </contour>
    <contour>
      <point x="109" y="350" type="curve" smooth="yes"/>
      <point x="146" y="558"/>
      <point x="318" y="708"/>
      <point x="515" y="708" type="curve" smooth="yes"/>
      <point x="712" y="708"/>
      <point x="831" y="558"/>
      <point x="794" y="350" type="curve" smooth="yes"/>
      <point x="757" y="142"/>
      <point x="586" y="-8"/>
      <point x="389" y="-8" type="curve" smooth="yes"/>
      <point x="192" y="-8"/>
      <point x="72" y="142"/>
    </contour>
    <contour>
      <point x="616" y="814" type="curve" smooth="yes"/>
      <point x="618" y="828"/>
      <point x="631" y="838"/>
      <point x="644" y="838" type="curve" smooth="yes"/>
      <point x="657" y="838"/>
      <point x="666" y="828"/>
      <point x="664" y="814" type="curve" smooth="yes"/>
      <point x="662" y="800"/>
      <point x="648" y="790"/>
      <point x="635" y="790" type="curve" smooth="yes"/>
      <point x="622" y="790"/>
      <point x="614" y="800"/>
    </contour>
    <contour>
      <point x="402" y="814" type="curve" smooth="yes"/>
      <point x="404" y="828"/>
      <point x="417" y="838"/>
      <point x="430" y="838" type="curve" smooth="yes"/>
      <point x="443" y="838"/>
      <point x="452" y="828"/>
      <point x="450" y="814" type="curve" smooth="yes"/>
      <point x="448" y="800"/>
      <point x="434" y="790"/>
      <point x="421" y="790" type="curve" smooth="yes"/>
      <point x="408" y="790"/>
      <point x="400" y="800"/>
    </contour>
  </outline>
</glyph>
<glyph name="multiply" format="1">
  <advance width="583"/>
  <unicode hex="00D7"/>
  <outline>
    <contour>
      <point x="105" y="39" type="line"/>
      <point x="87" y="60" type="line"/>
      <point x="317" y="254" type="line"/>
      <point x="155" y="449" type="line"/>
      <point x="180" y="470" type="line"/>
      <point x="340" y="274" type="line"/>
      <point x="569" y="470" type="line"/>
      <point x="587" y="449" type="line"/>
      <point x="356" y="254" type="line"/>
      <point x="518" y="60" type="line"/>
      <point x="493" y="39" type="line"/>
      <point x="333" y="235" type="line"/>
    </contour>
  </outline>
</glyph>
<glyph name="Ugrave" format="1">
  <advance width="591"/>
  <unicode hex="00D9"/>
  <outline>
    <contour>
      <point x="205" y="700" type="line"/>
      <point x="238" y="700" type="line"/>
      <point x="154" y="223" type="line" smooth="yes"/>
      <point x="132" y="99"/>
      <point x="186" y="22"/>
      <point x="300" y="22" type="curve" smooth="yes"/>
      <point x="414" y="22"/>
      <point x="493" y="99"/>
      <point x="515" y="223" type="curve" smooth="yes"/>
      <point x="599" y="700" type="line"/>
      <point x="632" y="700" type="line"/>
      <point x="548" y="223" type="line" smooth="yes"/>
      <point x="523" y="84"/>
      <point x="432" y="-10"/>
      <point x="294" y="-10" type="curve" smooth="yes"/>
      <point x="156" y="-10"/>
      <point x="96" y="84"/>
      <point x="121" y="223" type="curve" smooth="yes"/>
    </contour>
    <contour>
      <point x="325" y="924" type="line"/>
      <point x="356" y="941" type="line"/>
      <point x="492" y="781" type="line"/>
      <point x="472" y="768" type="line"/>
    </contour>
  </outline>
</glyph>
<glyph name="Uacute" format="1">
  <advance width="591"/>
  <unicode hex="00DA"/>
  <outline>
    <contour>
      <point x="205" y="700" type="line"/>
      <point x="238" y="700" type="line"/>
      <point x="154" y="223" type="line" smooth="yes"/>
      <point x="132" y="99"/>
      <point x="186" y="22"/>
      <point x="300" y="22" type="curve" smooth="yes"/>
      <point x="414" y="22"/>
      <point x="493" y="99"/>
      <point x="515" y="223" type="curve" smooth="yes"/>
      <point x="599" y="700" type="line"/>
      <point x="632" y="700" type="line"/>
      <point x="548" y="223" type="line" smooth="yes"/>
      <point x="523" y="84"/>
      <point x="432" y="-10"/>
      <point x="294" y="-10" type="curve" smooth="yes"/>
      <point x="156" y="-10"/>
      <point x="96" y="84"/>
      <point x="121" y="223" type="curve" smooth="yes"/>
    </contour>
    <contour>
      <point x="593" y="924" type="line"/>
      <point x="389" y="768" type="line"/>
      <point x="376" y="781" type="line"/>
      <point x="568" y="941" type="line"/>
    </contour>
  </outline>
</glyph>
<glyph name="Ucircumflex" format="1">
  <advance width="591"/>
  <unicode hex="00DB"/>
  <outline>
    <contour>
      <point x="205" y="700" type="line"/>
      <point x="238" y="700" type="line"/>
      <point x="154" y="223" type="line" smooth="yes"/>
      <point x="132" y="99"/>
      <point x="186" y="22"/>
      <point x="300" y="22" type="curve" smooth="yes"/>
      <point x="414" y="22"/>
      <point x="493" y="99"/>
      <point x="515" y="223" type="curve" smooth="yes"/>
      <point x="599" y="700" type="line"/>
      <point x="632" y="700" type="line"/>
      <point x="548" y="223" type="line" smooth="yes"/>
      <point x="523" y="84"/>
      <point x="432" y="-10"/>
      <point x="294" y="-10" type="curve" smooth="yes"/>
      <point x="156" y="-10"/>
      <point x="96" y="84"/>
      <point x="121" y="223" type="curve" smooth="yes"/>
    </contour>
    <contour>
      <point x="453" y="892" type="line"/>
      <point x="291" y="768" type="line"/>
      <point x="275" y="786" type="line"/>
      <point x="459" y="926" type="line"/>
      <point x="595" y="786" type="line"/>
      <point x="571" y="768" type="line"/>
    </contour>
  </outline>
</glyph>
<glyph name="Udieresis" format="1">
  <advance width="591"/>
  <unicode hex="00DC"/>
  <outline>
    <contour>
      <point x="205" y="700" type="line"/>
      <point x="238" y="700" type="line"/>
      <point x="154" y="223" type="line" smooth="yes"/>
      <point x="132" y="99"/>
      <point x="186" y="22"/>
      <point x="300" y="22" type="curve" smooth="yes"/>
      <point x="414" y="22"/>
      <point x="493" y="99"/>
      <point x="515" y="223" type="curve" smooth="yes"/>
      <point x="599" y="700" type="line"/>
      <point x="632" y="700" type="line"/>
      <point x="548" y="223" type="line" smooth="yes"/>
      <point x="523" y="84"/>
      <point x="432" y="-10"/>
      <point x="294" y="-10" type="curve" smooth="yes"/>
      <point x="156" y="-10"/>
      <point x="96" y="84"/>
      <point x="121" y="223" type="curve" smooth="yes"/>
    </contour>
    <contour>
      <point x="504" y="793" type="curve" smooth="yes"/>
      <point x="506" y="807"/>
      <point x="519" y="817"/>
      <point x="532" y="817" type="curve" smooth="yes"/>
      <point x="545" y="817"/>
      <point x="554" y="807"/>
      <point x="552" y="793" type="curve" smooth="yes"/>
      <point x="550" y="779"/>
      <point x="536" y="768"/>
      <point x="523" y="768" type="curve" smooth="yes"/>
      <point x="510" y="768"/>
      <point x="502" y="779"/>
    </contour>
    <contour>
      <point x="318" y="793" type="curve" smooth="yes"/>
      <point x="320" y="807"/>
      <point x="333" y="817"/>
      <point x="346" y="817" type="curve" smooth="yes"/>
      <point x="359" y="817"/>
      <point x="368" y="807"/>
      <point x="366" y="793" type="curve" smooth="yes"/>
      <point x="364" y="779"/>
      <point x="350" y="768"/>
      <point x="337" y="768" type="curve" smooth="yes"/>
      <point x="324" y="768"/>
      <point x="316" y="779"/>
    </contour>
  </outline>
</glyph>
<glyph name="Yacute" format="1">
  <advance width="523"/>
  <unicode hex="00DD"/>
  <outline>
    <contour>
      <point x="295" y="300" type="line"/>
      <point x="327" y="300" type="line"/>
      <point x="274" y="0" type="line"/>
      <point x="242" y="0" type="line"/>
    </contour>
    <contour>
      <point x="597" y="700" type="line"/>
      <point x="634" y="700" type="line"/>
      <point x="302" y="248" type="line"/>
      <point x="135" y="700" type="line"/>
      <point x="173" y="700" type="line"/>
      <point x="313" y="310" type="line"/>
    </contour>
    <contour>
      <point x="573" y="924" type="line"/>
      <point x="369" y="768" type="line"/>
      <point x="356" y="781" type="line"/>
      <point x="548" y="941" type="line"/>
    </contour>
  </outline>
</glyph>
<glyph name="Thorn" format="1">
  <advance width="529"/>
  <unicode hex="00DE"/>
  <outline>
    <contour>
      <point x="274" y="140" type="curve"/>
      <point x="279" y="171" type="line"/>
      <point x="393" y="171"/>
      <point x="497" y="243"/>
      <point x="516" y="350" type="curve" smooth="yes"/>
      <point x="536" y="464"/>
      <point x="456" y="529"/>
      <point x="342" y="529" type="curve"/>
      <point x="348" y="560" type="line"/>
      <point x="483" y="560"/>
      <point x="572" y="479"/>
      <point x="549" y="350" type="curve" smooth="yes"/>
      <point x="526" y="221"/>
      <point x="409" y="140"/>
    </contour>
    <contour>
      <point x="122" y="140" type="line"/>
      <point x="127" y="171" type="line"/>
      <point x="279" y="171" type="line"/>
      <point x="274" y="140" type="line"/>
    </contour>
    <contour>
      <point x="190" y="529" type="line"/>
      <point x="196" y="560" type="line"/>
      <point x="348" y="560" type="line"/>
      <point x="342" y="529" type="line"/>
    </contour>
    <contour>
      <point x="203" y="700" type="line"/>
      <point x="235" y="700" type="line"/>
      <point x="112" y="0" type="line"/>
      <point x="80" y="0" type="line"/>
    </contour>
  </outline>
</glyph>
<glyph name="germandbls" format="1">
  <advance width="542"/>
  <unicode hex="00DF"/>
  <outline>
    <contour>
      <point x="187" y="606" type="line"/>
      <point x="218" y="606" type="line"/>
      <point x="111" y="0" type="line"/>
      <point x="80" y="0" type="line"/>
    </contour>
    <contour>
      <point x="315" y="439" type="curve"/>
      <point x="319" y="461" type="line"/>
      <point x="429" y="461"/>
      <point x="515" y="505"/>
      <point x="532" y="603" type="curve" smooth="yes"/>
      <point x="547" y="690"/>
      <point x="515" y="760"/>
      <point x="397" y="760" type="curve" smooth="yes"/>
      <point x="309" y="760"/>
      <point x="234" y="696"/>
      <point x="218" y="606" type="curve"/>
      <point x="187" y="606" type="line"/>
      <point x="206" y="715"/>
      <point x="297" y="790"/>
      <point x="402" y="790" type="curve" smooth="yes"/>
      <point x="537" y="790"/>
      <point x="583" y="715"/>
      <point x="564" y="606" type="curve" smooth="yes"/>
      <point x="545" y="501"/>
      <point x="470" y="439"/>
    </contour>
    <contour>
      <point x="262" y="20" type="line"/>
      <point x="377" y="20"/>
      <point x="484" y="104"/>
      <point x="506" y="228" type="curve" smooth="yes"/>
      <point x="529" y="361"/>
      <point x="424" y="432"/>
      <point x="314" y="432" type="curve"/>
      <point x="318" y="453" type="line"/>
      <point x="473" y="453"/>
      <point x="560" y="357"/>
      <point x="537" y="225" type="curve" smooth="yes"/>
      <point x="512" y="86"/>
      <point x="391" y="-10"/>
      <point x="256" y="-10" type="curve"/>
    </contour>
  </outline>
</glyph>
<glyph name="atilde" format="1">
  <advance width="549"/>
  <unicode hex="00E3"/>
  <outline>
    <contour>
      <point x="524" y="460" type="line"/>
      <point x="554" y="460" type="line"/>
      <point x="473" y="0" type="line"/>
      <point x="443" y="0" type="line"/>
    </contour>
    <contour>
      <point x="83" y="230" type="curve" smooth="yes"/>
      <point x="109" y="378"/>
      <point x="221" y="470"/>
      <point x="343" y="470" type="curve" smooth="yes"/>
      <point x="464" y="470"/>
      <point x="520" y="358"/>
      <point x="497" y="230" type="curve" smooth="yes"/>
      <point x="474" y="102"/>
      <point x="379" y="-10"/>
      <point x="258" y="-10" type="curve" smooth="yes"/>
      <point x="136" y="-10"/>
      <point x="57" y="82"/>
    </contour>
    <contour>
      <point x="114" y="230" type="curve" smooth="yes"/>
      <point x="91" y="100"/>
      <point x="162" y="20"/>
      <point x="269" y="20" type="curve" smooth="yes"/>
      <point x="366" y="20"/>
      <point x="463" y="117"/>
      <point x="483" y="230" type="curve" smooth="yes"/>
      <point x="503" y="343"/>
      <point x="440" y="440"/>
      <point x="343" y="440" type="curve" smooth="yes"/>
      <point x="236" y="440"/>
      <point x="137" y="360"/>
    </contour>
    <contour>
      <point x="226" y="556" type="line"/>
      <point x="235" y="591"/>
      <point x="266" y="621"/>
      <point x="311" y="621" type="curve" smooth="yes"/>
      <point x="369" y="621"/>
      <point x="373" y="574"/>
      <point x="427" y="574" type="curve" smooth="yes"/>
      <point x="453" y="574"/>
      <point x="470" y="590"/>
      <point x="492" y="622" type="curve"/>
      <point x="510" y="607" type="line"/>
      <point x="487" y="570"/>
      <point x="458" y="548"/>
      <point x="422" y="548" type="curve" smooth="yes"/>
      <point x="367" y="548"/>
      <point x="354" y="595"/>
      <point x="309" y="595" type="curve" smooth="yes"/>
      <point x="268" y="595"/>
      <point x="251" y="566"/>
      <point x="247" y="544" type="curve"/>
    </contour>
  </outline>
</glyph>
<glyph name="adieresis" format="1">
  <advance width="549"/>
  <unicode hex="00E4"/>
  <outline>
    <contour>
      <point x="524" y="460" type="line"/>
      <point x="554" y="460" type="line"/>
      <point x="473" y="0" type="line"/>
      <point x="443" y="0" type="line"/>
    </contour>
    <contour>
      <point x="83" y="230" type="curve" smooth="yes"/>
      <point x="109" y="378"/>
      <point x="221" y="470"/>
      <point x="343" y="470" type="curve" smooth="yes"/>
      <point x="464" y="470"/>
      <point x="520" y="358"/>
      <point x="497" y="230" type="curve" smooth="yes"/>
      <point x="474" y="102"/>
      <point x="379" y="-10"/>
      <point x="258" y="-10" type="curve" smooth="yes"/>
      <point x="136" y="-10"/>
      <point x="57" y="82"/>
    </contour>
    <contour>
      <point x="114" y="230" type="curve" smooth="yes"/>
      <point x="91" y="100"/>
      <point x="162" y="20"/>
      <point x="269" y="20" type="curve" smooth="yes"/>
      <point x="366" y="20"/>
      <point x="463" y="117"/>
      <point x="483" y="230" type="curve" smooth="yes"/>
      <point x="503" y="343"/>
      <point x="440" y="440"/>
      <point x="343" y="440" type="curve" smooth="yes"/>
      <point x="236" y="440"/>
      <point x="137" y="360"/>
    </contour>
    <contour>
      <point x="452" y="589" type="curve" smooth="yes"/>
      <point x="454" y="603"/>
      <point x="467" y="613"/>
      <point x="480" y="613" type="curve" smooth="yes"/>
      <point x="493" y="613"/>
      <point x="503" y="603"/>
      <point x="501" y="589" type="curve" smooth="yes"/>
      <point x="499" y="575"/>
      <point x="485" y="565"/>
      <point x="472" y="565" type="curve" smooth="yes"/>
      <point x="459" y="565"/>
      <point x="450" y="575"/>
    </contour>
    <contour>
      <point x="252" y="589" type="curve" smooth="yes"/>
      <point x="254" y="603"/>
      <point x="267" y="613"/>
      <point x="280" y="613" type="curve" smooth="yes"/>
      <point x="293" y="613"/>
      <point x="303" y="603"/>
      <point x="301" y="589" type="curve" smooth="yes"/>
      <point x="299" y="575"/>
      <point x="285" y="565"/>
      <point x="272" y="565" type="curve" smooth="yes"/>
      <point x="259" y="565"/>
      <point x="250" y="575"/>
    </contour>
  </outline>
</glyph>
<glyph name="aring" format="1">
  <advance width="549"/>
  <unicode hex="00E5"/>
  <outline>
    <contour>
      <point x="524" y="460" type="line"/>
      <point x="554" y="460" type="line"/>
      <point x="473" y="0" type="line"/>
      <point x="443" y="0" type="line"/>
    </contour>
    <contour>
      <point x="83" y="230" type="curve" smooth="yes"/>
      <point x="109" y="378"/>
      <point x="221" y="470"/>
      <point x="343" y="470" type="curve" smooth="yes"/>
      <point x="464" y="470"/>
      <point x="520" y="358"/>
      <point x="497" y="230" type="curve" smooth="yes"/>
      <point x="474" y="102"/>
      <point x="379" y="-10"/>
      <point x="258" y="-10" type="curve" smooth="yes"/>
      <point x="136" y="-10"/>
      <point x="57" y="82"/>
    </contour>
    <contour>
      <point x="114" y="230" type="curve" smooth="yes"/>
      <point x="91" y="100"/>
      <point x="162" y="20"/>
      <point x="269" y="20" type="curve" smooth="yes"/>
      <point x="366" y="20"/>
      <point x="463" y="117"/>
      <point x="483" y="230" type="curve" smooth="yes"/>
      <point x="503" y="343"/>
      <point x="440" y="440"/>
      <point x="343" y="440" type="curve" smooth="yes"/>
      <point x="236" y="440"/>
      <point x="137" y="360"/>
    </contour>
    <contour>
      <point x="275" y="630" type="curve" smooth="yes"/>
      <point x="286" y="690"/>
      <point x="343" y="730"/>
      <point x="395" y="730" type="curve" smooth="yes"/>
      <point x="447" y="730"/>
      <point x="490" y="690"/>
      <point x="479" y="630" type="curve" smooth="yes"/>
      <point x="468" y="570"/>
      <point x="411" y="530"/>
      <point x="359" y="530" type="curve" smooth="yes"/>
      <point x="307" y="530"/>
      <point x="264" y="570"/>
    </contour>
    <contour>
      <point x="297" y="630" type="curve" smooth="yes"/>
      <point x="289" y="583"/>
      <point x="322" y="551"/>
      <point x="363" y="551" type="curve" smooth="yes"/>
      <point x="404" y="551"/>
      <point x="448" y="583"/>
      <point x="456" y="630" type="curve" smooth="yes"/>
      <point x="464" y="677"/>
      <point x="432" y="709"/>
      <point x="391" y="709" type="curve" smooth="yes"/>
      <point x="350" y="709"/>
      <point x="305" y="677"/>
    </contour>
  </outline>
</glyph>
<glyph name="ae" format="1">
  <advance width="825"/>
  <unicode hex="00E6"/>
  <outline>
    <contour>
      <point x="91" y="133" type="curve" smooth="yes"/>
      <point x="80" y="70"/>
      <point x="113" y="18"/>
      <point x="201" y="18" type="curve" smooth="yes"/>
      <point x="287" y="18"/>
      <point x="367" y="85"/>
      <point x="382" y="171" type="curve"/>
      <point x="399" y="155" type="line"/>
      <point x="383" y="66"/>
      <point x="294" y="-10"/>
      <point x="196" y="-10" type="curve" smooth="yes"/>
      <point x="90" y="-10"/>
      <point x="46" y="50"/>
      <point x="60" y="130" type="curve" smooth="yes"/>
      <point x="77" y="228"/>
      <point x="168" y="282"/>
      <point x="276" y="282" type="curve" smooth="yes"/>
      <point x="357" y="282"/>
      <point x="393" y="246"/>
      <point x="405" y="232" type="curve"/>
      <point x="401" y="211" type="line"/>
      <point x="379" y="233"/>
      <point x="336" y="257"/>
      <point x="271" y="257" type="curve" smooth="yes"/>
      <point x="175" y="257"/>
      <point x="105" y="210"/>
    </contour>
    <contour>
      <point x="159" y="382" type="curve"/>
      <point x="148" y="406" type="line"/>
      <point x="185" y="434"/>
      <point x="241" y="470"/>
      <point x="324" y="470" type="curve" smooth="yes"/>
      <point x="415" y="470"/>
      <point x="447" y="408"/>
      <point x="433" y="330" type="curve" smooth="yes"/>
      <point x="401" y="150" type="line"/>
      <point x="378" y="150" type="line"/>
      <point x="408" y="320" type="line" smooth="yes"/>
      <point x="419" y="385"/>
      <point x="395" y="442"/>
      <point x="317" y="442" type="curve" smooth="yes"/>
      <point x="244" y="442"/>
      <point x="191" y="406"/>
    </contour>
    <contour>
      <point x="414" y="222" type="line"/>
      <point x="419" y="250" type="line"/>
      <point x="820" y="250" type="line"/>
      <point x="825" y="222" type="line"/>
    </contour>
    <contour>
      <point x="798" y="250" type="line" smooth="yes"/>
      <point x="819" y="370"/>
      <point x="745" y="442"/>
      <point x="655" y="442" type="curve" smooth="yes"/>
      <point x="540" y="442"/>
      <point x="447" y="353"/>
      <point x="427" y="242" type="curve"/>
      <point x="425" y="234" type="line"/>
      <point x="403" y="107"/>
      <point x="466" y="20"/>
      <point x="570" y="20" type="curve" smooth="yes"/>
      <point x="672" y="20"/>
      <point x="729" y="66"/>
      <point x="777" y="124" type="curve"/>
      <point x="799" y="107" type="line"/>
      <point x="741" y="37"/>
      <point x="680" y="-10"/>
      <point x="561" y="-10" type="curve" smooth="yes"/>
      <point x="443" y="-10"/>
      <point x="371" y="91"/>
      <point x="396" y="230" type="curve" smooth="yes"/>
      <point x="399" y="247"/>
      <point x="407" y="263"/>
      <point x="413" y="279" type="curve" smooth="yes"/>
      <point x="452" y="392"/>
      <point x="543" y="470"/>
      <point x="666" y="470" type="curve" smooth="yes"/>
      <point x="755" y="470"/>
      <point x="858" y="393"/>
      <point x="832" y="248" type="curve" smooth="yes"/>
      <point x="831" y="240"/>
      <point x="827" y="230"/>
      <point x="825" y="222" type="curve"/>
      <point x="795" y="230" type="line"/>
    </contour>
  </outline>
</glyph>
<glyph name="ccedilla" format="1">
  <advance width="485"/>
  <unicode hex="00E7"/>
  <outline>
    <contour>
      <point x="109" y="230" type="curve" smooth="yes"/>
      <point x="87" y="108"/>
      <point x="162" y="20"/>
      <point x="276" y="20" type="curve" smooth="yes"/>
      <point x="350" y="20"/>
      <point x="418" y="58"/>
      <point x="444" y="88" type="curve"/>
      <point x="436" y="48" type="line"/>
      <point x="406" y="19"/>
      <point x="340" y="-10"/>
      <point x="270" y="-10" type="curve" smooth="yes"/>
      <point x="137" y="-10"/>
      <point x="53" y="91"/>
      <point x="78" y="230" type="curve" smooth="yes"/>
      <point x="103" y="369"/>
      <point x="222" y="470"/>
      <point x="355" y="470" type="curve" smooth="yes"/>
      <point x="425" y="470"/>
      <point x="481" y="440"/>
      <point x="501" y="412" type="curve"/>
      <point x="494" y="372" type="line"/>
      <point x="478" y="402"/>
      <point x="424" y="440"/>
      <point x="350" y="440" type="curve" smooth="yes"/>
      <point x="236" y="440"/>
      <point x="131" y="352"/>
    </contour>
    <contour>
      <point x="273" y="15" type="line"/>
      <point x="299" y="15" type="line"/>
      <point x="225" y="-72" type="line"/>
      <point x="189" y="-97" type="line"/>
    </contour>
    <contour>
      <point x="340" y="-129" type="curve"/>
      <point x="316" y="-129" type="line"/>
      <point x="323" y="-91"/>
      <point x="297" y="-74"/>
      <point x="267" y="-74" type="curve" smooth="yes"/>
      <point x="243" y="-74"/>
      <point x="215" y="-81"/>
      <point x="189" y="-97" type="curve"/>
      <point x="213" y="-76" type="line"/>
      <point x="242" y="-60"/>
      <point x="253" y="-55"/>
      <point x="280" y="-55" type="curve" smooth="yes"/>
      <point x="313" y="-55"/>
      <point x="349" y="-80"/>
    </contour>
    <contour>
      <point x="340" y="-129" type="line"/>
      <point x="329" y="-190"/>
      <point x="272" y="-223"/>
      <point x="217" y="-223" type="curve" smooth="yes"/>
      <point x="180" y="-223"/>
      <point x="157" y="-213"/>
      <point x="134" y="-185" type="curve"/>
      <point x="152" y="-169" type="line"/>
      <point x="174" y="-191"/>
      <point x="190" y="-200"/>
      <point x="221" y="-200" type="curve" smooth="yes"/>
      <point x="264" y="-200"/>
      <point x="308" y="-175"/>
      <point x="316" y="-129" type="curve"/>
    </contour>
  </outline>
</glyph>
<glyph name="edieresis" format="1">
  <advance width="519"/>
  <unicode hex="00EB"/>
  <outline>
    <contour>
      <point x="104" y="222" type="line"/>
      <point x="109" y="250" type="line"/>
      <point x="512" y="250" type="line"/>
      <point x="515" y="222" type="line"/>
    </contour>
    <contour>
      <point x="488" y="252" type="line" smooth="yes"/>
      <point x="507" y="361"/>
      <point x="442" y="442"/>
      <point x="342" y="442" type="curve" smooth="yes"/>
      <point x="242" y="442"/>
      <point x="138" y="366"/>
      <point x="116" y="240" type="curve"/>
      <point x="115" y="232" type="line"/>
      <point x="93" y="108"/>
      <point x="155" y="20"/>
      <point x="265" y="20" type="curve" smooth="yes"/>
      <point x="367" y="20"/>
      <point x="428" y="74"/>
      <point x="467" y="124" type="curve"/>
      <point x="489" y="107" type="line"/>
      <point x="444" y="53"/>
      <point x="379" y="-10"/>
      <point x="256" y="-10" type="curve" smooth="yes"/>
      <point x="131" y="-10"/>
      <point x="58" y="93"/>
      <point x="83" y="232" type="curve" smooth="yes"/>
      <point x="87" y="256"/>
      <point x="93" y="278"/>
      <point x="103" y="300" type="curve" smooth="yes"/>
      <point x="145" y="400"/>
      <point x="239" y="470"/>
      <point x="347" y="470" type="curve" smooth="yes"/>
      <point x="463" y="470"/>
      <point x="545" y="379"/>
      <point x="522" y="248" type="curve" smooth="yes"/>
      <point x="521" y="240"/>
      <point x="517" y="230"/>
      <point x="515" y="222" type="curve"/>
      <point x="485" y="230" type="line"/>
    </contour>
    <contour>
      <point x="440" y="568" type="curve" smooth="yes"/>
      <point x="442" y="582"/>
      <point x="455" y="592"/>
      <point x="468" y="592" type="curve" smooth="yes"/>
      <point x="481" y="592"/>
      <point x="490" y="582"/>
      <point x="488" y="568" type="curve" smooth="yes"/>
      <point x="486" y="554"/>
      <point x="473" y="544"/>
      <point x="460" y="544" type="curve" smooth="yes"/>
      <point x="447" y="544"/>
      <point x="438" y="554"/>
    </contour>
    <contour>
      <point x="240" y="568" type="curve" smooth="yes"/>
      <point x="242" y="582"/>
      <point x="255" y="592"/>
      <point x="268" y="592" type="curve" smooth="yes"/>
      <point x="281" y="592"/>
      <point x="290" y="582"/>
      <point x="288" y="568" type="curve" smooth="yes"/>
      <point x="286" y="554"/>
      <point x="273" y="544"/>
      <point x="260" y="544" type="curve" smooth="yes"/>
      <point x="247" y="544"/>
      <point x="238" y="554"/>
    </contour>
  </outline>
</glyph>
<glyph name="igrave" format="1">
  <advance width="211"/>
  <unicode hex="00EC"/>
  <outline>
    <contour>
      <point x="171" y="460" type="line"/>
      <point x="202" y="460" type="line"/>
      <point x="121" y="0" type="line"/>
      <point x="90" y="0" type="line"/>
    </contour>
    <contour>
      <point x="71" y="691" type="line"/>
      <point x="102" y="708" type="line"/>
      <point x="238" y="548" type="line"/>
      <point x="219" y="536" type="line"/>
    </contour>
  </outline>
</glyph>
<glyph name="iacute" format="1">
  <advance width="211"/>
  <unicode hex="00ED"/>
  <outline>
    <contour>
      <point x="171" y="460" type="line"/>
      <point x="202" y="460" type="line"/>
      <point x="121" y="0" type="line"/>
      <point x="90" y="0" type="line"/>
    </contour>
    <contour>
      <point x="384" y="691" type="line"/>
      <point x="183" y="536" type="line"/>
      <point x="167" y="548" type="line"/>
      <point x="359" y="708" type="line"/>
    </contour>
  </outline>
</glyph>
<glyph name="icircumflex" format="1">
  <advance width="211"/>
  <unicode hex="00EE"/>
  <outline>
    <contour>
      <point x="171" y="460" type="line"/>
      <point x="202" y="460" type="line"/>
      <point x="121" y="0" type="line"/>
      <point x="90" y="0" type="line"/>
    </contour>
    <contour>
      <point x="222" y="656" type="line"/>
      <point x="60" y="533" type="line"/>
      <point x="43" y="550" type="line"/>
      <point x="228" y="690" type="line"/>
      <point x="363" y="550" type="line"/>
      <point x="340" y="533" type="line"/>
    </contour>
  </outline>
</glyph>
<glyph name="idieresis" format="1">
  <advance width="211"/>
  <unicode hex="00EF"/>
  <outline>
    <contour>
      <point x="171" y="460" type="line"/>
      <point x="202" y="460" type="line"/>
      <point x="121" y="0" type="line"/>
      <point x="90" y="0" type="line"/>
    </contour>
    <contour>
      <point x="267" y="563" type="curve" smooth="yes"/>
      <point x="269" y="577"/>
      <point x="283" y="588"/>
      <point x="296" y="588" type="curve" smooth="yes"/>
      <point x="309" y="588"/>
      <point x="317" y="577"/>
      <point x="315" y="563" type="curve" smooth="yes"/>
      <point x="313" y="549"/>
      <point x="300" y="539"/>
      <point x="287" y="539" type="curve" smooth="yes"/>
      <point x="274" y="539"/>
      <point x="265" y="549"/>
    </contour>
    <contour>
      <point x="95" y="563" type="curve" smooth="yes"/>
      <point x="97" y="577"/>
      <point x="111" y="588"/>
      <point x="124" y="588" type="curve" smooth="yes"/>
      <point x="137" y="588"/>
      <point x="145" y="577"/>
      <point x="143" y="563" type="curve" smooth="yes"/>
      <point x="141" y="549"/>
      <point x="128" y="539"/>
      <point x="115" y="539" type="curve" smooth="yes"/>
      <point x="102" y="539"/>
      <point x="93" y="549"/>
    </contour>
  </outline>
</glyph>
<glyph name="eth" format="1">
  <advance width="548"/>
  <unicode hex="00F0"/>
  <outline>
    <contour>
      <point x="505" y="223" type="curve" smooth="yes"/>
      <point x="523" y="326"/>
      <point x="465" y="418"/>
      <point x="340" y="418" type="curve" smooth="yes"/>
      <point x="240" y="418"/>
      <point x="140" y="333"/>
      <point x="121" y="223" type="curve" smooth="yes"/>
      <point x="100" y="106"/>
      <point x="164" y="20"/>
      <point x="278" y="20" type="curve" smooth="yes"/>
      <point x="396" y="20"/>
      <point x="485" y="111"/>
    </contour>
    <contour>
      <point x="341" y="700" type="line"/>
      <point x="513" y="378" type="line" smooth="yes"/>
      <point x="533" y="341"/>
      <point x="547" y="280"/>
      <point x="537" y="223" type="curve" smooth="yes"/>
      <point x="513" y="86"/>
      <point x="407" y="-10"/>
      <point x="272" y="-10" type="curve" smooth="yes"/>
      <point x="137" y="-10"/>
      <point x="65" y="86"/>
      <point x="89" y="223" type="curve" smooth="yes"/>
      <point x="111" y="345"/>
      <point x="221" y="443"/>
      <point x="335" y="443" type="curve" smooth="yes"/>
      <point x="401" y="443"/>
      <point x="450" y="420"/>
      <point x="480" y="374" type="curve"/>
      <point x="478" y="372" type="line"/>
      <point x="301" y="700" type="line"/>
    </contour>
    <contour>
      <point x="246" y="558" type="line"/>
      <point x="251" y="585" type="line"/>
      <point x="530" y="585" type="line"/>
      <point x="525" y="558" type="line"/>
    </contour>
  </outline>
</glyph>
<glyph name="ntilde" format="1">
  <advance width="490"/>
  <unicode hex="00F1"/>
  <outline>
    <contour>
      <point x="194" y="460" type="line"/>
      <point x="113" y="0" type="line"/>
      <point x="82" y="0" type="line"/>
      <point x="163" y="460" type="line"/>
    </contour>
    <contour>
      <point x="431" y="308" type="line" smooth="yes"/>
      <point x="445" y="388"/>
      <point x="422" y="440"/>
      <point x="340" y="440" type="curve" smooth="yes"/>
      <point x="256" y="440"/>
      <point x="177" y="366"/>
      <point x="162" y="280" type="curve"/>
      <point x="147" y="280" type="line"/>
      <point x="166" y="389"/>
      <point x="256" y="470"/>
      <point x="351" y="470" type="curve" smooth="yes"/>
      <point x="446" y="470"/>
      <point x="480" y="409"/>
      <point x="463" y="311" type="curve" smooth="yes"/>
      <point x="408" y="0" type="line"/>
      <point x="377" y="0" type="line"/>
    </contour>
    <contour>
      <point x="206" y="556" type="line"/>
      <point x="215" y="591"/>
      <point x="246" y="621"/>
      <point x="291" y="621" type="curve" smooth="yes"/>
      <point x="349" y="621"/>
      <point x="353" y="574"/>
      <point x="407" y="574" type="curve" smooth="yes"/>
      <point x="433" y="574"/>
      <point x="450" y="590"/>
      <point x="472" y="622" type="curve"/>
      <point x="489" y="607" type="line"/>
      <point x="466" y="570"/>
      <point x="437" y="548"/>
      <point x="401" y="548" type="curve" smooth="yes"/>
      <point x="346" y="548"/>
      <point x="334" y="595"/>
      <point x="289" y="595" type="curve" smooth="yes"/>
      <point x="248" y="595"/>
      <point x="230" y="566"/>
      <point x="226" y="544" type="curve"/>
    </contour>
  </outline>
</glyph>
<glyph name="ograve" format="1">
  <advance width="553"/>
  <unicode hex="00F2"/>
  <outline>
    <contour>
      <point x="83" y="230" type="curve" smooth="yes"/>
      <point x="108" y="369"/>
      <point x="226" y="470"/>
      <point x="359" y="470" type="curve" smooth="yes"/>
      <point x="492" y="470"/>
      <point x="577" y="369"/>
      <point x="552" y="230" type="curve" smooth="yes"/>
      <point x="527" y="91"/>
      <point x="407" y="-10"/>
      <point x="274" y="-10" type="curve" smooth="yes"/>
      <point x="141" y="-10"/>
      <point x="58" y="91"/>
    </contour>
    <contour>
      <point x="115" y="230" type="curve" smooth="yes"/>
      <point x="93" y="108"/>
      <point x="166" y="20"/>
      <point x="280" y="20" type="curve" smooth="yes"/>
      <point x="394" y="20"/>
      <point x="499" y="108"/>
      <point x="521" y="230" type="curve" smooth="yes"/>
      <point x="543" y="352"/>
      <point x="468" y="440"/>
      <point x="354" y="440" type="curve" smooth="yes"/>
      <point x="240" y="440"/>
      <point x="137" y="352"/>
    </contour>
    <contour>
      <point x="256" y="691" type="line"/>
      <point x="287" y="708" type="line"/>
      <point x="423" y="548" type="line"/>
      <point x="404" y="536" type="line"/>
    </contour>
  </outline>
</glyph>
<glyph name="ocircumflex" format="1">
  <advance width="553"/>
  <unicode hex="00F4"/>
  <outline>
    <contour>
      <point x="83" y="230" type="curve" smooth="yes"/>
      <point x="108" y="369"/>
      <point x="226" y="470"/>
      <point x="359" y="470" type="curve" smooth="yes"/>
      <point x="492" y="470"/>
      <point x="577" y="369"/>
      <point x="552" y="230" type="curve" smooth="yes"/>
      <point x="527" y="91"/>
      <point x="407" y="-10"/>
      <point x="274" y="-10" type="curve" smooth="yes"/>
      <point x="141" y="-10"/>
      <point x="58" y="91"/>
    </contour>
    <contour>
      <point x="115" y="230" type="curve" smooth="yes"/>
      <point x="93" y="108"/>
      <point x="166" y="20"/>
      <point x="280" y="20" type="curve" smooth="yes"/>
      <point x="394" y="20"/>
      <point x="499" y="108"/>
      <point x="521" y="230" type="curve" smooth="yes"/>
      <point x="543" y="352"/>
      <point x="468" y="440"/>
      <point x="354" y="440" type="curve" smooth="yes"/>
      <point x="240" y="440"/>
      <point x="137" y="352"/>
    </contour>
    <contour>
      <point x="395" y="673" type="line"/>
      <point x="233" y="550" type="line"/>
      <point x="216" y="567" type="line"/>
      <point x="401" y="707" type="line"/>
      <point x="536" y="567" type="line"/>
      <point x="513" y="550" type="line"/>
    </contour>
  </outline>
</glyph>
<glyph name="otilde" format="1">
  <advance width="553"/>
  <unicode hex="00F5"/>
  <outline>
    <contour>
      <point x="83" y="230" type="curve" smooth="yes"/>
      <point x="108" y="369"/>
      <point x="226" y="470"/>
      <point x="359" y="470" type="curve" smooth="yes"/>
      <point x="492" y="470"/>
      <point x="577" y="369"/>
      <point x="552" y="230" type="curve" smooth="yes"/>
      <point x="527" y="91"/>
      <point x="407" y="-10"/>
      <point x="274" y="-10" type="curve" smooth="yes"/>
      <point x="141" y="-10"/>
      <point x="58" y="91"/>
    </contour>
    <contour>
      <point x="115" y="230" type="curve" smooth="yes"/>
      <point x="93" y="108"/>
      <point x="166" y="20"/>
      <point x="280" y="20" type="curve" smooth="yes"/>
      <point x="394" y="20"/>
      <point x="499" y="108"/>
      <point x="521" y="230" type="curve" smooth="yes"/>
      <point x="543" y="352"/>
      <point x="468" y="440"/>
      <point x="354" y="440" type="curve" smooth="yes"/>
      <point x="240" y="440"/>
      <point x="137" y="352"/>
    </contour>
    <contour>
      <point x="237" y="556" type="line"/>
      <point x="246" y="591"/>
      <point x="278" y="621"/>
      <point x="323" y="621" type="curve" smooth="yes"/>
      <point x="381" y="621"/>
      <point x="385" y="574"/>
      <point x="439" y="574" type="curve" smooth="yes"/>
      <point x="465" y="574"/>
      <point x="482" y="590"/>
      <point x="504" y="622" type="curve"/>
      <point x="521" y="607" type="line"/>
      <point x="498" y="570"/>
      <point x="469" y="548"/>
      <point x="433" y="548" type="curve" smooth="yes"/>
      <point x="378" y="548"/>
      <point x="364" y="595"/>
      <point x="319" y="595" type="curve" smooth="yes"/>
      <point x="278" y="595"/>
      <point x="262" y="566"/>
      <point x="258" y="544" type="curve"/>
    </contour>
  </outline>
</glyph>
<glyph name="odieresis" format="1">
  <advance width="553"/>
  <unicode hex="00F6"/>
  <outline>
    <contour>
      <point x="83" y="230" type="curve" smooth="yes"/>
      <point x="108" y="369"/>
      <point x="226" y="470"/>
      <point x="359" y="470" type="curve" smooth="yes"/>
      <point x="492" y="470"/>
      <point x="577" y="369"/>
      <point x="552" y="230" type="curve" smooth="yes"/>
      <point x="527" y="91"/>
      <point x="407" y="-10"/>
      <point x="274" y="-10" type="curve" smooth="yes"/>
      <point x="141" y="-10"/>
      <point x="58" y="91"/>
    </contour>
    <contour>
      <point x="115" y="230" type="curve" smooth="yes"/>
      <point x="93" y="108"/>
      <point x="166" y="20"/>
      <point x="280" y="20" type="curve" smooth="yes"/>
      <point x="394" y="20"/>
      <point x="499" y="108"/>
      <point x="521" y="230" type="curve" smooth="yes"/>
      <point x="543" y="352"/>
      <point x="468" y="440"/>
      <point x="354" y="440" type="curve" smooth="yes"/>
      <point x="240" y="440"/>
      <point x="137" y="352"/>
    </contour>
    <contour>
      <point x="454" y="577" type="curve" smooth="yes"/>
      <point x="456" y="591"/>
      <point x="469" y="602"/>
      <point x="482" y="602" type="curve" smooth="yes"/>
      <point x="495" y="602"/>
      <point x="504" y="591"/>
      <point x="502" y="577" type="curve" smooth="yes"/>
      <point x="500" y="563"/>
      <point x="487" y="553"/>
      <point x="474" y="553" type="curve" smooth="yes"/>
      <point x="461" y="553"/>
      <point x="452" y="563"/>
    </contour>
    <contour>
      <point x="254" y="577" type="curve" smooth="yes"/>
      <point x="256" y="591"/>
      <point x="269" y="602"/>
      <point x="282" y="602" type="curve" smooth="yes"/>
      <point x="295" y="602"/>
      <point x="304" y="591"/>
      <point x="302" y="577" type="curve" smooth="yes"/>
      <point x="300" y="563"/>
      <point x="287" y="553"/>
      <point x="274" y="553" type="curve" smooth="yes"/>
      <point x="261" y="553"/>
      <point x="252" y="563"/>
    </contour>
  </outline>
</glyph>
<glyph name="divide" format="1">
  <advance width="623"/>
  <unicode hex="00F7"/>
  <outline>
    <contour>
      <point x="365" y="450" type="curve" smooth="yes"/>
      <point x="367" y="464"/>
      <point x="381" y="475"/>
      <point x="394" y="475" type="curve" smooth="yes"/>
      <point x="407" y="475"/>
      <point x="415" y="464"/>
      <point x="413" y="450" type="curve" smooth="yes"/>
      <point x="411" y="436"/>
      <point x="398" y="426"/>
      <point x="385" y="426" type="curve" smooth="yes"/>
      <point x="372" y="426"/>
      <point x="363" y="436"/>
    </contour>
    <contour>
      <point x="293" y="42" type="curve" smooth="yes"/>
      <point x="295" y="56"/>
      <point x="309" y="67"/>
      <point x="322" y="67" type="curve" smooth="yes"/>
      <point x="335" y="67"/>
      <point x="343" y="56"/>
      <point x="341" y="42" type="curve" smooth="yes"/>
      <point x="339" y="28"/>
      <point x="326" y="18"/>
      <point x="313" y="18" type="curve" smooth="yes"/>
      <point x="300" y="18"/>
      <point x="291" y="28"/>
    </contour>
    <contour>
      <point x="101" y="232" type="line"/>
      <point x="106" y="263" type="line"/>
      <point x="606" y="263" type="line"/>
      <point x="601" y="232" type="line"/>
    </contour>
  </outline>
</glyph>
<glyph name="oslash" format="1">
  <advance width="546"/>
  <unicode hex="00F8"/>
  <outline>
    <contour>
      <point x="83" y="230" type="curve" smooth="yes"/>
      <point x="108" y="369"/>
      <point x="226" y="470"/>
      <point x="359" y="470" type="curve" smooth="yes"/>
      <point x="492" y="470"/>
      <point x="577" y="369"/>
      <point x="552" y="230" type="curve" smooth="yes"/>
      <point x="527" y="91"/>
      <point x="407" y="-10"/>
      <point x="274" y="-10" type="curve" smooth="yes"/>
      <point x="141" y="-10"/>
      <point x="58" y="91"/>
    </contour>
    <contour>
      <point x="115" y="230" type="curve" smooth="yes"/>
      <point x="93" y="108"/>
      <point x="166" y="20"/>
      <point x="280" y="20" type="curve" smooth="yes"/>
      <point x="394" y="20"/>
      <point x="499" y="108"/>
      <point x="521" y="230" type="curve" smooth="yes"/>
      <point x="543" y="352"/>
      <point x="468" y="440"/>
      <point x="354" y="440" type="curve" smooth="yes"/>
      <point x="240" y="440"/>
      <point x="137" y="352"/>
    </contour>
    <contour>
      <point x="539" y="495" type="line"/>
      <point x="558" y="485" type="line"/>
      <point x="75" y="-39" type="line"/>
      <point x="57" y="-29" type="line"/>
    </contour>
  </outline>
</glyph>
<glyph name="ugrave" format="1">
  <advance width="490"/>
  <unicode hex="00F9"/>
  <outline>
    <contour>
      <point x="377" y="0" type="line"/>
      <point x="458" y="460" type="line"/>
      <point x="489" y="460" type="line"/>
      <point x="408" y="0" type="line"/>
    </contour>
    <contour>
      <point x="141" y="159" type="line" smooth="yes"/>
      <point x="126" y="73"/>
      <point x="150" y="20"/>
      <point x="232" y="20" type="curve" smooth="yes"/>
      <point x="316" y="20"/>
      <point x="394" y="94"/>
      <point x="409" y="180" type="curve"/>
      <point x="424" y="180" type="line"/>
      <point x="405" y="71"/>
      <point x="315" y="-10"/>
      <point x="220" y="-10" type="curve" smooth="yes"/>
      <point x="125" y="-10"/>
      <point x="91" y="51"/>
      <point x="110" y="156" type="curve" smooth="yes"/>
      <point x="163" y="460" type="line"/>
      <point x="194" y="460" type="line"/>
    </contour>
    <contour>
      <point x="223" y="698" type="line"/>
      <point x="254" y="716" type="line"/>
      <point x="390" y="556" type="line"/>
      <point x="371" y="543" type="line"/>
    </contour>
  </outline>
</glyph>
<glyph name="ucircumflex" format="1">
  <advance width="490"/>
  <unicode hex="00FB"/>
  <outline>
    <contour>
      <point x="377" y="0" type="line"/>
      <point x="458" y="460" type="line"/>
      <point x="489" y="460" type="line"/>
      <point x="408" y="0" type="line"/>
    </contour>
    <contour>
      <point x="141" y="159" type="line" smooth="yes"/>
      <point x="126" y="73"/>
      <point x="150" y="20"/>
      <point x="232" y="20" type="curve" smooth="yes"/>
      <point x="316" y="20"/>
      <point x="394" y="94"/>
      <point x="409" y="180" type="curve"/>
      <point x="424" y="180" type="line"/>
      <point x="405" y="71"/>
      <point x="315" y="-10"/>
      <point x="220" y="-10" type="curve" smooth="yes"/>
      <point x="125" y="-10"/>
      <point x="91" y="51"/>
      <point x="110" y="156" type="curve" smooth="yes"/>
      <point x="163" y="460" type="line"/>
      <point x="194" y="460" type="line"/>
    </contour>
    <contour>
      <point x="362" y="666" type="line"/>
      <point x="200" y="543" type="line"/>
      <point x="184" y="560" type="line"/>
      <point x="368" y="700" type="line"/>
      <point x="504" y="560" type="line"/>
      <point x="480" y="543" type="line"/>
    </contour>
  </outline>
</glyph>
<glyph name="udieresis" format="1">
  <advance width="490"/>
  <unicode hex="00FC"/>
  <outline>
    <contour>
      <point x="377" y="0" type="line"/>
      <point x="458" y="460" type="line"/>
      <point x="489" y="460" type="line"/>
      <point x="408" y="0" type="line"/>
    </contour>
    <contour>
      <point x="141" y="159" type="line" smooth="yes"/>
      <point x="126" y="73"/>
      <point x="150" y="20"/>
      <point x="232" y="20" type="curve" smooth="yes"/>
      <point x="316" y="20"/>
      <point x="394" y="94"/>
      <point x="409" y="180" type="curve"/>
      <point x="424" y="180" type="line"/>
      <point x="405" y="71"/>
      <point x="315" y="-10"/>
      <point x="220" y="-10" type="curve" smooth="yes"/>
      <point x="125" y="-10"/>
      <point x="91" y="51"/>
      <point x="110" y="156" type="curve" smooth="yes"/>
      <point x="163" y="460" type="line"/>
      <point x="194" y="460" type="line"/>
    </contour>
    <contour>
      <point x="407" y="574" type="curve" smooth="yes"/>
      <point x="409" y="588"/>
      <point x="423" y="598"/>
      <point x="436" y="598" type="curve" smooth="yes"/>
      <point x="449" y="598"/>
      <point x="458" y="588"/>
      <point x="456" y="574" type="curve" smooth="yes"/>
      <point x="454" y="560"/>
      <point x="441" y="550"/>
      <point x="428" y="550" type="curve" smooth="yes"/>
      <point x="415" y="550"/>
      <point x="405" y="560"/>
    </contour>
    <contour>
      <point x="235" y="574" type="curve" smooth="yes"/>
      <point x="237" y="588"/>
      <point x="251" y="598"/>
      <point x="264" y="598" type="curve" smooth="yes"/>
      <point x="277" y="598"/>
      <point x="286" y="588"/>
      <point x="284" y="574" type="curve" smooth="yes"/>
      <point x="282" y="560"/>
      <point x="269" y="550"/>
      <point x="256" y="550" type="curve" smooth="yes"/>
      <point x="243" y="550"/>
      <point x="233" y="560"/>
    </contour>
  </outline>
</glyph>
<glyph name="yacute" format="1">
  <advance width="429"/>
  <unicode hex="00FD"/>
  <outline>
    <contour>
      <point x="503" y="460" type="line"/>
      <point x="83" y="-220" type="line"/>
      <point x="49" y="-220" type="line"/>
      <point x="206" y="34" type="line"/>
      <point x="88" y="460" type="line"/>
      <point x="125" y="460" type="line"/>
      <point x="235" y="44" type="line"/>
      <point x="218" y="45" type="line"/>
      <point x="469" y="460" type="line"/>
    </contour>
    <contour>
      <point x="484" y="691" type="line"/>
      <point x="283" y="536" type="line"/>
      <point x="267" y="548" type="line"/>
      <point x="459" y="708" type="line"/>
    </contour>
  </outline>
</glyph>
<glyph name="ydieresis" format="1">
  <advance width="429"/>
  <unicode hex="00FF"/>
  <outline>
    <contour>
      <point x="503" y="460" type="line"/>
      <point x="83" y="-220" type="line"/>
      <point x="49" y="-220" type="line"/>
      <point x="206" y="34" type="line"/>
      <point x="88" y="460" type="line"/>
      <point x="125" y="460" type="line"/>
      <point x="235" y="44" type="line"/>
      <point x="218" y="45" type="line"/>
      <point x="469" y="460" type="line"/>
    </contour>
    <contour>
      <point x="377" y="568" type="curve" smooth="yes"/>
      <point x="379" y="582"/>
      <point x="391" y="592"/>
      <point x="404" y="592" type="curve" smooth="yes"/>
      <point x="417" y="592"/>
      <point x="427" y="582"/>
      <point x="425" y="568" type="curve" smooth="yes"/>
      <point x="423" y="554"/>
      <point x="409" y="544"/>
      <point x="396" y="544" type="curve" smooth="yes"/>
      <point x="383" y="544"/>
      <point x="375" y="554"/>
    </contour>
    <contour>
      <point x="205" y="568" type="curve" smooth="yes"/>
      <point x="207" y="582"/>
      <point x="219" y="592"/>
      <point x="232" y="592" type="curve" smooth="yes"/>
      <point x="245" y="592"/>
      <point x="255" y="582"/>
      <point x="253" y="568" type="curve" smooth="yes"/>
      <point x="251" y="554"/>
      <point x="237" y="544"/>
      <point x="224" y="544" type="curve" smooth="yes"/>
      <point x="211" y="544"/>
      <point x="203" y="554"/>
    </contour>
  </outline>
</glyph>
<glyph name="Abreve" format="1">
  <advance width="618"/>
  <unicode hex="0102"/>
  <outline>
    <contour>
      <point x="178" y="254" type="line"/>
      <point x="192" y="284" type="line"/>
      <point x="526" y="284" type="line"/>
      <point x="531" y="254" type="line"/>
    </contour>
    <contour>
      <point x="423" y="644" type="line"/>
      <point x="207" y="273" type="line"/>
      <point x="203" y="265" type="line"/>
      <point x="49" y="0" type="line"/>
      <point x="12" y="0" type="line"/>
      <point x="436" y="721" type="line"/>
      <point x="606" y="0" type="line"/>
      <point x="569" y="0" type="line"/>
      <point x="510" y="263" type="line"/>
      <point x="508" y="271" type="line"/>
    </contour>
    <contour>
      <point x="315" y="928" type="curve"/>
      <point x="344" y="928" type="line"/>
      <point x="334" y="874"/>
      <point x="367" y="814"/>
      <point x="453" y="814" type="curve" smooth="yes"/>
      <point x="539" y="814"/>
      <point x="592" y="874"/>
      <point x="602" y="928" type="curve"/>
      <point x="631" y="928" type="line"/>
      <point x="619" y="859"/>
      <point x="553" y="788"/>
      <point x="448" y="788" type="curve" smooth="yes"/>
      <point x="343" y="788"/>
      <point x="303" y="859"/>
    </contour>
  </outline>
</glyph>
<glyph name="abreve" format="1">
  <advance width="549"/>
  <unicode hex="0103"/>
  <outline>
    <contour>
      <point x="524" y="460" type="line"/>
      <point x="554" y="460" type="line"/>
      <point x="473" y="0" type="line"/>
      <point x="443" y="0" type="line"/>
    </contour>
    <contour>
      <point x="83" y="230" type="curve" smooth="yes"/>
      <point x="109" y="378"/>
      <point x="221" y="470"/>
      <point x="343" y="470" type="curve" smooth="yes"/>
      <point x="464" y="470"/>
      <point x="520" y="358"/>
      <point x="497" y="230" type="curve" smooth="yes"/>
      <point x="474" y="102"/>
      <point x="379" y="-10"/>
      <point x="258" y="-10" type="curve" smooth="yes"/>
      <point x="136" y="-10"/>
      <point x="57" y="82"/>
    </contour>
    <contour>
      <point x="114" y="230" type="curve" smooth="yes"/>
      <point x="91" y="100"/>
      <point x="162" y="20"/>
      <point x="269" y="20" type="curve" smooth="yes"/>
      <point x="366" y="20"/>
      <point x="463" y="117"/>
      <point x="483" y="230" type="curve" smooth="yes"/>
      <point x="503" y="343"/>
      <point x="440" y="440"/>
      <point x="343" y="440" type="curve" smooth="yes"/>
      <point x="236" y="440"/>
      <point x="137" y="360"/>
    </contour>
    <contour>
      <point x="223" y="684" type="curve"/>
      <point x="251" y="684" type="line"/>
      <point x="241" y="630"/>
      <point x="276" y="570"/>
      <point x="361" y="570" type="curve" smooth="yes"/>
      <point x="446" y="570"/>
      <point x="500" y="630"/>
      <point x="510" y="684" type="curve"/>
      <point x="539" y="684" type="line"/>
      <point x="527" y="615"/>
      <point x="461" y="544"/>
      <point x="356" y="544" type="curve" smooth="yes"/>
      <point x="251" y="544"/>
      <point x="211" y="615"/>
    </contour>
  </outline>
</glyph>
<glyph name="Aogonek" format="1">
  <advance width="618"/>
  <unicode hex="0104"/>
  <outline>
    <contour>
      <point x="178" y="254" type="line"/>
      <point x="192" y="284" type="line"/>
      <point x="526" y="284" type="line"/>
      <point x="531" y="254" type="line"/>
    </contour>
    <contour>
      <point x="423" y="644" type="line"/>
      <point x="207" y="273" type="line"/>
      <point x="203" y="265" type="line"/>
      <point x="49" y="0" type="line"/>
      <point x="12" y="0" type="line"/>
      <point x="436" y="721" type="line"/>
      <point x="606" y="0" type="line"/>
      <point x="569" y="0" type="line"/>
      <point x="510" y="263" type="line"/>
      <point x="508" y="271" type="line"/>
    </contour>
    <contour>
      <point x="600" y="-160" type="curve"/>
      <point x="611" y="-180" type="line"/>
      <point x="592" y="-200"/>
      <point x="552" y="-220"/>
      <point x="509" y="-220" type="curve" smooth="yes"/>
      <point x="439" y="-220"/>
      <point x="406" y="-186"/>
      <point x="415" y="-134" type="curve"/>
      <point x="447" y="-128" type="line"/>
      <point x="439" y="-171"/>
      <point x="472" y="-192"/>
      <point x="516" y="-192" type="curve" smooth="yes"/>
      <point x="552" y="-192"/>
      <point x="583" y="-176"/>
    </contour>
    <contour>
      <point x="447" y="-128" type="curve"/>
      <point x="415" y="-134" type="line"/>
      <point x="427" y="-68"/>
      <point x="512" y="-22"/>
      <point x="588" y="14" type="curve"/>
      <point x="603" y="0" type="line"/>
      <point x="535" y="-29"/>
      <point x="456" y="-77"/>
    </contour>
  </outline>
</glyph>
<glyph name="aogonek" format="1">
  <advance width="549"/>
  <unicode hex="0105"/>
  <outline>
    <contour>
      <point x="524" y="460" type="line"/>
      <point x="554" y="460" type="line"/>
      <point x="473" y="0" type="line"/>
      <point x="443" y="0" type="line"/>
    </contour>
    <contour>
      <point x="83" y="230" type="curve" smooth="yes"/>
      <point x="109" y="378"/>
      <point x="221" y="470"/>
      <point x="343" y="470" type="curve" smooth="yes"/>
      <point x="464" y="470"/>
      <point x="520" y="358"/>
      <point x="497" y="230" type="curve" smooth="yes"/>
      <point x="474" y="102"/>
      <point x="379" y="-10"/>
      <point x="258" y="-10" type="curve" smooth="yes"/>
      <point x="136" y="-10"/>
      <point x="57" y="82"/>
    </contour>
    <contour>
      <point x="114" y="230" type="curve" smooth="yes"/>
      <point x="91" y="100"/>
      <point x="162" y="20"/>
      <point x="269" y="20" type="curve" smooth="yes"/>
      <point x="366" y="20"/>
      <point x="463" y="117"/>
      <point x="483" y="230" type="curve" smooth="yes"/>
      <point x="503" y="343"/>
      <point x="440" y="440"/>
      <point x="343" y="440" type="curve" smooth="yes"/>
      <point x="236" y="440"/>
      <point x="137" y="360"/>
    </contour>
    <contour>
      <point x="470" y="-160" type="curve"/>
      <point x="481" y="-180" type="line"/>
      <point x="462" y="-200"/>
      <point x="422" y="-220"/>
      <point x="379" y="-220" type="curve" smooth="yes"/>
      <point x="309" y="-220"/>
      <point x="276" y="-186"/>
      <point x="285" y="-134" type="curve"/>
      <point x="317" y="-128" type="line"/>
      <point x="309" y="-171"/>
      <point x="341" y="-192"/>
      <point x="385" y="-192" type="curve" smooth="yes"/>
      <point x="421" y="-192"/>
      <point x="452" y="-176"/>
    </contour>
    <contour>
      <point x="317" y="-128" type="curve"/>
      <point x="285" y="-134" type="line"/>
      <point x="297" y="-68"/>
      <point x="382" y="-22"/>
      <point x="458" y="14" type="curve"/>
      <point x="473" y="0" type="line"/>
      <point x="405" y="-29"/>
      <point x="326" y="-77"/>
    </contour>
  </outline>
</glyph>
<glyph name="cacute" format="1">
  <advance width="485"/>
  <unicode hex="0107"/>
  <outline>
    <contour>
      <point x="109" y="230" type="curve" smooth="yes"/>
      <point x="87" y="108"/>
      <point x="162" y="20"/>
      <point x="276" y="20" type="curve" smooth="yes"/>
      <point x="350" y="20"/>
      <point x="418" y="58"/>
      <point x="444" y="88" type="curve"/>
      <point x="436" y="48" type="line"/>
      <point x="406" y="19"/>
      <point x="340" y="-10"/>
      <point x="270" y="-10" type="curve" smooth="yes"/>
      <point x="137" y="-10"/>
      <point x="53" y="91"/>
      <point x="78" y="230" type="curve" smooth="yes"/>
      <point x="103" y="369"/>
      <point x="222" y="470"/>
      <point x="355" y="470" type="curve" smooth="yes"/>
      <point x="425" y="470"/>
      <point x="481" y="440"/>
      <point x="501" y="412" type="curve"/>
      <point x="494" y="372" type="line"/>
      <point x="478" y="402"/>
      <point x="424" y="440"/>
      <point x="350" y="440" type="curve" smooth="yes"/>
      <point x="236" y="440"/>
      <point x="131" y="352"/>
    </contour>
    <contour>
      <point x="534" y="692" type="line"/>
      <point x="333" y="537" type="line"/>
      <point x="317" y="550" type="line"/>
      <point x="509" y="710" type="line"/>
    </contour>
  </outline>
</glyph>
<glyph name="Ccircumflex" format="1">
  <advance width="685"/>
  <unicode hex="0108"/>
  <outline>
    <contour>
      <point x="144" y="350" type="curve" smooth="yes"/>
      <point x="111" y="161"/>
      <point x="216" y="26"/>
      <point x="388" y="26" type="curve" smooth="yes"/>
      <point x="487" y="26"/>
      <point x="562" y="58"/>
      <point x="628" y="116" type="curve"/>
      <point x="620" y="70" type="line"/>
      <point x="552" y="18"/>
      <point x="484" y="-8"/>
      <point x="382" y="-8" type="curve" smooth="yes"/>
      <point x="188" y="-8"/>
      <point x="72" y="141"/>
      <point x="109" y="350" type="curve" smooth="yes"/>
      <point x="146" y="559"/>
      <point x="314" y="708"/>
      <point x="508" y="708" type="curve" smooth="yes"/>
      <point x="610" y="708"/>
      <point x="669" y="682"/>
      <point x="719" y="630" type="curve"/>
      <point x="711" y="586" type="line"/>
      <point x="667" y="644"/>
      <point x="598" y="674"/>
      <point x="502" y="674" type="curve" smooth="yes"/>
      <point x="330" y="674"/>
      <point x="178" y="541"/>
    </contour>
    <contour>
      <point x="540" y="892" type="line"/>
      <point x="378" y="768" type="line"/>
      <point x="362" y="786" type="line"/>
      <point x="546" y="926" type="line"/>
      <point x="682" y="786" type="line"/>
      <point x="658" y="768" type="line"/>
    </contour>
  </outline>
</glyph>
<glyph name="ccircumflex" format="1">
  <advance width="485"/>
  <unicode hex="0109"/>
  <outline>
    <contour>
      <point x="109" y="230" type="curve" smooth="yes"/>
      <point x="87" y="108"/>
      <point x="162" y="20"/>
      <point x="276" y="20" type="curve" smooth="yes"/>
      <point x="350" y="20"/>
      <point x="418" y="58"/>
      <point x="444" y="88" type="curve"/>
      <point x="436" y="48" type="line"/>
      <point x="406" y="19"/>
      <point x="340" y="-10"/>
      <point x="270" y="-10" type="curve" smooth="yes"/>
      <point x="137" y="-10"/>
      <point x="53" y="91"/>
      <point x="78" y="230" type="curve" smooth="yes"/>
      <point x="103" y="369"/>
      <point x="222" y="470"/>
      <point x="355" y="470" type="curve" smooth="yes"/>
      <point x="425" y="470"/>
      <point x="481" y="440"/>
      <point x="501" y="412" type="curve"/>
      <point x="494" y="372" type="line"/>
      <point x="478" y="402"/>
      <point x="424" y="440"/>
      <point x="350" y="440" type="curve" smooth="yes"/>
      <point x="236" y="440"/>
      <point x="131" y="352"/>
    </contour>
    <contour>
      <point x="387" y="653" type="line"/>
      <point x="225" y="530" type="line"/>
      <point x="208" y="547" type="line"/>
      <point x="393" y="687" type="line"/>
      <point x="528" y="547" type="line"/>
      <point x="505" y="530" type="line"/>
    </contour>
  </outline>
</glyph>
<glyph name="Cdotaccent" format="1">
  <advance width="685"/>
  <unicode hex="010A"/>
  <outline>
    <contour>
      <point x="144" y="350" type="curve" smooth="yes"/>
      <point x="111" y="161"/>
      <point x="216" y="26"/>
      <point x="388" y="26" type="curve" smooth="yes"/>
      <point x="487" y="26"/>
      <point x="562" y="58"/>
      <point x="628" y="116" type="curve"/>
      <point x="620" y="70" type="line"/>
      <point x="552" y="18"/>
      <point x="484" y="-8"/>
      <point x="382" y="-8" type="curve" smooth="yes"/>
      <point x="188" y="-8"/>
      <point x="72" y="141"/>
      <point x="109" y="350" type="curve" smooth="yes"/>
      <point x="146" y="559"/>
      <point x="314" y="708"/>
      <point x="508" y="708" type="curve" smooth="yes"/>
      <point x="610" y="708"/>
      <point x="669" y="682"/>
      <point x="719" y="630" type="curve"/>
      <point x="711" y="586" type="line"/>
      <point x="667" y="644"/>
      <point x="598" y="674"/>
      <point x="502" y="674" type="curve" smooth="yes"/>
      <point x="330" y="674"/>
      <point x="178" y="541"/>
    </contour>
    <contour>
      <point x="500" y="800" type="curve" smooth="yes"/>
      <point x="502" y="814"/>
      <point x="515" y="824"/>
      <point x="528" y="824" type="curve" smooth="yes"/>
      <point x="541" y="824"/>
      <point x="550" y="814"/>
      <point x="548" y="800" type="curve" smooth="yes"/>
      <point x="546" y="786"/>
      <point x="533" y="776"/>
      <point x="520" y="776" type="curve" smooth="yes"/>
      <point x="507" y="776"/>
      <point x="498" y="786"/>
    </contour>
  </outline>
</glyph>
<glyph name="ccaron" format="1">
  <advance width="485"/>
  <unicode hex="010D"/>
  <outline>
    <contour>
      <point x="109" y="230" type="curve" smooth="yes"/>
      <point x="87" y="108"/>
      <point x="162" y="20"/>
      <point x="276" y="20" type="curve" smooth="yes"/>
      <point x="350" y="20"/>
      <point x="418" y="58"/>
      <point x="444" y="88" type="curve"/>
      <point x="436" y="48" type="line"/>
      <point x="406" y="19"/>
      <point x="340" y="-10"/>
      <point x="270" y="-10" type="curve" smooth="yes"/>
      <point x="137" y="-10"/>
      <point x="53" y="91"/>
      <point x="78" y="230" type="curve" smooth="yes"/>
      <point x="103" y="369"/>
      <point x="222" y="470"/>
      <point x="355" y="470" type="curve" smooth="yes"/>
      <point x="425" y="470"/>
      <point x="481" y="440"/>
      <point x="501" y="412" type="curve"/>
      <point x="494" y="372" type="line"/>
      <point x="478" y="402"/>
      <point x="424" y="440"/>
      <point x="350" y="440" type="curve" smooth="yes"/>
      <point x="236" y="440"/>
      <point x="131" y="352"/>
    </contour>
    <contour>
      <point x="374" y="578" type="line"/>
      <point x="535" y="702" type="line"/>
      <point x="553" y="684" type="line"/>
      <point x="368" y="544" type="line"/>
      <point x="233" y="684" type="line"/>
      <point x="256" y="702" type="line"/>
    </contour>
  </outline>
</glyph>
<glyph name="dcaron" format="1">
  <advance width="570"/>
  <unicode hex="010F"/>
  <outline>
    <contour>
      <point x="580" y="780" type="line"/>
      <point x="610" y="780" type="line"/>
      <point x="472" y="0" type="line"/>
      <point x="442" y="0" type="line"/>
    </contour>
    <contour>
      <point x="83" y="230" type="curve" smooth="yes"/>
      <point x="109" y="378"/>
      <point x="221" y="470"/>
      <point x="343" y="470" type="curve" smooth="yes"/>
      <point x="463" y="470"/>
      <point x="520" y="358"/>
      <point x="497" y="230" type="curve" smooth="yes"/>
      <point x="474" y="102"/>
      <point x="378" y="-10"/>
      <point x="258" y="-10" type="curve" smooth="yes"/>
      <point x="136" y="-10"/>
      <point x="57" y="82"/>
    </contour>
    <contour>
      <point x="115" y="230" type="curve" smooth="yes"/>
      <point x="92" y="100"/>
      <point x="162" y="20"/>
      <point x="268" y="20" type="curve" smooth="yes"/>
      <point x="366" y="20"/>
      <point x="463" y="117"/>
      <point x="483" y="230" type="curve" smooth="yes"/>
      <point x="503" y="343"/>
      <point x="440" y="440"/>
      <point x="342" y="440" type="curve" smooth="yes"/>
      <point x="236" y="440"/>
      <point x="138" y="360"/>
    </contour>
    <contour>
      <point x="780" y="769" type="line"/>
      <point x="809" y="756" type="line"/>
      <point x="655" y="506" type="line"/>
      <point x="635" y="514" type="line"/>
    </contour>
  </outline>
</glyph>
<glyph name="Dcroat" format="1">
  <advance width="680"/>
  <unicode hex="0110"/>
  <outline>
    <contour>
      <point x="222" y="667" type="line"/>
      <point x="227" y="700" type="line"/>
      <point x="385" y="700" type="line" smooth="yes"/>
      <point x="589" y="700"/>
      <point x="701" y="559"/>
      <point x="664" y="350" type="curve"/>
      <point x="630" y="350" type="line"/>
      <point x="664" y="541"/>
      <point x="566" y="667"/>
      <point x="380" y="667" type="curve" smooth="yes"/>
    </contour>
    <contour>
      <point x="262" y="0" type="curve" smooth="yes"/>
      <point x="104" y="0" type="line"/>
      <point x="110" y="33" type="line"/>
      <point x="268" y="33" type="line" smooth="yes"/>
      <point x="454" y="33"/>
      <point x="596" y="159"/>
      <point x="630" y="350" type="curve"/>
      <point x="664" y="350" type="line"/>
      <point x="627" y="141"/>
      <point x="466" y="0"/>
    </contour>
    <contour>
      <point x="210" y="700" type="line"/>
      <point x="243" y="700" type="line"/>
      <point x="120" y="0" type="line"/>
      <point x="87" y="0" type="line"/>
    </contour>
    <contour>
      <point x="64" y="334" type="line"/>
      <point x="69" y="364" type="line"/>
      <point x="369" y="364" type="line"/>
      <point x="364" y="334" type="line"/>
    </contour>
  </outline>
</glyph>
<glyph name="dcroat" format="1">
  <advance width="549"/>
  <unicode hex="0111"/>
  <outline>
    <contour>
      <point x="407" y="636" type="line"/>
      <point x="412" y="665" type="line"/>
      <point x="712" y="665" type="line"/>
      <point x="707" y="636" type="line"/>
    </contour>
    <contour>
      <point x="580" y="780" type="line"/>
      <point x="610" y="780" type="line"/>
      <point x="472" y="0" type="line"/>
      <point x="442" y="0" type="line"/>
    </contour>
    <contour>
      <point x="83" y="230" type="curve" smooth="yes"/>
      <point x="109" y="379"/>
      <point x="221" y="470"/>
      <point x="343" y="470" type="curve" smooth="yes"/>
      <point x="458" y="470"/>
      <point x="521" y="365"/>
      <point x="497" y="230" type="curve" smooth="yes"/>
      <point x="473" y="95"/>
      <point x="373" y="-10"/>
      <point x="258" y="-10" type="curve" smooth="yes"/>
      <point x="136" y="-10"/>
      <point x="57" y="81"/>
    </contour>
    <contour>
      <point x="115" y="230" type="curve" smooth="yes"/>
      <point x="92" y="100"/>
      <point x="162" y="20"/>
      <point x="268" y="20" type="curve" smooth="yes"/>
      <point x="370" y="20"/>
      <point x="464" y="124"/>
      <point x="483" y="230" type="curve" smooth="yes"/>
      <point x="502" y="336"/>
      <point x="444" y="440"/>
      <point x="342" y="440" type="curve" smooth="yes"/>
      <point x="236" y="440"/>
      <point x="138" y="360"/>
    </contour>
  </outline>
</glyph>
<glyph name="Emacron" format="1">
  <advance width="522"/>
  <unicode hex="0112"/>
  <outline>
    <contour>
      <point x="102" y="0" type="line"/>
      <point x="107" y="31" type="line"/>
      <point x="450" y="31" type="line"/>
      <point x="445" y="0" type="line"/>
    </contour>
    <contour>
      <point x="220" y="669" type="line"/>
      <point x="225" y="700" type="line"/>
      <point x="568" y="700" type="line"/>
      <point x="563" y="669" type="line"/>
    </contour>
    <contour>
      <point x="167" y="371" type="line"/>
      <point x="173" y="402" type="line"/>
      <point x="496" y="402" type="line"/>
      <point x="490" y="371" type="line"/>
    </contour>
    <contour>
      <point x="210" y="700" type="line"/>
      <point x="243" y="700" type="line"/>
      <point x="120" y="0" type="line"/>
      <point x="87" y="0" type="line"/>
    </contour>
    <contour>
      <point x="249" y="816" type="line"/>
      <point x="254" y="845" type="line"/>
      <point x="604" y="845" type="line"/>
      <point x="599" y="816" type="line"/>
    </contour>
  </outline>
</glyph>
